<?xml version="1.0" encoding="utf-8"?>
<!-- Generator: Adobe Illustrator 25.4.1, SVG Export Plug-In . SVG Version: 6.00 Build 0)  -->
<svg version="1.1" xmlns="http://www.w3.org/2000/svg" xmlns:xlink="http://www.w3.org/1999/xlink" x="0px" y="0px"
	 viewBox="0 0 750 500" style="enable-background:new 0 0 750 500;" xml:space="preserve">
<style type="text/css">
	.st0{fill:#F8F9E6;}
	.st1{fill:#BACF9B;}
	.st2{clip-path:url(#SVGID_00000025445062265248322380000009265442824288875405_);}
	.st3{fill:#E9EFB7;}
	.st4{fill:#73956F;}
	.st5{fill:#C8D7A4;}
	.st6{clip-path:url(#SVGID_00000077287942346614106440000009423971709911842954_);}
	.st7{fill:#B4C9BC;}
	.st8{fill:#71936F;}
	.st9{clip-path:url(#SVGID_00000077287942346614106440000009423971709911842954_);fill:#466759;}
	.st10{fill:#122D2D;}
	.st11{opacity:0.31;fill:#FEFACC;}
	.st12{opacity:0.18;fill:#FEFACC;}
	.st13{fill:none;stroke:#000000;stroke-width:0.5;stroke-linecap:round;stroke-linejoin:round;stroke-miterlimit:10;}
	.st14{fill:#3F6B3D;}
	.st15{fill:none;stroke:#000000;stroke-miterlimit:10;}
	.st16{fill:#849238;}
	.st17{fill:#AFB153;}
	.st18{clip-path:url(#SVGID_00000075160777270178745310000016130725726770784957_);}
	.st19{fill:#4A723B;}
	.st20{fill:#14231A;}
	.st21{clip-path:url(#SVGID_00000167373873080311497420000016039133249715845022_);}
</style>
<g id="BACKGROUND">
</g>
<g id="OBJECTS">
	<g>
		<rect x="0.41" y="-0.29" class="st0" width="749.17" height="500.59"/>
		<g>
			<path class="st1" d="M400.81,123.64l17.24-13.07c0,0-23.32-10.32-33.79-4.24c-17.42,6.89-31.19,19.22-41.21,30.97
				c2.54-4.86,10.25-15.97,10.25-15.97l-9.97-3.87c2.38-1.26,12.13-0.47,12.13-0.47c2.27-3.84,11.52-20.3,11.52-20.3l-16.28-2.88
				c3.25-4.07,19-3.9,19-3.9l8.47-19.91c0,0-25.37,2.64-31.43,13.11c-14.67,18.38-20.12,41.33-22.03,58.44
				c-1.91-17.11-7.36-40.07-22.03-58.44c-6.07-10.48-31.43-13.11-31.43-13.11l8.47,19.91c0,0,15.75-0.17,19,3.9l-16.28,2.88
				c0,0,9.26,16.46,11.52,20.3c0,0,9.75-0.79,12.13,0.47l-9.97,3.87c0,0,8.72,12.56,10.67,16.81l10.18,0.03l-8.32,3.43l7.91,11.54
				c-10.19-14.03-29.12-35.19-55.4-44.06c-10.77-5.53-33.53,5.98-33.53,5.98l17.89,12.16c0,0,13.15-8.66,18.09-7l-12.13,11.23
				c0,0,16.69,8.84,20.67,10.84c0,0,7.77-5.94,10.46-6.17l-6.29,8.65c0,0,14.13,5.85,18.07,8.37l8.58-5.48l-5.14,7.38l13.72,5.77
				c0,0,0,32.45,0,43.76c0,11.31,6.67,21.06,6.67,21.06v63.9h9.72V224.7c0,0,6.37-7.29,8.43-17.44c2.06-10.15-2.14-45.49-2.14-45.5
				l15.8-7.63l-5.52-7.11l8.85,5.03c3.81-2.72,17.62-9.29,17.62-9.29l-6.72-8.31c2.69,0.09,10.76,5.62,10.76,5.62
				c3.88-2.2,20.09-11.89,20.09-11.89l-12.7-10.59C387.22,115.67,400.81,123.64,400.81,123.64z M342.32,138.16
				c-0.87,1.03-1.7,2.05-2.51,3.07l-7.37-3.04L342.32,138.16z M322.11,161.27l-0.06,0c-0.24-0.38-0.5-0.79-0.77-1.2L322.11,161.27z"
				/>
			<path class="st1" d="M647.82,100.73l17.24-13.07c0,0-23.32-10.32-33.79-4.24c-17.42,6.89-31.19,19.22-41.21,30.97
				c2.54-4.86,10.25-15.97,10.25-15.97l-9.97-3.87c2.38-1.26,12.13-0.47,12.13-0.47c2.27-3.84,11.52-20.3,11.52-20.3l-16.28-2.88
				c3.25-4.07,19-3.9,19-3.9l8.47-19.91c0,0-25.37,2.64-31.43,13.11c-14.67,18.38-20.12,41.33-22.03,58.44
				c-1.91-17.11-7.36-40.07-22.03-58.44c-6.07-10.48-31.43-13.11-31.43-13.11L526.72,67c0,0,15.75-0.17,19,3.9l-16.28,2.88
				c0,0,9.26,16.46,11.52,20.3c0,0,9.75-0.79,12.13,0.47l-9.97,3.87c0,0,8.72,12.56,10.67,16.81l10.18,0.03l-8.32,3.43l7.91,11.54
				c-10.19-14.03-29.12-35.19-55.4-44.06c-10.77-5.53-33.53,5.98-33.53,5.98l17.89,12.16c0,0,13.15-8.66,18.09-7l-12.13,11.23
				c0,0,16.69,8.84,20.67,10.84c0,0,7.77-5.94,10.46-6.17l-6.29,8.65c0,0,14.13,5.85,18.07,8.37l8.58-5.48l-5.14,7.38l13.72,5.77
				c0,0,0,32.45,0,43.76c0,11.31,6.67,21.06,6.67,21.06v63.9h9.72v-64.87c0,0,6.37-7.29,8.43-17.44c2.06-10.15-2.14-45.49-2.14-45.5
				l15.8-7.63l-5.52-7.11l8.85,5.03c3.81-2.72,17.62-9.29,17.62-9.29l-6.72-8.31c2.69,0.09,10.76,5.62,10.76,5.62
				c3.87-2.2,20.09-11.89,20.09-11.89l-12.7-10.59C634.23,92.76,647.82,100.73,647.82,100.73z M589.33,115.24
				c-0.87,1.03-1.7,2.06-2.51,3.07l-7.37-3.04L589.33,115.24z M569.12,138.36l-0.06,0c-0.24-0.38-0.5-0.79-0.77-1.2L569.12,138.36z"
				/>
			<path class="st1" d="M209.34,100.73l17.24-13.07c0,0-23.32-10.32-33.79-4.24c-17.42,6.89-31.19,19.22-41.21,30.97
				c2.54-4.86,10.25-15.97,10.25-15.97l-9.97-3.87c2.38-1.26,12.13-0.47,12.13-0.47c2.27-3.84,11.52-20.3,11.52-20.3l-16.28-2.88
				c3.25-4.07,19-3.9,19-3.9l8.47-19.91c0,0-25.37,2.64-31.43,13.11c-14.67,18.38-20.12,41.33-22.03,58.44
				c-1.91-17.11-7.36-40.07-22.03-58.44c-6.07-10.48-31.43-13.11-31.43-13.11L88.24,67c0,0,15.75-0.17,19,3.9l-16.28,2.88
				c0,0,9.26,16.46,11.52,20.3c0,0,9.75-0.79,12.13,0.47l-9.97,3.87c0,0,8.72,12.56,10.67,16.81l10.18,0.03l-8.32,3.43l7.91,11.54
				c-10.19-14.03-29.12-35.19-55.4-44.06c-10.77-5.53-33.53,5.98-33.53,5.98l17.89,12.16c0,0,13.15-8.66,18.09-7L60,108.56
				c0,0,16.69,8.84,20.67,10.84c0,0,7.77-5.94,10.46-6.17l-6.29,8.65c0,0,14.13,5.85,18.07,8.37l8.58-5.48l-5.14,7.38l13.72,5.77
				c0,0,0,32.45,0,43.76c0,11.31,6.67,21.06,6.67,21.06v63.9h9.72v-64.87c0,0,6.37-7.29,8.43-17.44c2.06-10.15-2.14-45.49-2.14-45.5
				l15.8-7.63l-5.52-7.11l8.85,5.03c3.81-2.72,17.62-9.29,17.62-9.29l-6.72-8.31c2.69,0.09,10.76,5.62,10.76,5.62
				c3.87-2.2,20.09-11.89,20.09-11.89l-12.7-10.59C195.76,92.76,209.34,100.73,209.34,100.73z M150.86,115.24
				c-0.86,1.03-1.7,2.06-2.51,3.07l-7.37-3.04L150.86,115.24z M130.64,138.36l-0.06,0c-0.24-0.38-0.5-0.79-0.77-1.2L130.64,138.36z"
				/>
			<path class="st1" d="M549.62,166.62l17.24-13.07c0,0-23.32-10.32-33.79-4.24c-17.42,6.89-31.19,19.22-41.21,30.97
				c2.54-4.86,10.25-15.97,10.25-15.97l-9.97-3.87c2.38-1.26,12.13-0.47,12.13-0.47c2.27-3.84,11.52-20.3,11.52-20.3l-16.28-2.88
				c3.25-4.07,19-3.9,19-3.9l8.47-19.91c0,0-25.37,2.64-31.43,13.11c-14.67,18.38-20.12,41.33-22.03,58.44
				c-1.91-17.11-7.36-40.07-22.03-58.44c-6.07-10.48-31.43-13.11-31.43-13.11l8.47,19.91c0,0,15.75-0.17,19,3.9l-16.28,2.88
				c0,0,9.26,16.46,11.52,20.3c0,0,9.75-0.79,12.13,0.47l-9.97,3.87c0,0,8.72,12.56,10.67,16.81l10.18,0.04l-8.32,3.43l7.91,11.54
				c-10.19-14.03-29.12-35.19-55.4-44.06c-10.77-5.53-33.53,5.98-33.53,5.98l17.89,12.16c0,0,13.15-8.66,18.09-7l-12.13,11.23
				c0,0,16.69,8.84,20.67,10.84c0,0,7.77-5.94,10.46-6.17l-6.29,8.65c0,0,14.13,5.85,18.07,8.37l8.58-5.48l-5.14,7.39l13.72,5.77
				c0,0,0,32.45,0,43.76c0,11.31,6.67,21.06,6.67,21.06v63.9h9.72v-64.87c0,0,6.37-7.29,8.43-17.44c2.06-10.15-2.14-45.49-2.14-45.5
				l15.8-7.63l-5.52-7.11l8.85,5.03c3.81-2.72,17.62-9.29,17.62-9.29l-6.72-8.31c2.69,0.09,10.76,5.62,10.76,5.62
				c3.87-2.2,20.09-11.89,20.09-11.89l-12.7-10.59C536.04,158.65,549.62,166.62,549.62,166.62z M491.14,181.13
				c-0.87,1.03-1.7,2.06-2.51,3.07l-7.37-3.04L491.14,181.13z M470.93,204.25l-0.06,0c-0.24-0.38-0.5-0.79-0.77-1.2L470.93,204.25z"
				/>
		</g>
		<g>
			<defs>
				<rect id="SVGID_1_" y="-0.29" width="750.14" height="500.29"/>
			</defs>
			<clipPath id="SVGID_00000101784764758457921640000001119945403878013831_">
				<use xlink:href="#SVGID_1_"  style="overflow:visible;"/>
			</clipPath>
			<g style="clip-path:url(#SVGID_00000101784764758457921640000001119945403878013831_);">
				<path class="st3" d="M749.74,107.35c-4.58,2.3-8.38,6.13-10.65,10.73c-4.97-11.7-11.04-24.64-20.29-33.35
					c-1.89-1.77-3.99-3.42-6.46-4.2c-2.47-0.78-5.39-0.54-7.35,1.15c-2.57,2.21-2.81,6.04-2.81,9.43
					c0.01,14.96,0.94,29.92,2.79,44.76c-2.38-5.97-6.75-10.27-12.13-13.79c-1.83-1.2-3.98-2.23-6.12-1.81
					c-3.07,0.61-4.78,3.87-5.81,6.83c-1.78,5.13-2.88,10.49-3.26,15.91c-1.02-3.51-2.75-7.11-4.9-10.07
					c-2.15-2.95-5.66-5.2-9.29-4.83c-3.15,0.32-5.85,2.53-7.55,5.2c-1.7,2.67-2.56,5.77-3.4,8.82c-5.09-6.14-12.05-10.9-18.85-15.06
					s-15.61-5.92-22.82-2.51c-5.59,2.64-9.45,7.93-12.38,13.37c-4.62,8.57-7.56,18.04-8.59,27.72
					c-4.64-10.32-12.18-18.22-19.74-26.63c-2.02-2.25-4.58-4.6-7.59-4.35c-4.19,0.34-6.22,5.21-7.18,9.3
					c-6.54,27.79-5.98,57.23,1.62,84.75c-6.45-8.58-16.62-14.23-27.17-16.18c0.98-22.15-1.02-42.85-4.29-64.77
					c-0.74-4.96-2.46-10.9-7.34-12.06c-2.75-0.66-5.68,0.59-7.72,2.54c-2.05,1.95-3.37,4.52-4.62,7.05
					c-6.89,14.06-12.42,28.78-16.49,43.9c-11.11-2.11-22.83,3.52-28.27,13.43c-9.06-16.04-18.3-31.95-28.9-47.01
					c-1.23-1.75-2.84-3.68-4.98-3.6c-1.93,0.08-3.42,1.9-3.78,3.8c-0.36,1.89,0.13,3.84,0.63,5.7c5.2,19.47,10.84,38.81,16.94,58.01
					c-3.82,3.95-7.35,8.6-10.4,13.17c-0.64-8.43-1.63-17.18-3.68-25.37c-0.81-3.26-2.44-7.11-5.78-7.42
					c-1.71-0.16-3.38,0.76-4.54,2.02c-1.16,1.26-1.91,2.84-2.63,4.4c-3.74,8.01-7.48,16.02-11.23,24.03
					c-4.8-2.49-10.43-3.3-15.8-3.88c-1.87-0.2-3.98-0.21-5.38,1.05c-1.57,1.41-1.63,3.83-1.4,5.93c0.98,8.88,5.12,17.38,11.51,23.62
					c-1.28,7-2.61,13.16-3.88,20.16c-5.58-12.18-12.97-23.47-22.34-33.05c0.32-10.45,0.4-20.82-1.05-31.17
					c-0.48-3.43-1.61-7.5-4.94-8.46c-3.1-0.89-6.1,1.54-8.35,3.85c-14.54,14.92-25.98,32.85-33.39,52.32
					c-0.97-19.66-5.98-39.16-11.58-58.03c-0.85-2.85-2.25-6.16-5.18-6.66c-3.38-0.58-5.89,2.97-7.41,6.04
					c-13.24,26.84-21.74,56-24.98,85.75c-5.69-32.49-16.48-64.44-31.45-93.82c-1.78-3.49-4.32-7.42-8.24-7.56
					c-2.63-0.09-5.05,1.71-6.41,3.97c-1.36,2.26-1.87,4.91-2.31,7.51c-4.73,27.73-4.82,56.02-4.9,84.16
					c-6.66-24.99-15.74-48.83-25.75-72.68c-1.21-2.89-3.27-6.29-6.39-5.99c-2.73,0.27-4.23,3.24-5.21,5.81
					c-2.79,7.28-5.58,14.55-8.36,21.83c-0.39-12.11-2.63-24.25-6.19-35.83c-0.77-2.51-2.01-5.37-4.57-5.97
					c-2.15-0.5-4.25,0.86-6.03,2.18c-3.8,2.82-7.53,5.73-11.17,8.75c3.34-16.4,6.63-31.69,5.18-48.37
					c-0.37-4.22-1.59-9.14-5.53-10.69c-2.47-0.97-5.34-0.22-7.53,1.27c-2.19,1.49-3.83,3.65-5.43,5.76
					c-7.71,10.19-15.42,20.38-23.13,30.57c2.24-12.07,3.2-26.54,1.03-38.62c-0.39-2.18-1-4.58-2.86-5.8
					c-2.15-1.41-5.02-0.63-7.41,0.33c-6.09,2.46-11.79,5.86-16.86,10.03c-1.54-9.72,0.4-17.89-1.46-27.56s-7.43-19.6-16.84-22.48
					c-7.29-2.22-15.21,0.28-21.93,3.88c-15.26,8.17-27.28,22.22-32.98,38.56c-5.22-0.4-9.72,1.27-13.34,5.05v260.97h748.78
					L749.74,107.35z"/>
				<path class="st4" d="M777.19,217.67c-25.53-1.07-51.1-0.51-76.62-1.98c-4.4-0.25-8.81-0.57-13.2-0.97
					c0.34-1.2-0.26-2.6-1.81-2.41c-3.33,0.42-6.67,0.79-10,1.12c-14.47-1.85-28.79-4.75-42.67-9.33
					c-10.55-3.48-20.78-7.94-30.36-13.58c-9.85-5.8-18.8-12.9-27.09-20.74c-8.33-7.88-16.05-16.41-23.54-25.09
					c-7.55-8.74-14.78-17.76-21.25-27.33c-8.3-12.26-15.42-25.6-20.05-39.71c-0.07-3.07-0.15-6.14-0.26-9.22
					c-0.06-1.75-1.58-2.54-2.93-2.38c-0.91-4.15-1.58-8.36-1.99-12.62c-0.27-2.87-0.42-5.75-0.45-8.63c-0.03-2.57-4.03-2.58-4,0
					c0.11,10.13,1.75,20.1,4.53,29.76c0.76,29.12-0.4,58.24-1.92,87.32c-0.52,10.03-1.07,20.07-1.61,30.1
					c-13.99-5.05-27.67-10.91-40.99-17.53c0.18-23.76,0.34-47.52,0.47-71.29c0.12-20.64,0.22-41.29,0.31-61.93
					c0.01-3.22-4.99-3.22-5,0c-0.16,36.78-0.36,73.57-0.62,110.35c-0.05,6.78-0.1,13.56-0.15,20.35
					c-8.39-4.32-16.63-8.94-24.7-13.85c-6.12-3.73-12.14-7.63-18.05-11.69c4.18-12.78,8.74-25.44,13.76-37.91
					c0.73-1.81,1.46-3.61,2.21-5.41c0.52-1.25-0.56-2.75-1.75-3.08c-1.44-0.4-2.56,0.49-3.08,1.75
					c-5.68,13.68-10.78,27.59-15.42,41.65c-11.27-7.95-22.13-16.49-32.52-25.57c1.66-18.02,3.52-36.01,5.6-53.98
					c18.21-8.44,36.19-17.37,53.89-26.83c3.19-1.7,6.38-3.43,9.55-5.16c2.26-1.24,0.24-4.69-2.02-3.45
					c-19.98,10.92-40.31,21.2-60.94,30.83c-0.06-1.21-1.35-2.2-2.49-2.2c-1.48,0-2.34,1.15-2.5,2.5c-0.08,0.71-0.16,1.42-0.24,2.13
					c-4.11,1.89-8.22,3.76-12.36,5.6c-9.03,4.01-18.11,7.88-27.25,11.64c-3.28-3.79-6.53-7.63-9.66-11.56
					c7.12-6.63,14.14-13.37,21.03-20.23c2.53-2.52,5.05-5.06,7.55-7.62c1.8-1.84-1.02-4.67-2.83-2.83
					c-9.19,9.39-18.62,18.56-28.23,27.51c-4.74-6.17-9.12-12.6-12.78-19.45c-1.7-3.19-3.22-6.46-4.52-9.83
					c-0.92-2.38-4.79-1.34-3.86,1.06c4.35,11.29,10.94,21.38,18.27,30.91c-9.19,8.49-18.58,16.78-28.12,24.87
					c0.2-4.61,0.44-9.22,0.71-13.83c0.14-2.36,0.29-4.71,0.45-7.06c0.22-3.21-4.79-3.2-5,0c-0.56,8.41-0.99,16.83-1.32,25.25
					c-0.92,0.77-1.85,1.54-2.78,2.3c-1.25,0.44-2.5,0.89-3.76,1.33c-15.69,5.47-31.51,10.57-47.43,15.31
					c0.5-3.23,1.02-6.45,1.56-9.67c0.22-1.33-0.35-2.69-1.75-3.08c-1.2-0.33-2.85,0.41-3.08,1.75c-0.7,4.18-1.36,8.37-2,12.56
					c-2.76,0.81-5.53,1.6-8.3,2.38c-1.36-5.01-2.59-10.05-3.59-15.17c-0.49-2.53-0.94-5.07-1.35-7.61
					c-0.22-1.33-1.87-2.08-3.08-1.75c-1.42,0.39-1.96,1.74-1.75,3.08c1.24,7.69,2.9,15.29,4.9,22.81c-3.55,0.99-7.1,1.96-10.65,2.91
					c-0.59-14.39-0.71-28.81,0.2-43.18c0.14-2.27,0.31-4.54,0.51-6.8c0.11-1.35-1.23-2.5-2.5-2.5c-1.45,0-2.38,1.15-2.5,2.5
					c-1.45,17.06-1.38,34.2-0.65,51.3c-0.8,0.21-1.59,0.43-2.39,0.63c-19.81,5.15-39.78,9.72-59.85,13.73
					c-3.46-19.54-7.1-39.04-11.18-58.46c-4.57-21.78-9.67-43.46-15.59-64.92c-0.74-2.68-1.49-5.37-2.26-8.04
					c-0.88-3.09-5.71-1.78-4.82,1.33c6.12,21.41,11.4,43.04,16.11,64.8c4.71,21.77,8.86,43.66,12.74,65.59
					c0.04,0.23,0.08,0.45,0.12,0.68c-7.08,1.38-14.18,2.69-21.29,3.93c-28.86,5.02-57.93,8.85-87.11,11.46
					c-3.61,0.32-7.21,0.62-10.82,0.91c-2.55,0.2-2.57,4.2,0,4c29.3-2.33,58.51-5.86,87.52-10.58c10.82-1.76,21.62-3.69,32.38-5.79
					c3.12,17.76,6.09,35.54,9.07,53.32c-22.97,13.34-46.37,25.92-70.13,37.79c-25.64,12.81-51.69,24.81-78.05,36.07
					c-3.32,1.42-6.65,2.83-9.99,4.23c-2.34,0.98-1.31,4.85,1.06,3.86c26.69-11.18,53.08-23.07,79.07-35.79
					c25.94-12.7,51.49-26.21,76.51-40.63c0.74-0.43,1.48-0.87,2.23-1.3c0.21,1.27,0.42,2.54,0.64,3.81
					c3.69,21.99,7.42,43.98,11.52,65.9c4.09,21.9,8.54,43.75,13.66,65.44c0.64,2.71,1.29,5.42,1.95,8.13
					c0.76,3.12,5.58,1.8,4.82-1.33c-5.28-21.65-9.87-43.46-14.05-65.35c-4.19-21.9-7.98-43.88-11.68-65.87
					c-0.75-4.47-1.5-8.94-2.25-13.4c18.5-10.82,36.71-22.15,54.57-34.01c0.45,6.23,0.89,12.46,1.28,18.69
					c1.14,18.02,1.58,36.04,1.71,54.09c0.13,17.92,0.13,35.85,1.05,53.75c0.91,17.74,2.74,35.48,6.45,52.87
					c0.46,2.15,0.95,4.29,1.47,6.43c0.76,3.13,5.58,1.8,4.82-1.33c-4.14-17.12-6.3-34.62-7.41-52.18
					c-1.13-17.79-1.23-35.62-1.34-53.44c-0.11-17.89-0.33-35.77-1.36-53.64c-0.54-9.48-1.23-18.95-1.91-28.42
					c2.45-1.65,4.9-3.3,7.34-4.97c3.27-2.24,6.52-4.5,9.77-6.77c-0.96,8.64-1.79,17.29-2.48,25.95
					c-1.89,23.86-2.73,47.81-2.52,71.74c0.12,13.29,0.01,26.88,3.2,39.86c0.77,3.12,5.59,1.8,4.82-1.33
					c-2.78-11.29-2.83-23.03-2.98-34.59c-0.16-11.89-0.06-23.77,0.29-35.66c0.54-18.06,1.69-36.11,3.43-54.09
					c3.64,13.01,6.73,26.17,10.06,39.28c2.05,8.07,4.14,16.15,6.52,24.13c2.46,8.25,5.36,16.38,8.4,24.44
					c2.99,7.94,6.14,15.81,9.31,23.68c2.24,5.57,4.58,11.13,6.58,16.79c1.11,3.13,2.09,6.35,2.76,9.6c0.07,0.33,0.13,0.66,0.19,0.99
					c0.01,0.08,0.07,0.43,0.09,0.57c0.06,0.48,0.11,0.97,0.12,1.45c0.01,0.41,0.01,0.81-0.02,1.22c-0.01,0.15-0.03,0.29-0.04,0.44
					c-0.01,0.03-0.01,0.06-0.02,0.11c-0.3,1.32-0.72,2.62-0.92,3.96c-0.41,2.72-0.18,5.41,0.2,8.12c0.3,2.14,0.73,4.25,1.2,6.35
					c0.7,3.14,5.52,1.81,4.82-1.33c-0.77-3.45-1.49-6.75-1.46-10.26c0-0.46,0.02-0.91,0.06-1.37c0.02-0.21,0.05-0.42,0.07-0.63
					c-0.08,0.82,0.01,0.02,0.05-0.18c0.13-0.66,0.31-1.3,0.48-1.94c1.31-4.82-0.01-9.67-1.41-14.33c-1.62-5.4-3.78-10.63-5.88-15.86
					c-3.01-7.49-6.04-14.98-8.96-22.51c-3.21-8.28-6.3-16.62-9.04-25.07c-2.48-7.67-4.57-15.47-6.6-23.27
					c-4.46-17.15-8.22-34.5-13.34-51.47c-0.6-1.98-1.21-3.96-1.82-5.93c0.1-0.9,0.2-1.8,0.3-2.7
					c18.38-13.06,36.34-26.72,53.78-41.01c1.2-0.98,2.39-1.98,3.58-2.97c0.2-0.07,0.4-0.14,0.6-0.21
					c-0.27,8.29-0.44,16.59-0.47,24.89c-0.08,18.7,0.43,37.39,1.53,56.06c1.09,18.57,2.77,37.11,5.02,55.58
					c2.26,18.51,5.08,36.95,8.48,55.28c3.4,18.29,7.37,36.48,11.91,54.52c0.58,2.29,1.16,4.57,1.76,6.86
					c0.81,3.11,5.63,1.79,4.82-1.33c-4.66-17.92-8.76-35.98-12.29-54.15c-3.54-18.22-6.52-36.55-8.9-54.96
					c-2.37-18.36-4.17-36.8-5.4-55.27c-1.23-18.56-1.88-37.17-1.94-55.77c-0.04-11.17,0.16-22.34,0.54-33.5
					c14.22-5.12,28.33-10.54,42.32-16.26c6.01,6.86,12.23,13.53,18.7,19.95c5.22,5.18,10.59,10.2,16.08,15.09
					c-0.1,1.08-0.21,2.16-0.3,3.25c-1.88,20.83-3.5,41.69-4.9,62.56c-1.4,20.97-2.58,41.96-3.57,62.96
					c-0.96,20.29-1.77,40.61-1.35,60.92c0.42,20.21,2.09,40.46,6.06,60.3c0.5,2.48,1.03,4.95,1.6,7.41
					c0.72,3.13,5.54,1.81,4.82-1.33c-0.66-2.88-1.26-5.76-1.82-8.65c1.43,1.05,4.06,0.42,4.1-1.92c0.3-17.85,1.36-35.68,3.07-53.45
					c1.72-17.9,4.11-35.73,7.09-53.47c2.98-17.71,6.56-35.33,10.73-52.8c4.03-16.87,8.61-33.62,13.8-50.17
					c0.41-1.32,0.84-2.63,1.26-3.94c2.57,1.75,5.16,3.49,7.77,5.18c11.7,7.59,23.8,14.56,36.23,20.87
					c-0.21,28.32-0.44,56.64-0.7,84.97c-0.19,20.64-0.4,41.29-0.62,61.93c-0.03,3.22,4.97,3.22,5,0
					c0.4-36.78,0.75-73.57,1.05-110.35c0.09-11.35,0.18-22.71,0.26-34.06c10.71,5.25,21.66,10.03,32.8,14.29
					c2.65,1.02,5.32,1.99,8,2.95c-1.07,19.82-2.15,39.64-3.22,59.45c-0.95,17.62-1.9,35.25-2.86,52.87c-0.17,3.22,4.83,3.21,5,0
					c1.69-31.26,3.38-62.52,5.07-93.77c0.3-5.61,0.62-11.22,0.93-16.83c24.62,8.44,50.08,14.43,75.87,17.91
					c30.34,4.1,61.12,4.76,91.6,1.82c0.44-0.04,0.89-0.09,1.33-0.14c4.84,0.61,9.68,1.11,14.53,1.51
					c25.84,2.13,51.78,1.65,77.68,2.39c3.17,0.09,6.34,0.2,9.51,0.33C779.76,221.77,779.75,217.77,777.19,217.67z M273.54,304.19
					C273.56,304.05,273.59,303.94,273.54,304.19L273.54,304.19z M229.53,120.93c-0.79,5.39-1.52,10.79-2.21,16.19
					c-1.5-4.76-2.98-9.51-4.35-14.31C225.15,122.2,227.34,121.57,229.53,120.93z M149.8,193.78c-0.38,0.22-0.77,0.44-1.15,0.67
					c-2.7-16.12-5.39-32.25-8.2-48.35c-0.19-1.09-0.39-2.18-0.58-3.27c16.52-3.29,32.97-6.96,49.32-11.03
					c4.14-1.03,8.28-2.09,12.41-3.17c0.51,10.49,1.25,20.97,2,31.45C185.99,171.83,168.04,183.05,149.8,193.78z M208.38,156.87
					c-0.52-7.26-1.02-14.53-1.43-21.8c-0.15-2.58-0.28-5.16-0.4-7.75c3.85-1.03,7.69-2.07,11.53-3.14c0.09,0.33,0.18,0.67,0.27,1.01
					c1.98,6.85,4.21,13.63,6.39,20.42c-0.81,0.57-1.61,1.14-2.42,1.71C217.7,150.54,213.05,153.72,208.38,156.87z M231.9,140.54
					c0.87-7.06,1.83-14.12,2.89-21.15c13.16-3.89,26.25-8.03,39.25-12.42c1.21-0.41,2.42-0.84,3.64-1.25
					C262.76,117.78,247.49,129.38,231.9,140.54z M297.46,94.5c9.4-7.98,18.64-16.13,27.7-24.49c0.79,0.99,1.58,1.98,2.38,2.96
					c2.06,2.53,4.16,5.04,6.29,7.52C321.79,85.38,309.67,90.04,297.46,94.5z M366.24,108.6c-9-8.44-17.58-17.32-25.74-26.57
					c5.29-2.18,10.57-4.4,15.82-6.66c6.85-2.96,13.68-5.99,20.47-9.09c-1.81,15.8-3.45,31.61-4.94,47.44
					C369.97,112.02,368.09,110.33,366.24,108.6z M393.56,197.1c-4.3,17.39-8,34.93-11.12,52.57c-3.18,18-5.75,36.11-7.67,54.28
					c-1.88,17.81-3.12,35.69-3.61,53.59c-0.04,1.33-0.06,2.66-0.09,3.98c-6.23-35.44-5.37-71.78-3.76-107.63
					c1.87-41.54,4.48-83.05,8.09-124.48c0.2-2.23,0.41-4.47,0.61-6.7c10.14,8.73,20.71,16.95,31.66,24.63
					C402.38,163.76,397.69,180.37,393.56,197.1z M595.25,213.28c-30.06-3.11-59.78-9.7-88.35-19.57
					c1.36-24.19,2.71-48.38,3.42-72.59c0.31-10.57,0.47-21.15,0.42-31.73c3.2,7.65,7.04,15.05,11.35,22.1
					c6.15,10.07,13.24,19.54,20.73,28.65c7.46,9.06,15.25,17.9,23.47,26.28c8.12,8.28,16.82,16.04,26.4,22.6
					c9.39,6.43,19.6,11.6,30.19,15.73c11.5,4.49,23.42,7.7,35.53,10.01C637.38,215.94,616.23,215.45,595.25,213.28z"/>
				<path class="st5" d="M-7.52,204.26c4.58,2.3,8.38,6.13,10.65,10.73c4.97-11.7,11.04-24.64,20.29-33.35
					c1.89-1.77,3.99-3.42,6.46-4.2s5.39-0.54,7.35,1.15c2.57,2.21,2.81,6.04,2.81,9.43c-0.01,14.96-0.94,29.92-2.79,44.76
					c2.38-5.97,6.75-10.27,12.13-13.79c1.83-1.2,3.98-2.23,6.12-1.81c3.07,0.61,4.78,3.87,5.81,6.83
					c1.78,5.13,2.88,10.49,3.26,15.91c1.02-3.51,2.75-7.11,4.9-10.07c2.15-2.95,5.66-5.2,9.29-4.83c3.15,0.32,5.85,2.53,7.55,5.2
					c1.7,2.67,2.56,5.77,3.4,8.82c5.09-6.14,12.05-10.9,18.85-15.06c6.81-4.16,15.61-5.92,22.82-2.51
					c5.59,2.64,9.45,7.93,12.38,13.37c4.62,8.57,7.56,18.04,8.59,27.72c4.64-10.32,12.18-18.22,19.74-26.63
					c2.02-2.25,4.58-4.6,7.59-4.35c4.19,0.34,6.22,5.21,7.18,9.3c6.54,27.79,5.98,57.23-1.62,84.75
					c6.45-8.58,16.62-14.23,27.17-16.18c-0.98-22.15,1.02-42.85,4.29-64.77c0.74-4.96,2.46-10.9,7.34-12.06
					c2.75-0.66,5.68,0.59,7.72,2.54c2.05,1.95,3.37,4.52,4.62,7.05c6.89,14.06,12.42,28.78,16.49,43.9
					c11.11-2.11,22.83,3.52,28.27,13.43c9.06-16.04,18.3-31.95,28.9-47.01c1.23-1.75,2.84-3.68,4.98-3.6
					c1.93,0.08,3.42,1.9,3.78,3.8c0.36,1.89-0.13,3.84-0.63,5.7c-5.2,19.47-10.84,38.81-16.94,58.01c3.82,3.95,7.35,8.6,10.4,13.17
					c0.64-8.43,1.63-17.18,3.68-25.37c0.81-3.26,2.44-7.11,5.78-7.42c1.71-0.16,3.38,0.76,4.54,2.02s1.91,2.84,2.63,4.4
					c3.74,8.01,7.48,16.02,11.23,24.03c4.8-2.49,10.43-3.3,15.8-3.88c1.87-0.2,3.98-0.21,5.38,1.05c1.57,1.41,1.63,3.83,1.4,5.93
					c-0.98,8.88-5.12,17.38-11.51,23.62c1.28,7,2.61,13.16,3.88,20.16c5.58-12.18,12.97-23.47,22.34-33.05
					c-0.32-10.45-0.4-20.82,1.05-31.17c0.48-3.43,1.61-7.5,4.94-8.46c3.1-0.89,6.1,1.54,8.35,3.85
					c14.54,14.92,25.98,32.85,33.39,52.32c0.97-19.66,5.98-39.16,11.58-58.03c0.85-2.85,2.25-6.16,5.18-6.66
					c3.38-0.58,5.89,2.97,7.41,6.04c13.24,26.84,21.74,56,24.98,85.75c5.69-32.49,16.48-64.44,31.45-93.82
					c1.78-3.49,4.32-7.42,8.24-7.56c2.63-0.09,5.05,1.71,6.41,3.97c1.36,2.26,1.87,4.91,2.31,7.51c4.73,27.73,4.82,56.02,4.9,84.16
					c6.66-24.99,15.74-48.83,25.75-72.68c1.21-2.89,3.27-6.29,6.39-5.99c2.73,0.27,4.23,3.24,5.21,5.81
					c2.79,7.28,5.58,14.55,8.36,21.83c0.39-12.11,2.63-24.25,6.19-35.83c0.77-2.51,2.01-5.37,4.57-5.97
					c2.15-0.5,4.25,0.86,6.03,2.18c3.8,2.82,7.53,5.73,11.17,8.75c-3.34-16.4-6.63-31.69-5.18-48.37c0.37-4.22,1.59-9.14,5.53-10.69
					c2.47-0.97,5.34-0.22,7.53,1.27c2.19,1.49,3.83,3.65,5.43,5.76c7.71,10.19,15.42,20.38,23.13,30.57
					c-2.24-12.07-3.2-26.54-1.03-38.62c0.39-2.18,1-4.58,2.86-5.8c2.15-1.41,5.02-0.63,7.41,0.33c6.09,2.46,11.79,5.86,16.86,10.03
					c1.54-9.72-0.4-17.89,1.46-27.56c1.86-9.67,7.43-19.6,16.84-22.48c7.29-2.22,15.21,0.28,21.93,3.88
					c15.26,8.17,27.28,22.22,32.98,38.56c5.22-0.4,9.72,1.27,13.34,5.05V500H0.96L-7.52,204.26z"/>
			</g>
		</g>
		<g>
			<defs>
				<rect id="SVGID_00000028296110490519768290000015552264131093965730_" x="0.96" width="749.17" height="500"/>
			</defs>
			<clipPath id="SVGID_00000008146585007530715070000016959818738704871080_">
				<use xlink:href="#SVGID_00000028296110490519768290000015552264131093965730_"  style="overflow:visible;"/>
			</clipPath>
			<g style="clip-path:url(#SVGID_00000008146585007530715070000016959818738704871080_);">
				<path class="st7" d="M618.37,244.48c0.32,0.33,0.62,0.67,0.94,1.01C618.95,244.98,618.5,244.1,618.37,244.48z"/>
				<path class="st7" d="M619.61,245.81c-0.1-0.11-0.2-0.21-0.3-0.32C619.42,245.65,619.53,245.77,619.61,245.81z"/>
				<path class="st8" d="M756.11,316.4c-19.01-38.65-41.54-75.33-49.1-117.73c-17.14,23.54-25.74,51.23-24.9,80.34
					c-4.17-22.68-13.25-44.95-27.31-63.22c-7.49,27.02-8.03,56.71-0.93,83.83c-7.74-20.21-19.34-37.83-34.07-53.61
					c4.12,26.47,15.19,52.37,30.57,74.3c-11.19,4.36-19.83,13.55-23.39,24.87c3.2-13.66,3.02-28.05-1.75-41.25
					c-18.2,11.68-33.19,31.25-39.22,52.01c5.42-24.53,3.98-52.03-5.13-75.44c-15.3,19.55-24.82,43.57-27.15,68.29
					c-1.67-16.44-4.98-34.24-12.23-49.09c-10.82,17.2-15.39,36.35-14.73,56.66c-14.23-24.75-36.87-43.68-64.79-49.65
					c2.52,26.33,19.54,50.77,42.2,64.43c-3.05,7.93-2.28,16.41,0.44,24.46c-5.36-6.63-12.35-11.68-20.84-12.53
					c-7.55,7.88-11.82,17.07-11.61,27.98c-2.92-36.99-24.11-71.63-54.8-92.49c-1.82,20.29,2.7,42.82,13.05,60.36
					c-4.81,6.17-6.2,13.29-5.38,21.07c-12.32-14.59-28.65-25.03-46.96-30.43c1.53,18.61,4.24,38.21,9.4,56.15
					c-10.81-18.59-27.57-31.31-47.86-37.74c1.8-8.84,2.67-17.87,2.52-26.89c-19.91,15.8-36.83,36.26-47.42,59.37
					c1.74-5,0.49-10.91-3.12-14.78c-3.61-3.87-9.64-6.3-14.74-4.9c10.2-12.64,18.34-26.93,24.01-42.15c0.72-1.93,1.41-3.93,1.4-5.99
					c0-2.06-0.82-4.23-2.55-5.36c-2.14-1.39-4.96-0.85-7.39-0.09c-7.28,2.3-14.32,5.91-19.92,11.1c-0.4-4.21-5.35-6.73-9.53-6.11
					c-4.18,0.62-7.59,3.94-10.85,6.63c3.91-12.25,5.28-25.3,4-38.1c-0.29-2.92-1.46-6.56-4.39-6.75c-2.26-0.15-3.95,1.97-5.15,3.89
					c-7.17,11.48-12.86,23.62-15.82,36.83c0.68-3.49,0.92-7.55-1.5-10.15c-2.37-2.54-6.52-2.63-9.66-1.15
					c-3.14,1.48-4.94,4.47-7.2,7.1c11.74-21.53,21.18-44.33,28.09-67.86c0.97-3.31,1.17-8.06-2.16-8.99
					c-2.22-0.62-4.34,1.13-5.98,2.76c-21.26,21.12-43.12,42.44-61.4,66.2c4.94-6.93,8.6-14.78,10.68-23.04
					c0.92-3.67,1.26-8.22-1.71-10.56c-1.84-1.45-4.39-1.53-6.72-1.37c-13.21,0.9-24.59,7.51-32.69,17.99
					c4.39-21.71,8.8-43.61,8.58-65.75c-0.05-5.07-1.17-11.29-5.98-12.88c-3-0.99-6.38,0.42-8.58,2.69
					c-2.19,2.28-3.44,5.28-4.58,8.23c-8.53,21.96-14.38,44.96-17.38,68.33c-26.14,0.27-59.14,0.5-78.97,17.53
					c-10.8,9.28-17.67,22.3-23.03,35.5c-12.5,30.75-18.15,64.27-16.43,97.42c0.35,6.79,1.23,14.09,5.79,19.14
					c4.71,5.22,12.17,6.74,19.11,7.91c57.94,9.79,116.66,14.95,175.41,15.43c40.25,0.33,80.48-1.54,120.68-3.41
					c5.91-0.27,12.25-0.78,17.93-2.48c6.81,3.09,15.25,4.03,22.87,4.41c98.3,4.95,196.97,7.48,294.35,21.84
					c24.77,3.65,50.5,8.01,74.44,0.69c41.19-12.59,65.64-57.78,66.78-100.84C792.51,396.29,775.12,355.05,756.11,316.4z
					 M337.09,398.13c2.21,9.91,5.98,19.48,11.17,28.21c-2.85-3.26-6.35-3.49-9.54-1.35c-4.34-2.49-9.64-3.43-12.74-0.5
					C330.69,416.17,334.41,407.3,337.09,398.13z"/>
				<path class="st7" d="M619.61,245.81c0.06,0.07,0.12,0.13,0.18,0.2c-0.01-0.09-0.03-0.18-0.05-0.27
					C619.71,245.82,619.67,245.83,619.61,245.81z"/>
			</g>
			<path style="clip-path:url(#SVGID_00000008146585007530715070000016959818738704871080_);fill:#466759;" d="M779.39,391.63
				c-32.49-13.19-55.34-43.54-68.77-75.93c-13.43-32.39-18.94-67.4-27.02-101.52c-13.12-55.45-33.19-109.15-44.73-164.95
				c5.7-1.88,9.91-3.87,15.6-5.75c12.79,37.22,25.77,74.89,38.56,112.12c-2.39-47.93-9.59-94.4-23.73-140.25
				c10.53-1.5,19.24-3.75,29.3-7.23c7.07,28.85,14.72,58.32,25.9,85.83c3.21-30.93,2.56-61.64-1.79-92.43
				c16.27,0.62,31.87,1.07,47.96,3.52c3.9,108.51-18.09,216.92-0.27,324.02C773.93,350.23,772.77,371.2,779.39,391.63z"/>
			<g style="clip-path:url(#SVGID_00000008146585007530715070000016959818738704871080_);">
				<path class="st4" d="M57.32,29.49L37.64,25.9c-3.77,20.7-6.95,41.48-9.55,62.33c-5.06-21.45-7.5-43.56-7.08-65.48l-20-0.38
					C0.27,61.49,7.9,101.19,23.05,137.26c-5.07,62.85-4.87,126.09,0.65,189.02c3.08,35.16,1.67,71.73,0.31,107.11
					c-0.69,17.92-1.4,36.45-1.53,54.61l20,0.14c0.12-17.85,0.83-36.22,1.51-53.98c1.39-35.99,2.82-73.21-0.37-109.62
					C34.99,226.03,39.6,126.76,57.32,29.49z"/>
				<path class="st4" d="M118.41,93.98c24.67-34.01,45.24-70.93,61.14-109.83l-18.51-7.57c-11.24,27.49-24.9,53.94-40.76,79.02
					c1.19-20.56,2.65-41.09,4.42-61.55l-19.93-1.72C94.96,106.32,93.96,222,101.82,336.14c3.4,49.38,2.59,98.73,0.33,157.62
					l19.99,0.77c2.29-59.54,3.1-109.49-0.36-159.76C116.28,254.89,115.17,174.25,118.41,93.98z"/>
				<g>
					<path class="st4" d="M181.22,514.25l-19.83-2.63c1.54-11.63,3.3-23.47,5-34.93c6.04-40.79,12.29-82.98,10.27-123.9
						c-5.83-118.11-5.04-237.83,2.36-355.86l19.96,1.25c-7.36,117.28-8.15,236.25-2.35,353.62c2.12,42.89-4.28,86.06-10.47,127.81
						C184.49,491,182.74,502.77,181.22,514.25z"/>
				</g>
				<g>
					<path class="st4" d="M580.73,572.2l-6.68-71.27c-0.85-9.05-20.79-222.32-21.38-287.77c-0.59-65.28,5.54-212.11,5.6-213.58
						l19.98,0.84c-0.06,1.47-6.16,147.79-5.58,212.56c0.37,40.93,8.73,143.93,14.86,214.49c7.37-38.53,16.03-82.91,21.07-105.75
						c9.69-43.88,31.55-274.25,32.38-282.99L644-27.11l19.98,0.91l-3.06,66.58c-0.92,9.78-22.69,239.95-32.78,285.66
						c-9.92,44.95-34.06,174.48-34.3,175.79L580.73,572.2z"/>
				</g>
			</g>
			<g style="clip-path:url(#SVGID_00000008146585007530715070000016959818738704871080_);">
				<path class="st10" d="M456.76,165.57c-12.54,0-25.17-0.48-37.87-1.52c-119.67-9.79-209.75-47.77-264.24-77.91
					c-59.16-32.72-89.54-62.7-90.81-63.96l5.65-5.67c0.3,0.3,31.04,30.6,89.33,62.79c53.76,29.69,142.64,67.11,260.73,76.77
					c90.11,7.37,178.27-14.02,236.36-33.27c63.07-20.89,105.31-43.84,105.73-44.07l3.84,7.02c-0.42,0.23-43.17,23.47-106.88,44.59
					C607.91,147.15,534.59,165.57,456.76,165.57z"/>
			</g>
		</g>
		<g>
			<polygon class="st11" points="509.18,0 0.41,500.29 617.08,500.29 714.67,0 			"/>
			<polygon class="st12" points="568.29,0 94.88,500.29 459.63,500.29 675.69,0 			"/>
		</g>
		<g>
			<path class="st4" d="M411.5,239.06c0,0-0.3-7.26,6.67-10.81c6.96-3.56,18.07-1.78,18.07-1.78s5.04-2.96,9.93,1.19
				c0,0-3.41-18.52-3.11-22.37c0.3-3.85,2.81-4.15,3.85-0.59c0,0,0.44-6.52,2.96-6.81c2.52-0.3,1.48,4.59,1.48,4.59
				s1.93-5.36,3.85-4.61c1.93,0.75,1.63,2.98,1.63,2.98s1.63-3.11,2.37-1.19c0.74,1.93,0,5.04,0,5.04s2.81-3.41,4.44-2.22
				c1.63,1.19-0.59,4.15-0.59,4.15s2.52-1.33,2.96,0.44c0.44,1.78-2.22,4.3-2.22,4.3s2.52-0.89,2.96,0.59
				c0.44,1.48-1.48,2.52-1.48,2.52s2.37-0.89,2.37,1.33c0,2.22-1.48,2.62-1.48,2.62s1.19,0.34,1.48,1.67c0,0,6.96-11.85,10.52-12.74
				c3.56-0.89,2.81,0.3,2.22,1.78c-0.59,1.48-0.59,1.48-0.59,1.48l-1.63,2.37c0,0,3.26-3.56,5.04-2.37
				c1.78,1.19-2.96,5.48-2.96,5.48s3.56-2.07,4.15,0.15c0.59,2.22-2.81,4.89-2.81,4.89s2.67-0.44,2.22,1.19
				c-0.44,1.63-3.7,1.93-3.7,1.93s2.81,0.58,2.37,2.22c-0.44,1.63-3.11,1.49-3.11,1.49s1.78,0.59,1.19,1.78
				c-0.59,1.19-6.02,2.56-6.02,2.56s5.87,3.21,8.24,3.21c2.37,0,16.44-2.81,17.93-1.93c1.48,0.89-3.56,2.67-3.56,2.67
				s8.3-0.59,9.04,1.33c0.74,1.93-5.78,2.67-5.78,2.67s3.7,1.78,2.52,3.41c-1.19,1.63-18.22-4-19.85-3.26c-1.63,0.74-8,3.56-8,3.56
				s4,0.29,2.96,2.07c-1.04,1.78-4.59,2.81-6.22,3.41c-1.63,0.59-3.56,2.81-4.59,2.52c-1.04-0.3,3.85-4.74,3.85-4.74
				s-12.44,0.74-17.19,0c-4.74-0.74-10.67-5.63-12.89-8.44c0,0-4.44,1.33-7.41-2.67C433.57,236.1,417.43,235.8,411.5,239.06z"/>
			<path class="st4" d="M267.11,107.15c0,0,4.59-1.33,9.78,8.59c5.19,9.93,7.85,22.22,9.78,31.41c1.93,9.19,5.78,29.78,8.44,34.22
				c2.67,4.44,9.78,10.81,13.33,14.96c3.56,4.15,5.63,10.22,7.26,17.19c1.63,6.96,3.41,13.93,9.33,16.74
				c5.93,2.81,8.74,2.22,10.81,5.33c2.07,3.11,0,9.04,0,9.04s1.78,0.89,1.78,2.37s-2.96,5.19-7.26,4.59
				c-4.3-0.59-8.89-2.37-9.78-4.44c0,0,0.15,11.7,2.22,16.44c2.07,4.74,2.96,6.37,6.22,8.59c3.26,2.22,10.52,7.41,11.56,14.96
				c1.04,7.56-1.78,8.74-3.41,9.33c-1.63,0.59-3.85-0.3-3.7-1.63c0.15-1.33,0.59-1.78,1.93-1.48c1.33,0.3,3.56-0.59,3.56-2.07
				s-1.78-9.78-6.81-12.89c-5.04-3.11-14.81-7.56-16.74-10.22c-1.93-2.67-2.07-14.37-3.26-19.41c-1.19-5.04-3.56-8.44-3.56-8.44
				s-10.96,11.7-11.11,13.63c-0.15,1.93,8.44,18.22,9.93,22.81c1.48,4.59,0.89,10.81-2.07,14.07c-2.96,3.26-9.04,2.07-8.74-0.44
				c0.3-2.52,2.81,1.33,5.33-1.33c2.52-2.67,3.78-9.93,2.04-11.7c-1.74-1.78-15.37-25.04-14.93-26.52c0.44-1.48,4-0.89,5.63-5.33
				c1.63-4.44,4-10.96,4-10.96s-9.19-6.52-11.41-14.07c0,0-6.37,6.22-11.11-0.44c0,0-4.59-0.59-10.37-5.19
				c-5.78-4.59-7.85-6.07-9.19-5.19c-1.33,0.89-4.74,6.81-6.96,8.15c-2.22,1.33-8.74,3.11-9.78,2.22c-1.04-0.89,0.74-2.22,2.67-2.22
				s3.56,0,4.59-0.59s1.48-1.63,1.48-1.63s-4.59-1.63-2.52-2.37c2.07-0.74,4.3,0.15,6.37-3.56c2.07-3.7,2.52-9.5,4.74-7.79
				c2.22,1.71,3.41,5.71,6.07,6.75c2.67,1.04,11.26,1.48,11.26,1.48S269.04,185.37,268,183s-2.22-3.56-2.22-3.56
				s-7.7,9.33-11.11,10.07c-3.41,0.74-4.89,0.59-5.33-1.48c-0.44-2.07,0.59-2.37,2.22-1.48c1.63,0.89,5.63-2.52,7.85-5.93
				c2.22-3.41,7.41-12.3,9.19-11.11c1.78,1.19,8.74,28.59,11.26,30.07c2.52,1.48,4.15-1.33,5.19-3.56c1.04-2.22,5.14-5.48,5.14-5.48
				s-6.48-30.67-8.7-43.41c-2.22-12.74-6.07-27.7-9.04-32.15c-2.96-4.44-6.67,0.15-6.67,0.15l-3.26,2.37c0,0-2.07-2.81-0.3-6.52
				S267.11,107.15,267.11,107.15z"/>
		</g>
		<g>
			<g>
				<path class="st10" d="M255.8,500c0,0-43.92-173.19-45.75-244.92c-1.83-71.73,26.1-228.37,26.1-228.37L234.9,0
					c0,0-22.12,157.19-48.79,156.87c-26.67-0.32-11.37-154.62-11.37-154.62L163.5,0c0,0-10.28,122.72-3.74,221.22
					c4.04,60.82,5.15,278.78,5.15,278.78H255.8z"/>
				<g>
					<path class="st13" d="M240.89,3c-11.11,43.24-13.88,89.73-23.48,133.33c-12.93,58.7-23.06,120.34-7.39,178.37
						c16.51,61.17,14.29,126.22,41.11,183.62"/>
					<path class="st13" d="M191.72,314.93c0.79-1.92-0.42-4-1.08-5.97c-0.66-1.97-0.18-4.87,1.88-5.05
						c1.89-0.17,2.95,2.09,3.43,3.93c0.78,2.95,1.56,6.08,0.71,9.01c-0.85,2.93-3.99,5.42-6.88,4.42c-2.73-0.95-3.72-4.23-4.33-7.06
						c-0.89-4.15-1.76-8.57-0.29-12.54c1.48-3.98,6.29-7.02,10.05-5.05c2.4,1.26,3.56,4.02,4.3,6.63c1.16,4.1,1.76,8.37,1.76,12.64
						c0,2.99-0.31,6.07-1.65,8.74c-1.34,2.68-3.88,4.9-6.86,5.2c-3.25,0.32-6.38-1.71-8.22-4.4c-1.84-2.69-2.62-5.96-3.22-9.17
						c-1.11-6-1.65-12.49,1.05-17.97s9.72-9.2,15.15-6.41c4.3,2.22,6.04,7.42,6.94,12.18c1.1,5.8,1.54,11.73,1.32,17.63
						c-0.13,3.47-0.5,7-1.84,10.2c-1.34,3.21-3.77,6.09-7.02,7.31c-4.04,1.52-8.76,0.2-12.12-2.51c-3.36-2.72-5.53-6.64-7.08-10.67
						c-3.03-7.85-3.99-16.49-2.76-24.82c0.61-4.11,1.78-8.25,4.23-11.61c2.45-3.36,6.33-5.87,10.49-5.88
						c-2.54-37.62-4.77-77.58,6.52-113.56c7.13-22.71,19.57-43.73,24.16-67.09c6.62-33.76,15.53-69.53,22.88-103.13"/>
					<path class="st13" d="M170.75,4.28c-8.24,42.07-6.83,85.35-5.32,128.19c0.33,9.45,0.89,19.56,6.57,27.13
						c3.3,4.4,8.57,7.65,14.05,7.24"/>
					<path class="st13" d="M169.08,164.33c0.61,95.68,5.18,191.34,13.7,286.65c1.41,15.76-0.33,32.55-0.08,48.37
						c-0.2-0.42-0.39-0.83-0.59-1.25"/>
					<path class="st13" d="M188.93,345.25c4.03,50.22,8.05,100.44,12.08,150.66"/>
					<path class="st13" d="M198.06,380.84c4.5,38.2,9,76.4,13.5,114.6"/>
					<path class="st13" d="M207.49,347.05c4.9,39.09,9.8,78.18,14.7,117.27"/>
				</g>
			</g>
			<g>
				<path class="st10" d="M493.33,500c0,0,38.22-82.78,32.89-147.67c-5.33-64.89-32.3-310.81-32.3-310.81l14.06-32.94
					c0,0,21.8,193.53,30.68,200.64S592,27.89,592,27.89L611.56,27c0,0-45.33,192.74-43.56,214.59
					c1.78,21.85,11.56,218.52,43.56,258.41H493.33z"/>
				<g>
					<path class="st13" d="M518.66,114.56c0.79,63.87,7.92,127.66,21.27,190.12c0.77,3.6,2.37,7.96,6.03,8.32
						c2.34,0.23,4.52-1.49,5.57-3.59c1.06-2.1,1.23-4.52,1.38-6.86c1.37-20.98,2.51-43.09-6.88-61.9c-1.32-2.64-3.62-5.58-6.52-5.02
						c-3.08,0.59-4,4.53-3.92,7.67c0.22,9.08,3.39,18.06,8.91,25.28c1.74-6.7,1.14-13.99-1.68-20.32"/>
					<path class="st13" d="M588.41,81.03c-34.81,117.66-36.63,244.9-5.2,363.51"/>
					<path class="st13" d="M526.84,276.76c4.43,29.7,7.52,59.59,9.27,89.57c1.21,20.79,1.76,41.77-1.6,62.33
						c-4.03,24.61-13.57,47.94-23.03,71.01"/>
					<path class="st13" d="M549.56,374.95c3.25,40.36,6.5,80.71,9.76,121.07"/>
					<path class="st13" d="M551.97,329.23c5.81,43.13,12.08,86.21,20.39,128.92c2.85,14.63,6.19,29.77,15.36,41.51"/>
					<path class="st13" d="M551.73,226.1c0.75-20.71,5.29-41.27,13.32-60.37"/>
				</g>
			</g>
		</g>
		<g>
			<g>
				<g>
					<g>
						<path class="st14" d="M451.64,496.06c0,0,31.54-67.87,92.39-91.95c15.86-9.2,51.18,6.42,51.18,6.42l-26.11,19.79
							c0,0-20.57-12.08-27.9-9.17l19.23,16.04c0,0-24.56,14.67-30.42,18.01c0,0-12.22-8.37-16.3-8.51l10.18,12.59
							c0,0-20.91,9.95-26.68,14.07l-13.4-7.61l8.36,10.77L451.64,496.06z"/>
						<g>
							<path class="st15" d="M451.64,496.06c0.95-1.93,39.17-64.46,101.67-94.67"/>
							<path class="st15" d="M517.14,423.94c0,0,23.44,10.4,29.37,21.53"/>
							<path class="st15" d="M544.36,406.02c0,0,31.22,2.03,41.27,11.76"/>
							<line class="st15" x1="493.58" y1="444.45" x2="512.05" y2="465.1"/>
						</g>
					</g>
					<g>
						<path class="st14" d="M452.72,494.65c0,0-6.36-74.57,34.48-125.71c9.19-15.87,47.61-19.86,47.61-19.86l-12.83,30.15
							c0,0-23.85-0.26-28.77,5.9l24.66,4.37c0,0-14.02,24.94-17.45,30.75c0,0-14.76-1.19-18.37,0.71l15.09,5.87
							c0,0-13.21,19.02-16.16,25.46l-15.42,0.05l12.6,5.19L452.72,494.65z"/>
						<g>
							<path class="st15" d="M452.72,494.65c-0.14-2.14,1.96-75.4,41.18-132.67"/>
							<path class="st15" d="M473.72,399.52c0,0,25.51-2.63,36.19,4.09"/>
							<path class="st15" d="M488.44,370.44c0,0,28.1-13.76,41.66-10.3"/>
							<line class="st15" x1="463.47" y1="429.02" x2="489.76" y2="437.76"/>
						</g>
					</g>
					<g>
						<path class="st14" d="M454.94,494.65c0,0,6.36-74.57-34.48-125.71c-9.19-15.87-47.61-19.86-47.61-19.86l12.83,30.15
							c0,0,23.85-0.26,28.77,5.9l-24.66,4.37c0,0,14.02,24.94,17.45,30.75c0,0,14.76-1.19,18.37,0.71l-15.09,5.87
							c0,0,13.21,19.02,16.16,25.46l15.42,0.05l-12.6,5.19L454.94,494.65z"/>
						<g>
							<path class="st15" d="M454.94,494.65c0.14-2.14-1.96-75.4-41.18-132.67"/>
							<path class="st15" d="M433.93,399.52c0,0-25.51-2.63-36.19,4.09"/>
							<path class="st15" d="M419.22,370.44c0,0-28.1-13.76-41.66-10.3"/>
							<line class="st15" x1="444.19" y1="429.02" x2="417.9" y2="437.76"/>
						</g>
					</g>
					<g>
						<path class="st14" d="M454.58,495.36c0,0-34.99-66.15-97.01-87.07c-16.31-8.37-50.78,9.05-50.78,9.05l27.1,18.41
							c0,0,19.92-13.12,27.39-10.6l-18.37,17.01c0,0,25.28,13.39,31.31,16.42c0,0,11.77-8.99,15.84-9.34l-9.52,13.1
							c0,0,21.4,8.85,27.37,12.67l12.99-8.3l-7.79,11.18L454.58,495.36z"/>
						<g>
							<path class="st15" d="M454.58,495.36c-1.04-1.88-42.44-62.35-106.41-89.3"/>
							<path class="st15" d="M385.45,426.72c0,0-22.88,11.59-28.22,23.02"/>
							<path class="st15" d="M357.34,410.23c0,0-31.08,3.63-40.61,13.88"/>
							<line class="st15" x1="410.04" y1="445.98" x2="392.66" y2="467.56"/>
						</g>
					</g>
				</g>
				<g>
					<g>
						<path class="st16" d="M284.71,496.77c0,0,31.54-67.87,92.39-91.95c15.86-9.2,51.18,6.42,51.18,6.42l-26.11,19.79
							c0,0-20.57-12.08-27.9-9.17l19.23,16.04c0,0-24.56,14.67-30.42,18.01c0,0-12.22-8.37-16.3-8.51l10.18,12.59
							c0,0-20.91,9.95-26.68,14.07l-13.4-7.61l8.36,10.77L284.71,496.77z"/>
						<g>
							<path class="st15" d="M284.71,496.77c0.95-1.93,39.17-64.46,101.67-94.67"/>
							<path class="st15" d="M350.21,424.65c0,0,23.44,10.4,29.37,21.53"/>
							<path class="st15" d="M377.44,406.73c0,0,31.22,2.03,41.27,11.76"/>
							<line class="st15" x1="326.66" y1="445.15" x2="345.13" y2="465.81"/>
						</g>
					</g>
					<g>
						<path class="st16" d="M285.79,495.35c0,0-6.36-74.57,34.48-125.71c9.19-15.87,47.61-19.86,47.61-19.86l-12.83,30.15
							c0,0-23.85-0.26-28.77,5.9l24.66,4.37c0,0-14.02,24.94-17.45,30.75c0,0-14.76-1.19-18.37,0.71l15.09,5.87
							c0,0-13.21,19.02-16.16,25.46l-15.42,0.05l12.6,5.19L285.79,495.35z"/>
						<g>
							<path class="st15" d="M285.79,495.35c-0.14-2.14,1.96-75.4,41.18-132.67"/>
							<path class="st15" d="M306.8,400.22c0,0,25.51-2.63,36.19,4.09"/>
							<path class="st15" d="M321.51,371.14c0,0,28.1-13.76,41.66-10.3"/>
							<line class="st15" x1="296.54" y1="429.72" x2="322.83" y2="438.47"/>
						</g>
					</g>
					<g>
						<path class="st16" d="M288.01,495.35c0,0,6.36-74.57-34.48-125.71c-9.19-15.87-47.61-19.86-47.61-19.86l12.83,30.15
							c0,0,23.85-0.26,28.77,5.9l-24.66,4.37c0,0,14.02,24.94,17.45,30.75c0,0,14.76-1.19,18.37,0.71l-15.09,5.87
							c0,0,13.21,19.02,16.16,25.46l15.42,0.05l-12.6,5.19L288.01,495.35z"/>
						<g>
							<path class="st15" d="M288.01,495.35c0.14-2.14-1.96-75.4-41.18-132.67"/>
							<path class="st15" d="M267.01,400.22c0,0-25.51-2.63-36.19,4.09"/>
							<path class="st15" d="M252.29,371.14c0,0-28.1-13.76-41.66-10.3"/>
							<line class="st15" x1="277.26" y1="429.72" x2="250.97" y2="438.47"/>
						</g>
					</g>
					<g>
						<path class="st16" d="M287.66,496.07c0,0-34.99-66.15-97.01-87.07c-16.31-8.37-50.78,9.05-50.78,9.05l27.1,18.41
							c0,0,19.92-13.12,27.39-10.6l-18.38,17.01c0,0,25.28,13.39,31.31,16.42c0,0,11.77-8.99,15.84-9.34l-9.52,13.1
							c0,0,21.4,8.85,27.37,12.67l12.99-8.3l-7.79,11.18L287.66,496.07z"/>
						<g>
							<path class="st15" d="M287.66,496.07c-1.04-1.88-42.44-62.35-106.41-89.3"/>
							<path class="st15" d="M218.53,427.43c0,0-22.88,11.59-28.22,23.02"/>
							<path class="st15" d="M190.42,410.93c0,0-31.08,3.63-40.61,13.88"/>
							<line class="st15" x1="243.11" y1="446.69" x2="225.73" y2="468.27"/>
						</g>
					</g>
				</g>
			</g>
			<g>
				<path class="st17" d="M122.68,382.56c7.03-14.68,17.39-27.77,30.07-38c2.33-1.88,5.23-3.77,8.11-2.96
					c3.29,0.93,4.67,4.84,4.9,8.25c0.48,7.02-1.87,14.19-6.42,19.57c8.34-6.25,17.6-10.17,27.28-14.03
					c3.15-1.26,6.76-2.37,9.84-0.93c3.01,1.41,4.54,4.96,4.52,8.28c-0.02,3.32-1.29,6.5-2.54,9.58c5.94-2.33,10.95-5.25,17.09-7
					s13.61-1.16,17.72,3.72c4.14,4.91,3.42,12.43,0.54,18.17s-7.51,10.4-11.08,15.74c2.96-0.68,6.87,0.75,7.98,3.58
					c1.11,2.82,0.68,6.02-0.17,8.93c-2.6,8.94-9.15,16.65-17.55,20.69c2.81-1.33,7.42-0.82,10.51-1.19c3.09-0.38,6.48,0.38,8.56,2.7
					c2.07,2.32,2.24,6.36-0.14,8.35c4.15-5,9.7-8.13,15.21-11.58c1.78-1.12,4.01-2.17,5.9-1.24c1.84,0.9,2.41,3.22,2.59,5.25
					c0.38,4.37-0.1,8.82-1.4,13.01c2.56-4.48,9.02-4.94,13.55-2.46c4.53,2.48,6.44,8.82,4.03,13.38c1.66-4.11,8.69-2.7,11.71,0.54
					c3.02,3.25,3.51,8.04,3.76,12.47c0.3,5.14,0.44,10.56-1.97,15.11c-4.6,8.7-16.21,10.56-26.04,10.06
					c-38.27-1.95-74.67-23.65-112.74-19.28c-7.41,0.85-15.13,2.66-22.16,0.17c-11.34-4.01-16.19-17.39-17.37-29.34
					C104.63,428.11,112.28,404.27,122.68,382.56z"/>
				<g>
					<defs>
						<rect id="SVGID_00000003080051499769452200000008440712493162951861_" y="109.67" width="750.14" height="390.33"/>
					</defs>
					<clipPath id="SVGID_00000121994381070463404350000001552700015025838748_">
						<use xlink:href="#SVGID_00000003080051499769452200000008440712493162951861_"  style="overflow:visible;"/>
					</clipPath>
					<g style="clip-path:url(#SVGID_00000121994381070463404350000001552700015025838748_);">
						<g>
							<g>
								<g>
									<path class="st16" d="M7.42,426.11C8.3,414.14,9.27,390.56,28.85,371c19.58-19.56,12.91-23.56,23.14-36
										c10.24-12.44,19.14-12,24.48-24.89c5.34-12.89,12.46-32,45.84-45.33c33.38-13.33,69.42-29.78,69.42-29.78
										s-28.04,72-39.61,80.89c-11.57,8.89-32.93,23.11-36.94,32.44c-4.01,9.33-1,23.56-15.63,34.67
										c-14.63,11.11-26.65,29.78-27.98,40.89c-1.34,11.11-10.24,43.56-28.04,48C25.74,476.33,4.68,463.44,7.42,426.11z"/>
									<g>
										<path class="st15" d="M15.8,462.42c0,0,49.1-135.87,175.93-227.42"/>
										<path class="st15" d="M122.31,264.78c0,0,2.99,19.76,3.94,27.44c0,0,20.7-6.47,44.65-8.29"/>
										<path class="st15" d="M81.05,299.74c0,0-0.24,26.53,6.49,37.78"/>
										<path class="st15" d="M102.63,318.63c0,0,30.8,1.26,49.49-2.74"/>
										<path class="st15" d="M66.84,366.51c0,0,27.21,0.52,46.23-10.16"/>
										<path class="st15" d="M60.69,375.92c0,0-6.92-22.25-8.7-40.92"/>
										<path class="st15" d="M37.53,415.53c0,0,26.91-2.17,42.27-10.91"/>
										<path class="st15" d="M31.6,427.04c0,0-9.01-29.75-7.21-51.12"/>
									</g>
								</g>
								<g>
									<path class="st16" d="M51.99,508.33C50.21,498.11,58.67,467,71.58,455s31.6-22.22,38.27-30.67
										c6.68-8.44,16.55-35.11,36.76-43.56c20.21-8.44,38.9-19.16,47.8-26.91c8.9-7.75,28.04-16.2,51.18-23.31
										c0,0-23.14,36.89-27.59,47.56c-4.45,10.67-11.57,39.11-26.26,46.22c-14.69,7.11-42.72,25.51-47.17,38.09
										c-4.45,12.58-22.7,45.47-34.27,49.91C98.72,516.78,51.99,508.33,51.99,508.33z"/>
									<g>
										<path class="st15" d="M58.67,509.45c0,0,81.89-97.12,117.93-122.45s68.98-56.44,68.98-56.44"/>
										<line class="st15" x1="92.87" y1="438.46" x2="92.87" y2="470.2"/>
										<path class="st15" d="M107.21,454.33c0,0,35.56,0.89,44.91-2.55"/>
										<path class="st15" d="M139.78,420c0,0-1.27-25.89,2.42-37"/>
										<path class="st15" d="M152.12,407.91c0,0,40.72,2.56,57.74-8.06"/>
										<path class="st15" d="M179.42,385c0,0,0.98-16.24,4.64-23.56"/>
										<path class="st15" d="M209.87,361.63c0,0,13.31-0.49,18.73-3.11"/>
									</g>
								</g>
								<g>
									<path class="st16" d="M177.04,509.45c3.56-9.45,22.7-28.68,40.05-34.01c17.36-5.33,54.74-29.33,65.42-40
										c10.68-10.67,20.47-17.78,20.47-17.78s-15.13,33.33-16.91,48.89c-1.78,15.56-7.57,50.22-15.13,53.33
										C263.38,523,177.04,509.45,177.04,509.45z"/>
									<g>
										<path class="st15" d="M228.59,516.81c0,0,39.68-62.7,74.39-99.14"/>
										<line class="st15" x1="255.08" y1="455.7" x2="255.08" y2="477.64"/>
										<path class="st15" d="M243.12,494.84c0,0,26.05-4.52,40.51-11.51"/>
										<path class="st15" d="M201.51,483.33c0,0,13.18,27.5,17.72,32.25"/>
									</g>
								</g>
								<g>
									<path class="st16" d="M-11.64,321.22c10.68-1.78,40.64-19.56,43.24-34.67c2.6-15.11,11.47-38.67,20.16-48.89
										c8.69-10.22,17.15-35.11,17.15-35.11s-39.68,18.22-44.76,23.11c-5.08,4.89-34.01,12.89-40.68,21.33
										C-23.21,255.44-11.64,321.22-11.64,321.22z"/>
									<g>
										<path class="st15" d="M-16.35,289.25c0,0,50.99-59.14,85.26-86.7"/>
										<line class="st15" x1="24.15" y1="225.67" x2="15.8" y2="253.7"/>
										<line class="st15" x1="-4.12" y1="275.41" x2="37.53" y2="265.16"/>
									</g>
								</g>
							</g>
							<g>
								<g>
									<path class="st19" d="M108.98,188.5c0,0-0.78-16.66,21.72-24.79C130.7,163.71,130.32,185.4,108.98,188.5z"/>
									<g>
										<path class="st19" d="M102.57,194.28c0,0-13.75-9.46-6.62-32.27C95.94,162.01,113,175.45,102.57,194.28z"/>
										<path class="st19" d="M105.95,196.05c0,0,11.76-11.84,32.98-0.78C138.93,195.26,122.66,209.65,105.95,196.05z"/>
									</g>
									<g>
										<path class="st19" d="M90.29,210.17c0,0-15.55-10.7-7.49-36.5C82.8,173.67,102.1,188.86,90.29,210.17z"/>
										<path class="st19" d="M94.12,212.16c0,0,13.3-13.39,37.3-0.89C131.41,211.27,113.02,227.54,94.12,212.16z"/>
									</g>
									<g>
										<path class="st19" d="M78.32,227.32c0,0-16.68-11.48-8.04-39.16C70.28,188.16,90.98,204.46,78.32,227.32z"/>
										<path class="st19" d="M82.42,229.45c0,0,14.27-14.36,40.01-0.95C122.44,228.5,102.7,245.96,82.42,229.45z"/>
									</g>
									<g>
										<path class="st19" d="M63.83,248.82c0,0-20.25-12.07-12.31-44.88C51.53,203.94,76.81,221.3,63.83,248.82z"/>
										<path class="st19" d="M68.76,250.99c0,0,15.49-17.76,46.41-4.13C115.17,246.85,93.57,268.62,68.76,250.99z"/>
									</g>
									<g>
										<path class="st19" d="M48.68,273.19c0,0-26.23-15.64-15.94-58.13C32.74,215.07,65.48,237.56,48.68,273.19z"/>
										<path class="st19" d="M55.06,276.01c0,0,20.06-23.01,60.11-5.36C115.17,270.65,87.19,298.85,55.06,276.01z"/>
									</g>
									<g>
										<path class="st19" d="M32.38,305.04c0,0-28.58-17.04-17.37-63.33C15.01,241.71,50.69,266.21,32.38,305.04z"/>
										<path class="st19" d="M39.33,308.1c0,0,21.86-25.06,65.48-5.83C104.81,302.26,74.34,332.98,39.33,308.1z"/>
									</g>
									<g>
										<path class="st19" d="M18.83,336.5c0,0-29.65-15.1-21.54-62.04C-2.72,274.46,34.51,296.55,18.83,336.5z"/>
										<path class="st19" d="M25.97,339.09c0,0,20.14-26.46,64.95-10.17C90.92,328.93,62.55,361.6,25.97,339.09z"/>
									</g>
								</g>
								<path class="st15" d="M109.85,187.77c0,0-34.27,43.6-57.85,87.64C28.41,319.44-11.28,416.89-16.35,441.5"/>
							</g>
							<g>
								<path class="st10" d="M-8.08,205.67c0,0,31.12-16.89,59.84-37.33C80.48,147.89,117.41,127,117.41,127
									s-102.44,2.22-121.53,5.78C-23.21,136.33-8.08,205.67-8.08,205.67z"/>
								<path class="st15" d="M-13.67,154.1c0,0,58.55-21.76,131.08-27.1"/>
							</g>
							<g>
								<g>
									<path class="st20" d="M-0.96,411c0,0,20.92-46.22,16.02-83.56c0,0-13.35,5.78-16.02,10.22V411z"/>
									<g>
										<path class="st14" d="M37.53,441.5c8.23-20.28,36.12-56.84,55.34-68.28c19.22-11.45,49.33-19.35,49.33-19.35
											s-6.95,51.98-12.53,61.67c-5.58,9.69-61.65,87.59-84.79,79.31C21.73,486.56,37.53,441.5,37.53,441.5z"/>
										<path class="st15" d="M35.88,487.31c0,0,40.33-83.47,106.32-133.45"/>
									</g>
									<g>
										<path class="st14" d="M122.31,513.63c-1.43-10.34,16.02-36.18,29.81-46.96c13.8-10.78,57.74-28.21,57.74-28.21
											s-1.24,74.36-8.35,81.89C194.4,527.89,122.31,513.63,122.31,513.63z"/>
										<path class="st15" d="M157.88,519.62c0,0,43.86-54.59,51.98-81.16"/>
									</g>
								</g>
								<path class="st14" d="M259.37,509.45c0,0,4.9-10.07,43.61-31.82c0,0-1.33,28.94-10.24,31.82
									C283.85,512.33,259.37,509.45,259.37,509.45z"/>
							</g>
							<path class="st20" d="M-0.96,417.22c0,0,21.81-24,45.39-34.22c0,0,16.47,90.44,9.79,117h4.45c0,0,45.39-58.78,91.23-81.44
								c0,0,17.8,54,12.02,81.44H-0.96V417.22z"/>
						</g>
						<g>
							<g>
								<g>
									<path class="st16" d="M741.75,426.11c-0.88-11.97-1.85-35.56-21.43-55.11c-19.58-19.56-12.91-23.56-23.14-36
										c-10.24-12.44-19.14-12-24.48-24.89c-5.34-12.89-12.46-32-45.84-45.33C593.49,251.44,557.44,235,557.44,235
										s28.04,72,39.61,80.89c11.57,8.89,32.93,23.11,36.94,32.44c4.01,9.33,1,23.56,15.63,34.67
										c14.63,11.11,26.65,29.78,27.98,40.89c1.34,11.11,10.24,43.56,28.04,48C723.43,476.33,744.5,463.44,741.75,426.11z"/>
									<g>
										<path class="st15" d="M733.37,462.42c0,0-49.1-135.87-175.93-227.42"/>
										<path class="st15" d="M626.87,264.78c0,0-2.99,19.76-3.94,27.44c0,0-20.7-6.47-44.65-8.29"/>
										<path class="st15" d="M668.12,299.74c0,0,0.24,26.53-6.49,37.78"/>
										<path class="st15" d="M646.54,318.63c0,0-30.8,1.26-49.49-2.74"/>
										<path class="st15" d="M682.33,366.51c0,0-27.21,0.52-46.23-10.16"/>
										<path class="st15" d="M688.48,375.92c0,0,6.92-22.25,8.7-40.92"/>
										<path class="st15" d="M711.64,415.53c0,0-26.91-2.17-42.27-10.91"/>
										<path class="st15" d="M717.58,427.04c0,0,9.01-29.75,7.21-51.12"/>
									</g>
								</g>
								<g>
									<path class="st16" d="M697.18,508.33c1.78-10.22-6.68-41.33-19.58-53.33s-31.6-22.22-38.27-30.67
										c-6.68-8.44-16.55-35.11-36.75-43.56c-20.21-8.44-38.9-19.16-47.8-26.91c-8.9-7.75-28.04-16.2-51.18-23.31
										c0,0,23.14,36.89,27.59,47.56c4.45,10.67,11.57,39.11,26.26,46.22c14.69,7.11,42.72,25.51,47.17,38.09
										c4.45,12.58,22.7,45.47,34.27,49.91C650.45,516.78,697.18,508.33,697.18,508.33z"/>
									<g>
										<path class="st15" d="M690.51,509.45c0,0-81.89-97.12-117.93-122.45c-36.05-25.33-68.98-56.44-68.98-56.44"/>
										<line class="st15" x1="656.3" y1="438.46" x2="656.3" y2="470.2"/>
										<path class="st15" d="M641.96,454.33c0,0-35.56,0.89-44.91-2.55"/>
										<path class="st15" d="M609.39,420c0,0,1.27-25.89-2.42-37"/>
										<path class="st15" d="M597.05,407.91c0,0-40.72,2.56-57.74-8.06"/>
										<path class="st15" d="M569.75,385c0,0-0.98-16.24-4.64-23.56"/>
										<path class="st15" d="M539.31,361.63c0,0-13.31-0.49-18.73-3.11"/>
									</g>
								</g>
								<g>
									<path class="st16" d="M572.13,509.45c-3.56-9.45-22.7-28.68-40.05-34.01c-17.36-5.33-54.74-29.33-65.42-40
										c-10.68-10.67-20.47-17.78-20.47-17.78s15.13,33.33,16.91,48.89c1.78,15.56,7.57,50.22,15.13,53.33
										C485.8,523,572.13,509.45,572.13,509.45z"/>
									<g>
										<path class="st15" d="M520.58,516.81c0,0-39.68-62.7-74.39-99.14"/>
										<line class="st15" x1="494.09" y1="455.7" x2="494.09" y2="477.64"/>
										<path class="st15" d="M506.06,494.84c0,0-26.05-4.52-40.51-11.51"/>
										<path class="st15" d="M547.66,483.33c0,0-13.18,27.5-17.72,32.25"/>
									</g>
								</g>
								<g>
									<path class="st16" d="M760.82,321.22c-10.68-1.78-40.64-19.56-43.24-34.67c-2.6-15.11-11.47-38.67-20.16-48.89
										c-8.69-10.22-17.15-35.11-17.15-35.11s39.68,18.22,44.76,23.11c5.08,4.89,34.01,12.89,40.68,21.33
										C772.39,255.44,760.82,321.22,760.82,321.22z"/>
									<g>
										<path class="st15" d="M765.53,289.25c0,0-50.99-59.14-85.26-86.7"/>
										<line class="st15" x1="725.03" y1="225.67" x2="733.37" y2="253.7"/>
										<line class="st15" x1="753.29" y1="275.41" x2="711.64" y2="265.16"/>
									</g>
								</g>
							</g>
							<g>
								<g>
									<path class="st16" d="M397.22,556.27c4.79-4.81,14.51-13.96,15.61-29.56c1.1-15.59,5.29-14.23,6.81-23.2
										c1.53-8.97-1.96-12.6,1.57-19.66c3.53-7.05,9.06-17.17,2.39-36.34c-6.67-19.17-12.99-40.63-12.99-40.63
										s-20.39,38.63-19.9,46.85c0.49,8.23,2.32,22.6-0.18,27.77c-2.51,5.17-9.7,9.15-9.03,19.51
										c0.67,10.35-2.86,22.39-7.11,27.08c-4.25,4.69-14.82,20.5-10.13,29.74C368.96,567.07,382.28,571.28,397.22,556.27z"/>
									<g>
										<path class="st15" d="M378.59,566.15c0,0,39.88-71.27,32.03-159.26"/>
										<path class="st15" d="M423.61,447.52c0,0-9.56,6.05-13.19,8.48c0,0-4.9-11.22-13-22.1"/>
										<path class="st15" d="M423.95,478.06c0,0-11.25,9.93-18.55,11.23"/>
										<path class="st15" d="M407.88,475.86c0,0-11.95-12.67-17.16-22.12"/>
										<path class="st15" d="M400.68,508.86c0,0-10.3-11.4-12.78-23.47"/>
										<path class="st15" d="M398.93,514.97c0,0,12.07-5.3,20.71-11.45"/>
										<path class="st15" d="M390.58,539.52c0,0-9.04-12.28-11-22.06"/>
										<path class="st15" d="M387.86,546.31c0,0,16.06-7.18,24.52-15.86"/>
									</g>
								</g>
								<g>
									<path class="st16" d="M345.56,567.73c5.03-3.03,15.19-18.16,15.54-28.11c0.35-9.95-2.21-21.7-1.07-27.68
										c1.14-5.97,8.88-20.06,5-31.81c-3.88-11.74-6.22-23.68-6.21-30.35c0.02-6.67-3.46-17.95-9-30.45c0,0-7.19,23.53-10.1,29.38
										c-2.91,5.85-12.43,19.42-10.03,28.32c2.4,8.9,4.92,27.66,1.2,34.22c-3.73,6.56-11.03,26.52-8.64,33.1
										C324.64,550.94,345.56,567.73,345.56,567.73z"/>
									<g>
										<path class="st15" d="M342.61,565.3c0,0,11.17-70.89,8.65-95.65c-2.53-24.75-1.43-50.32-1.43-50.32"/>
										<line class="st15" x1="360.28" y1="524.42" x2="346.71" y2="536.18"/>
										<path class="st15" d="M348.18,524.18c0,0-13.56-14.83-15.55-20.09"/>
										<path class="st15" d="M350.79,497.58c0,0,11.54-9.05,14.92-14.74"/>
										<path class="st15" d="M351.39,487.84c0,0-16.18-16.41-17.95-27.6"/>
										<path class="st15" d="M351.07,467.71c0,0,6.57-6.43,8.35-10.71"/>
										<path class="st15" d="M349.78,446.08c0,0-4.72-5.86-5.61-9.14"/>
									</g>
								</g>
							</g>
							<g>
								<g>
									<path class="st19" d="M640.19,188.5c0,0,0.78-16.66-21.72-24.79C618.47,163.71,618.86,185.4,640.19,188.5z"/>
									<g>
										<path class="st19" d="M646.61,194.28c0,0,13.75-9.46,6.62-32.27C653.23,162.01,636.17,175.45,646.61,194.28z"/>
										<path class="st19" d="M643.23,196.05c0,0-11.76-11.84-32.98-0.78C610.25,195.26,626.51,209.65,643.23,196.05z"/>
									</g>
									<g>
										<path class="st19" d="M658.88,210.17c0,0,15.55-10.7,7.49-36.5C666.37,173.67,647.08,188.86,658.88,210.17z"/>
										<path class="st19" d="M655.06,212.16c0,0-13.3-13.39-37.3-0.89C617.76,211.27,636.16,227.54,655.06,212.16z"/>
									</g>
									<g>
										<path class="st19" d="M670.85,227.32c0,0,16.68-11.48,8.04-39.16C678.89,188.16,658.19,204.46,670.85,227.32z"/>
										<path class="st19" d="M666.75,229.45c0,0-14.27-14.36-40.01-0.95C626.74,228.5,646.47,245.96,666.75,229.45z"/>
									</g>
									<g>
										<path class="st19" d="M685.34,248.82c0,0,20.25-12.07,12.31-44.88C697.65,203.94,672.36,221.3,685.34,248.82z"/>
										<path class="st19" d="M680.41,250.99c0,0-15.49-17.76-46.41-4.13C634.01,246.85,655.61,268.62,680.41,250.99z"/>
									</g>
									<g>
										<path class="st19" d="M700.49,273.19c0,0,26.23-15.64,15.94-58.13C716.44,215.07,683.69,237.56,700.49,273.19z"/>
										<path class="st19" d="M694.11,276.01c0,0-20.06-23.01-60.11-5.36C634.01,270.65,661.98,298.85,694.11,276.01z"/>
									</g>
									<g>
										<path class="st19" d="M716.8,305.04c0,0,28.58-17.04,17.37-63.33C734.16,241.71,698.49,266.21,716.8,305.04z"/>
										<path class="st19" d="M709.84,308.1c0,0-21.86-25.06-65.48-5.83C644.36,302.26,674.84,332.98,709.84,308.1z"/>
									</g>
									<g>
										<path class="st19" d="M730.35,336.5c0,0,29.65-15.1,21.54-62.04C751.89,274.46,714.66,296.55,730.35,336.5z"/>
										<path class="st19" d="M723.21,339.09c0,0-20.14-26.46-64.95-10.17C658.26,328.93,686.62,361.6,723.21,339.09z"/>
									</g>
								</g>
								<path class="st15" d="M639.33,187.77c0,0,34.27,43.6,57.85,87.64c23.59,44.04,63.27,141.48,68.35,166.09"/>
							</g>
							<g>
								<path class="st10" d="M757.26,205.67c0,0-31.12-16.89-59.84-37.33C668.7,147.89,631.76,127,631.76,127
									s102.44,2.22,121.53,5.78C772.39,136.33,757.26,205.67,757.26,205.67z"/>
								<path class="st15" d="M762.85,154.1c0,0-58.55-21.76-131.08-27.1"/>
							</g>
							<g>
								<g>
									<path class="st20" d="M750.14,411c0,0-20.92-46.22-16.02-83.56c0,0,13.35,5.78,16.02,10.22V411z"/>
									<g>
										<path class="st14" d="M711.64,441.5c-8.23-20.28-36.12-56.84-55.34-68.28c-19.22-11.45-49.33-19.35-49.33-19.35
											s6.95,51.98,12.53,61.67c5.58,9.69,61.65,87.59,84.79,79.31C727.44,486.56,711.64,441.5,711.64,441.5z"/>
										<path class="st15" d="M713.3,487.31c0,0-40.33-83.47-106.32-133.45"/>
									</g>
									<g>
										<path class="st14" d="M626.87,513.63c1.43-10.34-16.02-36.18-29.81-46.96c-13.8-10.78-57.74-28.21-57.74-28.21
											s1.24,74.36,8.35,81.89C554.77,527.89,626.87,513.63,626.87,513.63z"/>
										<path class="st15" d="M591.29,519.62c0,0-43.86-54.59-51.98-81.16"/>
									</g>
								</g>
								<path class="st14" d="M489.8,509.45c0,0-4.9-10.07-43.61-31.82c0,0,1.34,28.94,10.24,31.82
									C465.33,512.33,489.8,509.45,489.8,509.45z"/>
							</g>
							<path class="st20" d="M750.14,417.22c0,0-21.81-24-45.39-34.22c0,0-16.47,90.44-9.79,117h-4.45c0,0-45.39-58.78-91.23-81.44
								c0,0-17.8,54-12.02,81.44h162.88V417.22z"/>
						</g>
					</g>
				</g>
				<g>
					<defs>
						<rect id="SVGID_00000152234713601391714200000012334070400630229407_" width="750.14" height="500"/>
					</defs>
					<clipPath id="SVGID_00000042013002219207964460000000495755372584235181_">
						<use xlink:href="#SVGID_00000152234713601391714200000012334070400630229407_"  style="overflow:visible;"/>
					</clipPath>
					<g style="clip-path:url(#SVGID_00000042013002219207964460000000495755372584235181_);">
						<path class="st19" d="M-12.62,95.39c31.85,7.59,66.25,4.05,95.88-9.87c9.78,18.04,25.07,33.21,41.9,44.97
							c15.37-62.25,0.75-130.96-40.35-180.2c-16.87-6.12-36.3-8.4-54.05-5.77c-18.87,2.8-38.69,8.65-50.73,23.43
							c-11.9,14.61-13.7,34.74-14.75,53.55c-1.02,18.19-1.77,36.74,3.01,54.32c1.03,3.78,2.35,7.58,4.76,10.68
							C-24.56,89.59-16.55,95.41-12.62,95.39z"/>
						<path class="st19" d="M165.08-8.78c-17.79,31.12-22.24,69.57-12.02,103.92c11.58-9.29,22.69-21.01,32.09-32.49
							c1.05,14.21,10.75,24.92,20.8,35.02c13.46,13.52,26.92,27.05,40.38,40.57c-1.71-39.88-4.06-79.89-13.87-118.58
							C230,9.92,226.76-0.16,219.43-7.03c-6.6-6.18-15.89-8.99-24.94-8.94C185.45-15.93,173.37-12.39,165.08-8.78z"/>
						<path class="st19" d="M262.72-5.61c-11.62,34.6-13.39,72.43-5.05,107.96c7.52-4.7,14.71-11.19,20.57-17.83
							c5.49,27.15,18.41,50.82,37.88,70.55c5.16-42.61,11.16-88.36,12.46-131.26c0.5-16.58-0.19-34.87-11.38-47.14
							c-8.75-9.59-23.3-13.42-35.64-9.38C269.21-28.67,266.85-17.91,262.72-5.61z"/>
						<path class="st19" d="M335.03-5.88c0.03,30.05,13.96,58.77,33.06,81.99c19.1,23.23,43.2,41.74,67.08,60.03
							c2.7-35.17-0.83-70.88-10.03-104.93c10.41,14.68,21.25,27.3,35.82,37.86c4.4-20.59,3.96-40.76,2.24-61.74
							c-0.67-8.19-1.96-16.72-6.79-23.38c-5.03-6.94-13.22-10.86-21.4-13.44C401.59-40.03,360.57-29.86,335.03-5.88z"/>
						<path class="st19" d="M510.19-6.8c-22.75,27.47-34.01,64.13-30.62,99.61c47.35-12.94,66.7-14.85,103.1-47.74
							c-25.13,37.22-11.49,61.02-1.51,104.79c37.31-22.29,66.13-56.33,81.43-96.98c2.98,13.34,12.26,24.77,24.46,30.97
							c4-20.01,5.29-41.63,2.91-61.89c-2.38-20.27-12.26-40.74-30.07-50.75c-12.89-7.24-28.26-8.27-43.04-8.91
							c-19.37-0.85-38.95-1.32-57.97,2.48C539.86-31.43,522.54-21.72,510.19-6.8z"/>
					</g>
					<g style="clip-path:url(#SVGID_00000042013002219207964460000000495755372584235181_);">
						<path class="st10" d="M765.16,21.15c-1-5.29,0.12-11.67-1.04-16.93c-1.16-5.26-4.03-10.39-8.73-13.05
							c-4.33-2.45-9.58-2.51-14.55-2.33c-13.68,0.51-27.3,2.43-40.59,5.71c-0.85,0.21-1.71,0.43-2.56,0.66
							c-4.41-4.38-11-7.38-16.76-9.33c-7.07-2.39-14.71-2.35-22.17-2.22c-7.92,0.14-15.89,0.36-23.64,2
							c-5.53,1.17-11.12,3.62-15.99,6.88c-7.62-5.93-16.49-10.41-25.64-13.21c-19.53-5.97-40.32-6-60.75-5.98
							c-1.32,0-2.66,0.01-3.99,0.04c-30.28-4.79-64.5-7.55-85.73,10.78c-4.87,4.21-8.99,9.26-12.21,14.83
							c-4.41-3.81-9.35-7.01-14.68-9.39c-10.25-4.57-21.8-6.09-32.91-4.6c-8.6,1.16-17.55,3.95-25.58,7.26
							c-3.68,1.52-10.31,1.97-14.69,4c-1.39-5.58-4.28-10.79-8.43-14.78c-8.09-7.78-19.73-10.52-30.85-12.05
							c-20.24-2.78-40.76-2.62-61.19-2.46c-14.28,0.11-28.67,0.24-42.67,3.02c-14.01,2.78-27.27,11.36-40.12,17.59
							c-9.66,4.68-18.3,11.45-25.15,19.71c-2.47,2.97-4.81,6.47-4.62,10.32c0.32,6.54,8.08,10.6,14.54,9.53
							c6.46-1.07,11.73-5.6,16.63-9.94c-4.57,5.78-9.29,11.88-10.62,19.13c-1.33,7.25,1.99,15.92,9.06,18.04
							c4.97,1.49,10.45-0.63,14.3-4.11c3.84-3.47,6.37-8.13,8.83-12.69c-1.93,5.24-3.9,10.73-3.24,16.28
							c0.66,5.55,4.84,11.11,10.43,11.34c5.38,0.22,9.78-4.39,12.14-9.23c2.36-4.84,3.51-10.28,6.58-14.7
							c-0.73,10.22,2.4,20.67,8.62,28.82c2.52,3.3,6.54,6.49,10.45,5.07c2.88-1.05,4.35-4.18,5.35-7.07
							c3.06-8.8,4.54-18.15,4.35-27.47c2.19,5.44,5.04,11.74,9.29,15.79c4.24,4.05,11,6.11,16.12,3.24
							c4.05-2.28,6.14-7.09,6.36-11.73s-1.11-9.19-2.43-13.65c2.46,4.66,5.87,8.49,9.7,12.11c2.51,2.37,5.77,4.59,9.16,3.92
							c3.77-0.75,5.93-4.72,6.95-8.42c2.39-8.66,1.26-18.23-3.08-26.1c4.31,7.08,11.24,12.33,18.64,16.07
							c2.46,1.24,5.36,2.27,7.92,1.25c2.87-1.14,4.25-4.4,4.85-7.43c0.64-3.19,0.74-6.48,0.34-9.71c0.02,0.02,0.03,0.05,0.04,0.07
							c2.16,3.46,5.82,6.27,9.9,6.3c5.31,0.03,9.32-4.46,11.27-9.58c2.86,4.22,6.8,8.03,10.01,9.9c3.49,2.04,7.78,2.42,11.67,1.39
							c-1.16,1.64-1.96,3.51-2.26,5.5c-0.81,5.42,2.46,11.3,7.65,13.08c4.55,1.56,10.08-0.52,12.49-4.57
							c-1.82,4.07-3.47,8.29-3.49,12.72c-0.02,5.09,2.71,10.58,7.58,12.09c4.76,1.48,10.02-1.3,12.95-5.33
							c2.93-4.03,4.06-9.05,5.11-13.92c0.02,6.45,3.77,12.92,9.66,15.57c5.89,2.65,13.63,0.89,17.31-4.41
							c3.06-4.4,2.62-10.89-0.78-14.89c1.93,1.61,3.97,3.08,6.29,4.03c3.31,1.35,7.35,1.44,10.23-0.67
							c4.26-3.13,4.25-9.33,2.92-14.57c5.56-2.86,9.25-7.3,13.01-12.34c-4.14,11.02-0.7,23.76,7.34,32.35
							c11.14-8.84,18.46-20.66,20.67-34.7c0.2,9.81,4.56,19.2,12.03,24.8c-1.27,4.02-1.89,8.26-1.77,12.5
							c10.79,0.11,21.26-4.71,28.96-12.26c-3.11,8.31-3.25,17.58-0.19,25.91c9.6-4.02,17.87-10.02,23.23-18.93
							c3.02,7.33,8.71,13.47,16.47,15.11c1.99-6.5,3.12-14.39,2.38-21.14c1.73,6.04,7.59,10.45,13.62,12.21
							c5.61-8.9,7.45-18.92,6.1-29.35c0.9,8.09,5.51,15.01,12.63,19c4.58-5.65,7.6-12.44,8.93-19.57c0.32,5.37,0.9,10.73,1.75,16.05
							c-5.65,9.89-9.12,21.51-10.55,32.81c8.15-2.07,15.77-5.84,22.64-10.68c0.97,9.47,3.65,18.47,8.36,26.75
							c5.46-7.19,9.47-15.57,11.89-24.26c3.94,10.51,12.6,18.53,22.84,23.14c2.6-10.34,2.42-22,0.3-32.45
							c7.28,5.3,15.78,8.87,24.29,11.83c0.41-7.37-1.32-14.93-4.68-21.63c3.56,4.84,7.24,9.61,11.68,13.64
							c5.15,4.68,11.46,8.35,18.36,9.23c2.49-11.37,2.85-23.89,0.5-35.3c2.96,5.2,6.83,9.73,10.84,14.17
							c4.01,4.44,9.18,8.08,15.06,9.2c-0.29-5.13-1.28-10.42-2.37-15.44c-1.09-5.02-3.03-9.94-6.29-13.9
							c5.67,0.63,11.03,0.83,16.7,1.46c2.36,0.26,4.82,0.51,7.04-0.32C763.72,25.73,765.6,23.48,765.16,21.15z"/>
						<path class="st10" d="M94.79-13.73c-3.61-3.1-8.28-4.65-12.9-5.78c-4.62-1.13-9.37-1.94-13.72-3.85
							c-21.31-9.38-48.57-5.16-66.59,9.56c-8.42,6.88-15.34,17.25-13.6,27.97c1.23,7.54,8.75,13.87,4.5,20.22
							c-3.73,5.56-5.37,12.49-4.54,19.13c0.41,3.25,1.69,6.79,4.68,8.14c2.94,1.33,6.4,0.02,9.11-1.72
							c5.68-3.66,10.02-9.34,12.05-15.77c1.19,5.4,2.49,10.09,5.02,15.01c1.03,1.99,2.2,3.98,3.95,5.37c1.75,1.4,4.21,2.1,6.29,1.26
							c2.47-1,3.69-3.78,4.26-6.38c0.97-4.45,0.76-9.15-0.61-13.49c2.84,4.53,6.36,9.03,11,11.69c4.64,2.66,11.4,2.46,14.51-1.89
							c1.77-2.47,2.02-5.69,1.91-8.72C59.76,38.49,56.91,30.1,52,23.14c6.27,6.16,14.94,9.94,23.73,9.78
							c2.69-0.05,5.61-0.54,7.46-2.49c2.23-2.35,2.2-6.09,1.22-9.18c-1.88-5.95-6.5-10.58-10.96-14.95C78.42,7.66,83,8.63,88.08,7.9
							c5.08-0.73,10.14-3.99,11.44-8.96C100.73-5.66,98.39-10.63,94.79-13.73z"/>
					</g>
				</g>
			</g>
		</g>
	</g>
</g>
</svg>
