<svg xmlns="http://www.w3.org/2000/svg" viewBox="0 0 227.62 160.05"><defs><style>.cls-1{isolation:isolate;}.cls-2{fill:#cba70a;}.cls-3{fill:#fcde42;}.cls-4{fill:#ffec9d;}.cls-5{fill:#ffce05;}.cls-6{fill:#7fa22a;}.cls-7{fill:#322019;}.cls-8,.cls-9{fill:#503d36;}.cls-9{mix-blend-mode:multiply;opacity:0.5;}</style></defs><g class="cls-1"><g id="Layer_1" data-name="Layer 1"><path class="cls-2" d="M134.31,212.23a135.38,135.38,0,0,1-48.66-9,119.47,119.47,0,0,1-31.34-17.88l-3.43-2.75c-.88-.77-1.73-1.58-2.55-2.36L47,179a66.24,66.24,0,0,1-5.53-5.69c-1-1.08-1.91-2.16-2.82-3.28l-.61-.74A31.27,31.27,0,0,1,36,166.64c-1.58-2.24-3.25-4.68-4.72-7.2a3.9,3.9,0,0,1-.19-.35c-.09-.15-.16-.3-.24-.46h0l-.11-.25c-.11-.24-.21-.47-.3-.71l-.13-.37a11.14,11.14,0,0,1-.51-2.16,11.88,11.88,0,0,1-.1-1.74,6.92,6.92,0,0,1,.1-1.32,10.67,10.67,0,0,1,.24-1.3c.07-.26.15-.52.23-.77s.17-.51.27-.76.11-.26.17-.38l.14-.31.21-.42.2-.36.21-.36a12.08,12.08,0,0,1,4.16-4A8,8,0,0,1,40,141.77a2.61,2.61,0,0,1,.4,0,10,10,0,0,1,1.61-.12,13.08,13.08,0,0,1,2.5.25l1.32.27c2.58.52,5,1.14,7.39,1.78,1.22.35,2.5.63,3.73.9s2.25.49,3.32.78c1.49.39,3,.7,4.5,1l2.34.48.37.08c1,.2,2,.41,3,.64l3.32.56a216.58,216.58,0,0,0,25.53,3c3.36.19,6.77.28,10.11.28a175.1,175.1,0,0,0,36.94-3.93,160,160,0,0,0,41.82-15.37A125.23,125.23,0,0,0,207,119.85a38.69,38.69,0,0,0,3.41-2.85l1.16-1a25.53,25.53,0,0,0,2.58-2.39c.63-.63,1.27-1.29,2-1.93a14.09,14.09,0,0,0,1.42-1.47c.25-.28.5-.57.77-.85l2.31-2.44c.56-.63,1.12-1.28,1.68-1.94.93-1.09,1.89-2.22,3-3.37l1-1a17.59,17.59,0,0,0,3.78-4.82A16,16,0,0,0,231.58,89c0-3.19,0-5.59.16-7.79l.07-1.21.06-.93.08-.94.08-.93.1-.91.11-.89c0-.24.13-.87.13-.87a39,39,0,0,1,.93-4.58l.19-.71c.08-.27.15-.49.22-.7s.15-.5.23-.71.16-.49.24-.69.18-.49.26-.69l.32-.77.25-.58.37-.77c.09-.18.19-.36.28-.55l.35-.64c.12-.21.24-.43.37-.64,1.08-2.29,4.05-5.06,7.72-7.19,3.38-1.95,6.92-3.11,9.49-3.11h.28a3.91,3.91,0,0,1,2.77,1,1.83,1.83,0,0,1,.35.44c.87,1.5-.05,3.78-2.5,6.26h0a28,28,0,0,0-2.14,3.21c-.42.72-.84,1.51-1.25,2.34l-.34.7-.28.61a54.55,54.55,0,0,0-2.72,7.6c-.21.78-.42,1.56-.61,2.35l-.32,1.44c-.07.33-.15.66-.21,1A66.1,66.1,0,0,0,245.32,92c0,4.91.6,6,1.7,7.87a27.07,27.07,0,0,1,1.82,3.7l.22.55c.06.15.11.31.16.47a10.85,10.85,0,0,1,.38,1.42l-.39.2.42-.09a72.33,72.33,0,0,1,1.19,9v1.25a69.06,69.06,0,0,1-.24,8c-.15,1.59-.38,3.15-.6,4.62l-.35,2.32c-.15.78-.32,1.54-.51,2.3s-.34,1.31-.5,2a59.93,59.93,0,0,1-2.13,7.12A93.11,93.11,0,0,1,226.3,175a112.8,112.8,0,0,1-30.8,22.88A130.36,130.36,0,0,1,159.4,210a139.54,139.54,0,0,1-25.09,2.27Z" transform="translate(-29.69 -52.18)"/><g id="banana"><path class="cls-3" d="M250.4,115.08a82.89,82.89,0,0,1-.23,9.17c-.15,1.53-.37,3-.6,4.59l-.35,2.32c-.15.76-.32,1.52-.5,2.27a80.91,80.91,0,0,1-2.62,9A92.35,92.35,0,0,1,226,174.7a112.83,112.83,0,0,1-30.69,22.79,129.64,129.64,0,0,1-36,12,136.52,136.52,0,0,1-73.52-6.67,119.22,119.22,0,0,1-31.22-17.81l-3.43-2.75c-1.11-1-2.17-2-3.23-3a73.19,73.19,0,0,1-6.1-6.23c-1-1.08-1.9-2.16-2.82-3.28s-1.84-2.18-2.65-3.39c-1.65-2.36-3.26-4.72-4.7-7.18a3.72,3.72,0,0,1-.19-.34c-.12-.22-.23-.45-.34-.68h0c-.11-.23-.2-.46-.29-.69s-.09-.24-.12-.35a11.14,11.14,0,0,1-.5-2.09.28.28,0,0,0,0-.09,10,10,0,0,1-.07-2v0c0-.18,0-.37.05-.55s0-.27,0-.39a9,9,0,0,1,.23-1.15c.06-.26.14-.5.21-.75s.17-.5.27-.74.1-.24.16-.36l.16-.36.18-.35c.06-.11.12-.23.19-.34l.2-.34a11.66,11.66,0,0,1,4.32-4.06,12.15,12.15,0,0,1,8.26-1.25l1.33.27c2.58.52,5,1.15,7.36,1.77s4.79,1.07,7,1.68,4.62,1,6.86,1.49c1.13.23,2.25.45,3.34.71l3.35.57a215.68,215.68,0,0,0,25.58,3,175.88,175.88,0,0,0,47.16-3.65,159.81,159.81,0,0,0,41.93-15.42,125.68,125.68,0,0,0,18.93-12.56c1.65-1.19,3-2.54,4.59-3.9s2.91-2.86,4.57-4.32c.84-.73,1.46-1.55,2.22-2.34l2.31-2.45c1.51-1.69,2.91-3.48,4.67-5.3s3.71-3.51,4.86-6A16.35,16.35,0,0,0,232,89c0-10.63.53-19.29,4.74-26.28l17.4-3.09a43.16,43.16,0,0,0-6.8,14.62c-.45,1.56-.83,3.17-1.16,4.81A67.18,67.18,0,0,0,244.9,92c0,7.35,1.38,6.36,3.55,11.73l.05.11.16.42c.06.15.11.31.16.46a13.2,13.2,0,0,1,.37,1.37s0,.08,0,.12A72.69,72.69,0,0,1,250.4,115.08Z" transform="translate(-29.69 -52.18)"/><path class="cls-4" d="M202,131.73a.91.91,0,0,1-.5-1.66c2.91-2,5.77-4.07,8.51-6.27a45.49,45.49,0,0,0,3.73-3.12l.07-.06.93-.84a31.29,31.29,0,0,0,2.95-2.73c.59-.6,1.15-1.16,1.73-1.68a17.34,17.34,0,0,0,1.87-1.92l.07-.07c.19-.21.38-.43.58-.64l2.41-2.55c.59-.66,1.17-1.35,1.76-2a.91.91,0,0,1,1.28-.1.89.89,0,0,1,.1,1.27c-.6.71-1.19,1.4-1.79,2.08l-.05,0-2.4,2.54c-.19.2-.36.39-.53.59l-.06.07a20.71,20.71,0,0,1-2,2.09c-.53.46-1.06,1-1.62,1.57a32.94,32.94,0,0,1-3.09,2.86L215,122,215,122a46.52,46.52,0,0,1-3.84,3.22c-2.74,2.2-5.65,4.34-8.6,6.33A.88.88,0,0,1,202,131.73Z" transform="translate(-29.69 -52.18)"/><path class="cls-4" d="M109.4,158.44c-3.47,0-7-.1-10.47-.3a218.34,218.34,0,0,1-26.3-3.06l-3.77-.65c-.86-.21-1.79-.4-2.77-.59l-.43-.09-2.21-.46c-1.62-.33-3.25-.65-5-1.11-.91-.25-1.92-.47-3-.7-1.32-.29-2.68-.59-4.09-1a.91.91,0,0,1,.5-1.75c1.35.39,2.68.68,4,1,1.1.24,2.13.46,3.08.72,1.66.44,3.27.76,4.82,1.07L66,152l.4.08c1,.21,2,.4,2.85.62l.18,0,3.47.58A219.26,219.26,0,0,0,99,156.34c3.45.19,6.94.29,10.37.29a180.43,180.43,0,0,0,38-4,165.09,165.09,0,0,0,43.13-15.87.91.91,0,0,1,.87,1.59,167.06,167.06,0,0,1-43.61,16.05A182.28,182.28,0,0,1,109.4,158.44Z" transform="translate(-29.69 -52.18)"/><path class="cls-5" d="M250.17,124.25c-.15,1.53-.37,3-.6,4.59l-.35,2.32c-.15.76-.32,1.52-.5,2.27a80.91,80.91,0,0,1-2.62,9A92.35,92.35,0,0,1,226,174.7a112.83,112.83,0,0,1-30.69,22.79,129.64,129.64,0,0,1-36,12,136.52,136.52,0,0,1-73.52-6.67,119.22,119.22,0,0,1-31.22-17.81l-3.43-2.75c-1.11-1-2.17-2-3.23-3a73.19,73.19,0,0,1-6.1-6.23c-1-1.08-1.9-2.16-2.82-3.28s-1.84-2.18-2.65-3.39c-1.65-2.36-3.26-4.72-4.7-7.18a3.72,3.72,0,0,1-.19-.34c-.12-.22-.23-.45-.34-.68h0c-.11-.23-.2-.46-.29-.69s-.09-.24-.12-.35a11.14,11.14,0,0,1-.5-2.09.28.28,0,0,0,0-.09,11.8,11.8,0,0,1-.07-2v0c0-.18,0-.37.05-.55s0-.27,0-.39c.06-.39.14-.77.23-1.15s.14-.5.21-.75.17-.5.27-.74.1-.24.16-.36l.16-.36.18-.35c.06-.11.12-.23.19-.34l.2-.34c1,.91,2,1.84,3,2.69l3.55,2.73a124,124,0,0,0,32.26,17.6c23.56,8.79,50.31,11.09,76,6.6a138.82,138.82,0,0,0,37.18-11.91,116.7,116.7,0,0,0,31.72-22.53A90.77,90.77,0,0,0,236.31,111a75.11,75.11,0,0,0,2.71-8.93c.19-.75.37-1.49.52-2.24l.37-2.3c0-.27.07-.54.11-.82.51-3.83,1.75-18.74,3.13-22.44.66-1.78,2.49-.26,4.2,0-.45,1.56-.83,3.17-1.16,4.81A67.18,67.18,0,0,0,244.9,92c0,7.35,1.38,6.36,3.55,11.73l.05.11.16.42c.06.15.11.31.16.46a13.2,13.2,0,0,1,.37,1.37s0,.08,0,.12a72.69,72.69,0,0,1,1.19,8.9A82.89,82.89,0,0,1,250.17,124.25Z" transform="translate(-29.69 -52.18)"/><path class="cls-6" d="M254.15,59.61A27.73,27.73,0,0,0,252,62.88c-.59,1-1.15,2.09-1.67,3.22a56.69,56.69,0,0,0-3.9,12c-1.45.07-1.45-1.21-2.71-.47a1.89,1.89,0,0,1-1.36.2c-1.56-.26-3.35-1.86-4.91-2.13s-4.06,4.69-5.26,5.55a66.45,66.45,0,0,1,.76-7.51,31.07,31.07,0,0,1,3.83-11l17.39-3.09Z" transform="translate(-29.69 -52.18)"/><path class="cls-7" d="M254.14,59.61h0a34.23,34.23,0,0,0-3.85,6.49,5.62,5.62,0,0,0-2.46.53c-4.31,2.74-6.49.6-10.09,2.73-1.53.91-3.46,3.22-4.83,4.34a31.07,31.07,0,0,1,3.83-11c1-2.19,3.83-4.88,7.56-7,3.57-2.06,7.12-3.14,9.55-3h0c.38.1.75.2,1.13.33a13.89,13.89,0,0,1,1.35.52,2,2,0,0,1,.28.37C257.41,55.18,256.37,57.38,254.14,59.61Z" transform="translate(-29.69 -52.18)"/><ellipse class="cls-7" cx="36.56" cy="149.43" rx="8.5" ry="4.66" transform="translate(-132.4 31.91) rotate(-51.12)"/><path class="cls-8" d="M254.14,59.61a25.44,25.44,0,0,1-5.25,4c-5.54,3.2-11.06,4-12.32,1.83a2.89,2.89,0,0,1,.18-2.7c1-2.19,3.83-4.88,7.56-7,3.57-2.06,7.12-3.14,9.55-3h0a3.55,3.55,0,0,1,2.48.85,2,2,0,0,1,.28.37C257.41,55.18,256.37,57.38,254.14,59.61Z" transform="translate(-29.69 -52.18)"/><path class="cls-9" d="M252,62.88c-.59,1-1.15,2.09-1.67,3.22a56.69,56.69,0,0,0-3.9,12c-1.45.07-1.45-1.21-2.71-.47a1.89,1.89,0,0,1-1.36.2,1.91,1.91,0,0,1,0-.42,16.69,16.69,0,0,1,1.59-5.22,20.73,20.73,0,0,1,7.18-8.81A3.14,3.14,0,0,1,252,62.88Z" transform="translate(-29.69 -52.18)"/></g></g></g></svg>