<?xml version="1.0" encoding="utf-8"?>
<!-- Generator: Adobe Illustrator 25.4.1, SVG Export Plug-In . SVG Version: 6.00 Build 0)  -->
<svg version="1.1" id="Layer_1" xmlns="http://www.w3.org/2000/svg" xmlns:xlink="http://www.w3.org/1999/xlink" x="0px" y="0px"
	 viewBox="0 0 283.46 283.46" style="enable-background:new 0 0 283.46 283.46;" xml:space="preserve">
<style type="text/css">
	.st0{fill:#F8D0B4;}
	.st1{fill:#F5AA90;}
	.st2{fill:#AA6A53;}
	.st3{fill:#854D26;}
	.st4{fill:#9D7152;}
	.st5{fill:#5B2D17;}
	.st6{fill:#2E190F;}
	.st7{fill:none;}
	.st8{fill:#FCECE1;}
	.st9{fill:#010101;}
	.st10{fill:#FFFFFF;}
	.st11{fill:#CDCCCC;}
	.st12{fill:#4386C6;}
	.st13{fill:#295EA9;}
	.st14{fill:#223975;}
	.st15{fill:#69140F;}
	.st16{fill:#280D0E;}
	.st17{fill:#676767;}
	.st18{fill:#874332;}
	.st19{fill:#A42D2B;}
	.st20{fill:#F29079;}
	.st21{fill:#DF705A;}
	.st22{fill:#FAD2CA;}
	.st23{fill:#F0847D;}
	.st24{fill:#ED6964;}
	.st25{fill:#A13834;}
</style>
<g>
	<g>
		<g>
			<path class="st0" d="M55.01,230.7c0,0-1.2,10.71,7.38,10.34c1.59,1.38,3.68,1.88,5.18,0.23c4.99,1.99,6.15-0.18,7.73-1.18
				c1.6-1.02,3.48-1.76,4.84-3.47c1.55-1.95,2.54-9.11-4.01-9.65c-4.21-3.57-0.35-12.18-8.2-14.49
				C66.52,214.94,55.01,230.7,55.01,230.7z"/>
			<path class="st1" d="M80.03,228.73c1.73,5.41-2.97,7.31-5.3,9.14c-1.79,1.4-2.95,2.37-4.94,2.33c-0.99-0.02-3.32-0.47-4.12-3.19
				c-1.69,3.74-3.88,2.58-4.32,0.28c-1.23,2.31-3.84,1.16-5.83-1.17c0.79,2.59,2.64,5.1,6.88,4.92c1.59,1.38,3.68,1.88,5.18,0.23
				c4.99,1.99,6.15-0.18,7.73-1.18c1.6-1.02,3.48-1.76,4.84-3.47C81.25,235.21,82.07,231.13,80.03,228.73z"/>
			<path class="st1" d="M72.73,227.16c0.87,1.45,4.02,3.34,2.2,6.06c-0.58,0.87-2.38,0.95-3.59-0.35c0.7,1.19,1.81,2.34,2.54,2.58
				c2.62,0.86,3.78-3.04,3.32-5.15c-0.45-2.05-0.9-3.02-1.38-3.64c-3.69-3.73-0.24-11.95-7.88-14.19c-0.27,0.47-0.87,3.28-1.72,4.51
				C70.05,217.14,70.69,223.76,72.73,227.16z"/>
			<path class="st2" d="M65.33,242.5c-0.98,0-2.05-0.45-3.01-1.26c-0.12,0-0.24,0.01-0.36,0.01h0c-2.11,0-3.8-0.69-5.01-2.05
				c-2.71-3.04-2.16-8.3-2.13-8.52l0.01-0.05l0.03-0.04c0.12-0.16,11.52-15.77,12.92-18.21l0.08-0.14l0.15,0.04
				c4.74,1.39,5.31,4.99,5.87,8.48c0.37,2.36,0.73,4.58,2.36,6.01c2.93,0.26,4.2,1.83,4.75,3.1c1.05,2.41,0.31,5.62-0.67,6.86
				c-1.04,1.3-2.36,2.05-3.63,2.78c-0.44,0.25-0.85,0.48-1.26,0.74c-0.26,0.17-0.52,0.37-0.78,0.58c-0.85,0.68-1.81,1.44-3.53,1.44
				c-1,0-2.13-0.25-3.47-0.77C66.98,242.16,66.2,242.5,65.33,242.5z M62.46,240.83l0.06,0.05c0.91,0.78,1.91,1.22,2.81,1.22
				c0.8,0,1.5-0.33,2.09-0.97l0.09-0.1l0.13,0.05c1.35,0.54,2.47,0.8,3.45,0.8c1.58,0,2.45-0.69,3.28-1.36
				c0.28-0.22,0.54-0.43,0.82-0.61c0.41-0.26,0.85-0.51,1.27-0.75c1.24-0.7,2.53-1.43,3.52-2.68c0.92-1.16,1.6-4.18,0.62-6.46
				c-0.75-1.72-2.25-2.68-4.48-2.87l-0.06-0.01L76,227.11c-1.78-1.52-2.15-3.83-2.54-6.29c-0.53-3.32-1.07-6.76-5.43-8.11
				c-1.67,2.78-12.04,16.98-12.83,18.06c-0.05,0.55-0.42,5.41,2.04,8.16c1.14,1.27,2.72,1.92,4.71,1.92h0c0.14,0,0.28,0,0.43-0.01
				L62.46,240.83z"/>
		</g>
		<g>
			<path class="st2" d="M74.57,235.72c-0.27,0-0.54-0.05-0.81-0.16c-1.46-0.57-2.7-2.56-3.49-4.45c-0.31-0.73-0.32-2.16-0.32-2.16
				c0.67,2.54,2.28,5.59,3.95,6.24c0.57,0.22,1.12,0.16,1.65-0.19c3.27-2.11,0.32-7.99,0.29-8.05l0.36-0.18
				c0.13,0.25,3.15,6.26-0.43,8.57C75.38,235.59,74.98,235.72,74.57,235.72z"/>
		</g>
	</g>
	<g>
		<path class="st3" d="M181.88,164.68c20.29,0,30.28-18.68,30.51-35.73c0.27-19.89-33.71-69.09-10.88-92.42
			c9.95-10.17,23.44-9.56,26.04-4.11c5.87,12.35-10.09,11.28-15.42,18.63c-14.82,20.43,9.01,51.54,12.62,67.29
			c3.7,16.18-0.4,52.62-38.75,53.67C185.18,170.42,181.88,164.68,181.88,164.68z"/>
		<path class="st4" d="M214.5,128.98c-0.07-12.82-13.84-38.47-17.52-61.84c-2.89-18.41,6.66-39.99,29.16-36.54
			c-9.15-5.42-19.98,1.16-24.63,5.92c-22.83,23.33,11.15,72.52,10.88,92.42c-0.22,16.05-9.09,33.56-27.07,35.54
			C204.44,167.2,214.6,146.17,214.5,128.98z"/>
		<path class="st5" d="M227.54,32.43c-0.11-0.23-0.25-0.46-0.4-0.67c2.75,8.62-14.31,8.28-20.94,17.72
			c-13.92,19.83,9.81,52.29,13.5,66.69c5.65,22.05-3.16,55.68-36.12,52.14c0.99,1.74,1.95,2.84,2.39,3.71
			c38.35-1.05,42.45-37.5,38.75-53.67c-3.6-15.75-27.44-46.86-12.62-67.29C217.45,43.7,233.42,44.78,227.54,32.43z"/>
		<path class="st6" d="M185.86,172.22l-0.06-0.11c-0.79-1.58-4.07-7.27-4.1-7.33l-0.17-0.3h0.35c19.59,0,30.07-17.87,30.31-35.53
			c0.09-6.54-3.51-16.15-7.67-27.28c-8.26-22.08-18.53-49.57-3.16-65.27c4.93-5.04,11.5-8.05,17.57-8.05c4.25,0,7.61,1.53,8.78,3.99
			c1.32,2.77,1.63,5.03,0.95,6.92c-1.08,3-4.46,4.59-8.05,6.27c-3.17,1.49-6.45,3.02-8.34,5.64c-10.6,14.61-1.32,34.67,6.14,50.8
			c2.95,6.38,5.5,11.9,6.51,16.33c2.51,10.96,1.08,28.07-7.97,39.75c-7,9.03-17.42,13.8-30.98,14.17L185.86,172.22z M182.22,164.87
			c0.67,1.17,3.12,5.44,3.88,6.94c13.37-0.4,23.65-5.11,30.54-14.01c8.97-11.58,10.38-28.55,7.89-39.41
			c-1.01-4.39-3.55-9.89-6.49-16.25c-7.5-16.22-16.83-36.4-6.1-51.2c1.96-2.7,5.28-4.26,8.5-5.77c3.51-1.64,6.82-3.2,7.84-6.04
			c0.64-1.78,0.33-3.95-0.94-6.61c-1.1-2.32-4.33-3.77-8.42-3.77c-5.97,0-12.43,2.96-17.29,7.93c-15.19,15.52-4.97,42.88,3.25,64.85
			c4.17,11.17,7.78,20.81,7.69,27.43C212.35,146.7,201.85,164.67,182.22,164.87z"/>
	</g>
	<g>
		<path class="st3" d="M104.44,117.68c0,0-0.27,7.88,0,9.41c-18.16,5.41-4.94,42.39-9.48,52.67c-10.81,3.07-35.92,23.3-38.99,30.71
			c-2.86,6.91-0.07,13.95-1,20.49c-0.46,3.19,6.09,3.89,8.34,0.33c1.72-2.71,5.81-12.62,4.71-18.43
			c9.11-5.31,37.22-16.21,39.35-18.88c-2.87-0.18-4.94-1.62-4.94-1.62s7.54-0.83,9.81-7.18c-3.2,2.54-6.34,1.97-6.34,1.97
			s5.27-3.19,6.53-8.04c-3.35,1.9-5.46,1.24-5.46,1.24s5.31-3.59,5.51-12.35c9.85,8.41,11.82,23.53,17.12,25.23
			c12.32,1.1,46.13-1.07,51.6-3.34c8.55-7.08,9.35-23.23-2.27-32.04c-11.62-8.81-27.64-5.61-38.22-25.5
			c-0.3-5.21-3.6-14.21-20.93-10.55c-0.2-1.2-1.9-6.63-1.9-6.63L104.44,117.68z"/>
		<path class="st4" d="M102.97,150.61c0,0-0.56-8.46,0.75-10.99c0.18,1.42-0.1,8.45,0.41,9.77
			C103.92,149.67,102.97,150.61,102.97,150.61z"/>
		<path class="st5" d="M102.97,149.75c-0.66-1.25,0.28-8.65,0.75-10.13c-1.6,4.01-3.95,9.31-2.05,15.66
			c3.2,10.7,10.6,18.17,0.43,26.19c1.37,1.1,4.87,1.76,4.87,1.76s-2.4,2.86-7.84,4.39c1.9,1.7,4.34,2.17,4.34,2.17
			s-4.43,1.82-9.31,1.29c1.43,2.53,5.16,3.51,5.16,3.51c-4.31,3.58-28.74,11.11-34.8,15.42c0.1,12.57-3.6,24.78-8.27,23.17
			c1.94,1.01,5.52,0.57,7.07-1.87c1.72-2.71,5.81-12.62,4.71-18.43c9.11-5.31,37.22-16.21,39.35-18.88
			c-2.87-0.18-4.94-1.62-4.94-1.62s7.54-0.83,9.81-7.18c-3.2,2.54-6.34,1.97-6.34,1.97s5.27-3.19,6.53-8.04
			c-3.35,1.9-5.46,1.24-5.46,1.24s5.31-3.59,5.51-12.35c0.82,0.7,1.57,1.44,2.29,2.22C113.3,161.64,106.39,157.73,102.97,149.75z"/>
		<path class="st4" d="M57.91,210.54c2.2-4.94,26.05-25.01,38.52-29.37c6.34-4.01-8.48-49.47,11.02-54.01
			c-3.15-0.93-6.85,1.82-7.47,2.36c-11.3,9.93-0.93,40.97-5.03,50.25c-10.81,3.07-35.92,23.3-38.99,30.71
			c-2.72,6.57-0.34,13.25-0.89,19.51C57.64,227.83,54.68,217.78,57.91,210.54z"/>
		<path class="st5" d="M178.94,157.87c-11.62-8.81-27.64-5.61-38.22-25.5c-0.3-5.21-3.6-14.21-20.93-10.55
			c-0.2-1.2-1.9-6.63-1.9-6.63l-13.45,2.49c0,0-0.08,2.42-0.11,4.84c3.2,1.07,10.69-1.07,11.47,1.06
			c8.01-3.6,21.82,9.02,25.61,15.95c9.08,16.57,30.15,19.51,36.06,27.68c4.1,5.68,0.69,22.45-1.46,23.86
			c2.42-0.37,4.24-0.77,5.2-1.16C189.76,182.83,190.56,166.68,178.94,157.87z"/>
		<path class="st6" d="M58.56,233.88L58.56,233.88c-1.4,0-2.63-0.45-3.28-1.2c-0.42-0.49-0.6-1.09-0.5-1.74
			c0.37-2.56,0.16-5.16-0.06-7.91c-0.33-4.14-0.67-8.41,1.08-12.64c1.44-3.47,7.97-10.17,16.65-17.06
			c6.95-5.53,16.46-12.02,22.38-13.74c1.52-3.58,0.92-10.57,0.29-17.96c-1.19-13.83-2.66-31.02,9.11-34.69
			c-0.23-1.87,0.01-8.97,0.02-9.28l0.01-0.16l13.78-2.55l0.05,0.17c0.07,0.21,1.55,4.95,1.87,6.45c2.62-0.54,5.03-0.82,7.19-0.82
			c11.78,0,13.56,8.04,13.78,11.54c6.82,12.8,15.87,15.95,24.63,19c4.84,1.69,9.4,3.28,13.51,6.39c5.44,4.12,8.64,10.33,8.78,17.03
			c0.13,6.12-2.3,11.85-6.5,15.33l-0.05,0.03c-4.53,1.88-28.04,3.65-42.96,3.65c-3.6,0-6.54-0.1-8.74-0.3l-0.04-0.01
			c-2.56-0.82-4.3-4.52-6.51-9.21c-2.38-5.07-5.34-11.34-10.37-15.79c-0.3,7.14-4.03,10.81-5.22,11.81
			c0.77,0.09,2.51,0.05,4.89-1.29l0.41-0.23l-0.12,0.46c-1.04,4.05-4.77,6.92-6.12,7.84c1.01,0.03,3.29-0.13,5.62-1.98l0.55-0.43
			l-0.24,0.66c-1.93,5.38-7.63,6.88-9.43,7.22c0.75,0.42,2.38,1.18,4.38,1.31l0.38,0.02l-0.24,0.3c-1.18,1.47-9.83,5.29-19,9.33
			c-7.89,3.48-16.04,7.07-20.29,9.53c1.03,5.93-3.02,15.69-4.76,18.43C62.33,233.23,60.18,233.88,58.56,233.88z M104.63,117.84
			c-0.04,1.13-0.24,7.83,0,9.21l0.03,0.18l-0.17,0.05c-11.64,3.47-10.23,19.86-8.99,34.32c0.67,7.83,1.25,14.59-0.36,18.24
			l-0.04,0.09l-0.09,0.03c-11.04,3.14-35.93,23.54-38.86,30.59c-1.71,4.14-1.38,8.36-1.05,12.45c0.21,2.65,0.43,5.39,0.06,7.99
			c-0.08,0.54,0.06,1.02,0.41,1.42c0.58,0.67,1.69,1.06,2.98,1.06h0c1.52,0,3.52-0.6,4.59-2.28c1.88-2.96,5.73-12.75,4.68-18.28
			l-0.03-0.14l0.12-0.07c4.23-2.47,12.48-6.1,20.45-9.62c8.55-3.77,16.66-7.34,18.55-8.92c-2.66-0.29-4.52-1.56-4.6-1.62l-0.44-0.3
			l0.53-0.06c0.07-0.01,6.92-0.83,9.39-6.4c-2.07,1.42-4.04,1.65-5.09,1.65c-0.52,0-0.83-0.06-0.84-0.06l-0.52-0.09l0.45-0.27
			c0.05-0.03,4.89-3,6.3-7.47c-3.16,1.65-5.16,1.03-5.19,1.02l-0.39-0.12l0.34-0.23c0.05-0.04,5.22-3.64,5.42-12.19l0.01-0.42
			l0.32,0.27c5.28,4.51,8.33,10.99,10.79,16.2c2.16,4.58,3.87,8.21,6.25,8.99c2.18,0.19,5.11,0.29,8.68,0.29
			c14.85,0,38.21-1.75,42.78-3.61c4.1-3.4,6.46-9.01,6.34-15c-0.14-6.57-3.28-12.67-8.62-16.72c-4.06-3.08-8.6-4.66-13.4-6.33
			c-8.84-3.08-17.97-6.26-24.87-19.23l-0.02-0.08c-0.19-3.37-1.89-11.21-13.38-11.21c-2.18,0-4.64,0.29-7.31,0.85l-0.2,0.04
			l-0.03-0.21c-0.18-1.06-1.55-5.51-1.84-6.43L104.63,117.84z"/>
	</g>
	<g>
		<g>
			<g>
				<path class="st0" d="M99.1,229.46c0,0-11.6,0-12.08,7.56c-1.47,1.62-2.77,5.59,2.84,5.49c0,1.9,2.3,5.16,8.71,2.75
					c3-1.5,20.25-5.48,21.74-5.98c2.08,0.1,11.06-0.53,12.01-3.43c0.95-2.9-1.45-7.64-2.65-7.68
					C126.45,229.15,99.1,229.46,99.1,229.46z"/>
				<path class="st1" d="M87.22,237.04c-1.71,1.36-2,4.45,0.34,5.2c0.42-0.12,2.37,0.26,2.37,0.26c0.57-1.35,1.76-2.71,4.48-3.62
					c1.2-0.4,2.44-0.81,3.93-1.01C92.81,235.38,85.55,242,87.22,237.04z"/>
				<path class="st1" d="M89.13,232.77c-1.5,0.95-1.66,2.08-2.09,4c2.82-1.54,5.66-3.34,8.94-2.74
					C92.68,231.61,88.41,234.88,89.13,232.77z"/>
				<path class="st1" d="M129.66,228.18c-0.69,0.21-2.52,0.39-4.95,0.54c6.25,9.34-7.43,7.81-10.72,8.47
					c-1.57,0.45-13.67,3.94-14.25,4.16c-2.1,0.81-8.05,3.86-9.88,1.32c0.12,1.92,2.46,4.95,8.71,2.6c3-1.5,20.25-5.48,21.74-5.98
					c2.08,0.1,11.06-0.53,12.01-3.43C133.26,232.95,130.86,228.21,129.66,228.18z"/>
				<path class="st2" d="M94.48,246.32c-3.36,0-4.7-2.13-4.82-3.6l-0.01,0c-2.09,0-3.4-0.57-3.89-1.69
					c-0.62-1.41,0.28-3.19,1.07-4.08c0.56-7.59,12.16-7.68,12.28-7.68c0.27,0,27.36-0.33,30.5-1.28l0.03-0.01l0.03,0
					c0.5,0.01,1.01,0.59,1.35,1.08c1.06,1.5,2.22,4.63,1.49,6.86c-0.97,2.97-9.5,3.58-11.73,3.58c-0.17,0-0.32,0-0.44-0.01
					c-0.51,0.16-2.28,0.61-4.72,1.21c-5.56,1.38-14.87,3.7-16.95,4.75C97.11,246.03,95.71,246.32,94.48,246.32z M90.05,242.31v0.2
					c0,1.32,1.2,3.4,4.43,3.4c1.18,0,2.53-0.28,4.02-0.84c2.11-1.06,11.08-3.29,17.02-4.77c2.4-0.6,4.29-1.07,4.72-1.22l0.04-0.01
					l0.04,0c0.13,0.01,0.28,0.01,0.46,0.01c3.22,0,10.54-0.83,11.35-3.3c0.68-2.08-0.45-5.11-1.43-6.51
					c-0.38-0.54-0.75-0.88-1.01-0.91c-3.35,0.96-29.46,1.27-30.58,1.28c-0.12,0-11.42,0.09-11.89,7.38l0,0.07l-0.05,0.05
					c-0.87,0.96-1.54,2.59-1.04,3.7c0.42,0.95,1.64,1.45,3.53,1.45L90.05,242.31z"/>
			</g>
			<g>
				<path class="st2" d="M87.13,237.19l-0.24-0.32c2.63-1.94,5.05-2.74,6.72-3.07c1.37-0.27,2.28,0.19,2.28,0.19
					C95.86,233.98,91.79,233.75,87.13,237.19z"/>
			</g>
			<g>
				<path class="st2" d="M90.03,242.61l-0.35-0.19c2.13-4.05,8.26-4.76,8.52-4.79l0.04,0.4C98.18,238.04,92.06,238.75,90.03,242.61z
					"/>
			</g>
		</g>
		<g>
			<path class="st3" d="M127.2,182.1c-5.5,0.66-16.89,8.62-19.43,15.69c-2.06,5.74,9.22,26.04,10.15,29.11
				c-2,0.93-7.69-0.15-7.69,2.05c1.79,5.87,16.77,6.38,20.11,1.62c2.2-3.14-3.71-12.28,0.6-19.83c1.74-9.35,0.6-26.76,0.6-26.76
				L127.2,182.1z"/>
			<path class="st4" d="M109.28,198.39c0.69-5.42,10.02-11.11,13.59-14.99c-6.88,3.52-13.37,9.58-15.09,14.38
				c-2.06,5.74,9.22,26.04,10.15,29.11c-2,0.93-7.89-0.38-7.89,1.82c0.1,0.32,1.51-0.43,1.68-0.14c2.88-0.04,4.98-0.33,7.15-0.25
				C117.68,217.22,108.3,206.13,109.28,198.39z"/>
			<path class="st5" d="M131.54,183.98c0,0-3.52,0.67-4.91,1.28c-12.34,9.22-4.72,21.68-1.81,27.52c-2.91,7.16,2.78,12.52,0.52,16.6
				c-1.61,2.9-5.69,3.14-12.21,2.69c5,2.71,14.62,2.2,17.22-1.51c2.2-3.14-3.71-12.28,0.6-19.83
				C132.68,201.39,131.54,183.98,131.54,183.98z"/>
			<path class="st6" d="M121.03,233.98C121.03,233.98,121.03,233.98,121.03,233.98c-4.71,0-9.94-1.54-10.99-4.98l-0.01-0.06
				c0-1.55,2.29-1.66,4.5-1.77c1.18-0.06,2.39-0.11,3.14-0.4c-0.3-0.84-1.14-2.62-2.2-4.82c-3.54-7.42-9.47-19.85-7.9-24.24
				c2.61-7.26,14.13-15.16,19.6-15.82l0.05-0.01l4.5,1.95l0.01,0.12c0.01,0.17,1.12,17.54-0.6,26.81l-0.02,0.06
				c-2.5,4.38-1.5,9.33-0.7,13.31c0.58,2.89,1.04,5.18,0.09,6.54C129.08,232.72,125.44,233.98,121.03,233.98z M110.43,228.92
				c1.01,3.22,6.05,4.67,10.6,4.67h0c4.29,0,7.79-1.2,9.15-3.13c0.86-1.22,0.39-3.54-0.16-6.23c-0.81-4.03-1.83-9.05,0.73-13.56
				c1.63-8.81,0.7-24.98,0.6-26.55l-4.18-1.81c-5.4,0.69-16.66,8.44-19.21,15.55c-1.52,4.23,4.59,17.05,7.88,23.93
				c1.18,2.48,2.04,4.27,2.27,5.05l0.05,0.17l-0.16,0.07c-0.8,0.37-2.09,0.44-3.46,0.5C112.54,227.67,110.47,227.77,110.43,228.92z"
				/>
		</g>
	</g>
	<g>
		<g>
			<path class="st7" d="M105.91,187.17c0,0,3.04,0.54,6.19-1.86l-0.98-3.23C109.11,185.24,105.91,187.17,105.91,187.17z"/>
		</g>
		<g>
			<path class="st7" d="M106.98,180.36c0,0,1.31,0.41,3.51-0.35l-0.79-2.6C108.33,179.45,106.98,180.36,106.98,180.36z"/>
		</g>
		<g>
			<path class="st0" d="M124.82,145.29c-12.05-9.73-19.74-1.31-21.84,4.8c0,0,1.45,11.27,9.51,17.92
				c9.85,8.41,11.82,23.53,17.12,25.23c6.69,0.6,19.7,0.23,31.08-0.59c1.17-5,2.37-10.49,2.56-12.83
				C162.25,172.82,129.67,154.19,124.82,145.29z"/>
			<path class="st8" d="M103.83,148.08c-0.35,0.68-0.64,1.36-0.86,2.01c0,0,1.45,11.27,9.51,17.92
				c9.85,8.41,11.82,23.53,17.12,25.23c0.25,0.02,2.73,0.04,3,0.06c-5.96-2.65-9.88-17.56-16.47-24.76
				c-1.14-1.25-5.06-4.27-7.36-7.58C106.8,158.12,103.63,151.19,103.83,148.08z"/>
			<path class="st1" d="M123.38,175.64c2.59-3.15,6.56-4.66,10.71-3.54c-1.58-1.64-3.26-1.66-6.4-1.08
				C126.08,171.32,123.86,174.26,123.38,175.64z"/>
			<g>
				<path class="st2" d="M123.38,175.64c0,0,0.01-0.94,0.71-1.86c1.47-1.92,4.45-4.58,8.84-2.82l-0.15,0.37
					C126.65,168.88,123.41,175.57,123.38,175.64z"/>
			</g>
			<g>
				<path class="st6" d="M102.89,150.85c-0.57-3.18-0.29-6.66,0.02-8.91c0.2-1.45,0.81-2.32,0.81-2.32
					c-0.01,0.06-1.36,6.01-0.43,11.16L102.89,150.85z"/>
			</g>
			<path class="st2" d="M138.33,193.74C138.33,193.74,138.33,193.74,138.33,193.74c-3.6,0-6.54-0.1-8.74-0.3l-0.04-0.01
				c-2.56-0.82-4.3-4.52-6.51-9.21c-2.43-5.17-5.46-11.61-10.68-16.06c-8.03-6.63-9.57-17.94-9.58-18.05l-0.01-0.05l0.02-0.04
				c1.61-4.67,5.82-9.37,11.6-9.37c3.32,0,6.88,1.51,10.56,4.48l0.05,0.06c2.3,4.22,11.02,10.74,19.45,17.05
				c9.5,7.11,18.48,13.82,19.01,17.56l0,0.02l0,0.02c-0.16,1.96-1.03,6.29-2.57,12.86l-0.03,0.14l-0.15,0.01
				C152.91,193.42,144.75,193.74,138.33,193.74z M129.65,193.05c2.18,0.19,5.11,0.29,8.68,0.29c6.37,0,14.46-0.32,22.2-0.88
				c1.49-6.35,2.36-10.72,2.52-12.63c-0.55-3.58-9.85-10.54-18.85-17.28c-8.44-6.32-17.17-12.85-19.54-17.14
				c-3.6-2.9-7.06-4.37-10.28-4.37c-5.57,0-9.63,4.54-11.2,9.06c0.11,0.79,1.79,11.43,9.44,17.75c5.29,4.52,8.34,10.99,10.79,16.2
				C125.56,188.64,127.27,192.27,129.65,193.05z"/>
		</g>
		<g>
			<path class="st9" d="M112.12,186.08l-0.26-0.84l0.18-0.14c0.03-0.02,0.05-0.04,0.08-0.06l0.55-0.44l-0.24,0.66
				c-0.02,0.06-0.05,0.12-0.07,0.18L112.12,186.08z"/>
		</g>
	</g>
	<g>
		<g>
			<path class="st0" d="M98.06,235.6c-1.51,6.96-0.81,17.97,7.69,18.18c1.13,1.4,5.58,2,7.5-1.19c2.14,0.87,8.32,1.12,10.08-3.54
				c1.72-4.54,0.27-13.95-6.74-10.21c-2.6-2.09-0.7-11.46-5.61-13.75C108.71,228.76,98.06,235.6,98.06,235.6z"/>
			<path class="st1" d="M121.71,238.72c1.2,3.66,0.11,12.3-4.61,10.15c2.91-2.84-2.44-7.52-0.57-10.08
				c-2.51-2.19-0.68-11.42-5.55-13.7c-0.52,0.84-1.48,1.85-2.66,2.91c0.49,0.64,1.16,6.25,1.65,6.98c5.15,6.5,4.8,15.12,0.48,13.48
				c0.45,3.49-3.57,5.3-5.87,0.9c-1.15,2.5-4.83,0.94-6.46-2.3c1.03,3.72,3.33,6.61,7.64,6.72c1.13,1.4,5.58,2,7.5-1.19
				c2.14,0.87,8.32,1.12,10.08-3.54C124.35,246.36,124.47,240.88,121.71,238.72z"/>
			<path class="st2" d="M108.91,255.12C108.91,255.12,108.91,255.12,108.91,255.12c-1.35,0-2.65-0.45-3.26-1.14
				c-2.44-0.08-4.39-1.05-5.82-2.86c-3.09-3.93-2.99-10.84-1.97-15.56l0.02-0.08l0.07-0.04c0.11-0.07,10.64-6.86,12.86-10.45
				l0.09-0.15l0.16,0.08c2.97,1.39,3.52,5.21,4,8.57c0.31,2.18,0.61,4.25,1.55,5.12c1.05-0.54,2.03-0.82,2.91-0.82
				c1.31,0,2.44,0.62,3.25,1.79c1.74,2.52,1.74,6.92,0.74,9.55c-1.43,3.77-5.48,4.17-7.15,4.17c-1.12,0-2.24-0.17-3.03-0.46
				C112.39,254.29,110.79,255.12,108.91,255.12z M98.24,235.73c-1.06,4.99-0.89,11.59,1.91,15.14c1.37,1.74,3.25,2.65,5.61,2.71
				l0.09,0l0.06,0.07c0.51,0.62,1.74,1.06,3.01,1.06h0c1.8,0,3.32-0.81,4.17-2.23l0.09-0.15l0.16,0.06
				c0.75,0.31,1.89,0.49,3.04,0.49c1.59,0,5.44-0.38,6.78-3.91c0.97-2.55,0.92-6.85-0.7-9.18c-1.27-1.84-3.27-2.12-5.76-0.79
				l-0.12,0.06l-0.1-0.08c-1.14-0.92-1.44-3.02-1.8-5.46c-0.46-3.2-0.98-6.83-3.62-8.19C108.68,228.93,99.23,235.09,98.24,235.73z"
				/>
		</g>
		<g>
			<path class="st2" d="M117.1,248.87c1.42-2.2,0.53-4-0.32-5.74c-0.75-1.52-1.46-2.96-0.34-4.41l0.32,0.25
				c-0.96,1.24-0.34,2.51,0.38,3.98c0.67,1.36,1.41,2.87,0.99,4.59C118,248.03,117.1,248.87,117.1,248.87z"/>
		</g>
		<g>
			<path class="st2" d="M117.84,244.59l-0.25,0.31c1.8,1.48,2.33,2.96,2.47,3.9c0,0,0.17-1.16-0.19-1.84
				C119.46,246.23,118.83,245.41,117.84,244.59z"/>
		</g>
		<g>
			<path class="st2" d="M113.37,252.85c-1.15-0.49-1.99-1.6-2.54-2.57c-0.5-0.88-0.39-1.82-0.39-1.82c0.01,0.03,1.05,3.16,3.08,4.02
				L113.37,252.85z"/>
		</g>
		<g>
			<path class="st2" d="M105.64,253.96c-0.71-0.94-1.07-1.99-1.26-2.84c-0.22-0.98,0.2-1.76,0.2-1.76c0,0.02-0.05,2.44,1.39,4.36
				L105.64,253.96z"/>
		</g>
	</g>
	<g>
		<g>
			<g>
				<g>
					<path class="st0" d="M149.71,229.94c0,0-8.42,2.18-12.09,4.36c-3.67,2.19-6.41,6.41-4.41,8.41c-0.47,0.93-2.87,6.26,7.34,4.6
						c3.67,4.37,10.28-0.94,14.94-2.24c4.66-1.3,18.38-1.55,24.23-6.12c2.98-2.32,0.75-9.05-2.2-11.81
						C174.92,228.1,149.71,229.94,149.71,229.94z"/>
					<path class="st1" d="M133.04,243.08c-1.1,3.04,0,5.51,7.43,4.15c0.07-1.89,0.66-2.42,1.58-4.03c1.02-1.77,6.39-4.33,8.55-4.44
						C141.65,237.15,134.76,248.16,133.04,243.08z"/>
					<path class="st1" d="M143.78,236.05c-5.87-1.16-11.03,5.3-10.15,1.98c-1.11,1.66-1.44,3.61-0.53,4.74
						C136.24,239.41,140.38,236.73,143.78,236.05z"/>
					<path class="st1" d="M177.52,227.14c-0.56,0.2-2.17,0.45-4.35,0.71c2.86,3.85,4.33,7.09,2.35,9.89
						c-2.12,3-15.8,2.89-21.43,4.78c-3.85,1.29-7.91,6.6-13.79,4.51c4.18,5.15,10.71-0.72,15.19-1.97
						c4.66-1.3,18.38-1.55,24.23-6.12C182.71,236.63,180.48,229.9,177.52,227.14z"/>
					<path class="st2" d="M144.25,249.2c-1.55,0-2.79-0.55-3.77-1.68c-1.27,0.2-2.41,0.31-3.38,0.31c0,0,0,0,0,0
						c-2.21,0-3.65-0.53-4.29-1.57c-0.75-1.21-0.18-2.78,0.17-3.51c-0.51-0.57-0.72-1.32-0.61-2.18c0.26-2.11,2.43-4.81,5.15-6.44
						c3.65-2.18,12.06-4.36,12.14-4.39c0.29-0.02,25.25-1.86,27.8-2.79l0.12-0.04l0.09,0.08c2.19,2.04,3.8,5.9,3.67,8.79
						c-0.06,1.47-0.58,2.62-1.48,3.32c-4.16,3.24-12.29,4.34-18.22,5.14c-2.53,0.34-4.71,0.63-6.08,1.02
						c-1.25,0.35-2.64,0.99-4.1,1.66C149.01,248.05,146.5,249.2,144.25,249.2z M140.64,247.09l0.07,0.09
						c0.92,1.09,2.08,1.62,3.54,1.62c2.16,0,4.63-1.14,7.03-2.24c1.48-0.68,2.88-1.33,4.16-1.69c1.4-0.39,3.59-0.69,6.13-1.03
						c5.89-0.79,13.96-1.88,18.03-5.06c0.81-0.63,1.27-1.68,1.33-3.02c0.12-2.7-1.43-6.44-3.46-8.4
						c-3.14,0.96-26.73,2.69-27.75,2.77c-0.05,0.02-8.39,2.19-12,4.34c-2.63,1.57-4.71,4.15-4.96,6.14c-0.1,0.8,0.1,1.46,0.59,1.96
						l0.1,0.1l-0.06,0.13c-0.3,0.61-0.93,2.14-0.25,3.25c0.56,0.91,1.89,1.38,3.95,1.38c0,0,0,0,0,0c0.98,0,2.13-0.11,3.42-0.32
						L140.64,247.09z"/>
				</g>
				<g>
					<path class="st2" d="M140.36,247.36c-0.24-1,0.08-2.17,0.91-3.39c1.47-2.15,4.36-4.15,7.18-5.1c0.72-0.24,2.16-0.11,2.16-0.11
						c-3.26,0.44-7.22,2.82-9.01,5.44c-0.77,1.12-1.06,2.18-0.85,3.07L140.36,247.36z"/>
				</g>
				<g>
					<path class="st2" d="M133.38,242.83l-0.33-0.22c2.27-3.4,6.73-5.49,9.09-6.4c0.87-0.34,1.65-0.16,1.65-0.16
						C143.71,236.07,136.41,238.3,133.38,242.83z"/>
				</g>
			</g>
			<g>
				<path class="st3" d="M163.55,206.87c5.31-3.3,24.91-15.34,24.06-32.35l-13.76-3.5c-13.95,3.62-15.95,11.48-22.81,21.64
					c-2.84,4.21-2.18,4.7-3.47,9.81c-3.49,3.21-3.99,6.96-1.64,10.97c2.98,5.07,11.59,11.87,16.46,14.4
					c-3.47,0.4-15.02,0.13-14.55,5.14c0.6,6.41,28.14,4.93,31.04-2.34c0.93-2.34-4.23-7.83-8.48-13.49
					C166.75,212.3,166.52,208.87,163.55,206.87z"/>
				<path class="st5" d="M163.55,206.87c5.31-3.3,24.91-15.34,24.06-32.35l-8.43-2.22c2.15,15.09-14.33,30.51-22.84,33.22
					c4.98,1.73,6.57,7.98,9.72,12.84c2.64,4.07,9.14,7.88,7.34,12.42c-1.34,3.37-4.54,4.32-11.11,6.17
					c7.38-0.45,15.12-2.64,16.59-6.31c0.93-2.34-4.23-7.83-8.48-13.49C166.75,212.3,166.52,208.87,163.55,206.87z"/>
				<path class="st4" d="M166.34,229.38c-6.41-4.54-19.6-12.7-20.24-19.94c-0.32-3.65,2.71-5.97,3.44-8.88
					c2.4-3.41,9.63-24.92,24.32-29.55c-4.73,0.7-7.86,2.84-9.21,3.77c-6.23,4.26-8.63,10.51-13.6,17.87
					c-2.84,4.21-2.18,4.7-3.47,9.81c-3.49,3.21-3.99,6.96-1.64,10.97c2.98,5.07,11.59,11.87,16.46,14.4
					c-2.6,0.3-9.75,0.23-12.97,2.28C155.51,228.59,160.4,229.18,166.34,229.38z"/>
				<path class="st6" d="M159.39,237.22c-1.77,0-3.45-0.11-4.94-0.32c-4.22-0.61-6.64-2-6.82-3.91c-0.08-0.84,0.16-1.58,0.7-2.22
					c2.04-2.38,7.91-2.74,11.8-2.97c0.59-0.04,1.12-0.07,1.57-0.1c-4.83-2.69-13.05-9.22-15.95-14.16
					c-2.4-4.09-1.84-7.95,1.63-11.17c0.34-1.36,0.55-2.41,0.71-3.26c0.45-2.31,0.68-3.47,2.77-6.56c1.36-2.02,2.52-3.93,3.64-5.78
					c4.03-6.66,7.29-12.06,16.17-15.2c0.95-0.34,3.17-0.54,3.17-0.54c-11.1,2.88-14.58,8.64-19,15.95c-1.12,1.86-2.28,3.78-3.65,5.8
					c-2.04,3.02-2.25,4.09-2.71,6.41c-0.17,0.86-0.38,1.94-0.73,3.34l-0.01,0.06l-0.04,0.04c-3.4,3.13-3.94,6.73-1.6,10.72
					c2.99,5.09,11.7,11.89,16.38,14.33l0.58,0.3l-0.65,0.08c-0.57,0.07-1.35,0.11-2.25,0.17c-3.59,0.22-9.6,0.59-11.52,2.84
					c-0.48,0.56-0.68,1.18-0.61,1.92c0.16,1.71,2.46,2.97,6.48,3.55c8.1,1.17,22.14-0.85,24.18-5.94c0.68-1.71-2.34-5.52-5.55-9.57
					c-0.96-1.21-1.95-2.46-2.9-3.72c-1.61-2.14-2.54-3.97-3.36-5.58c-1.01-1.99-1.81-3.56-3.44-4.65l-0.26-0.17l0.36-0.22
					c16.41-10.22,24.45-21.05,23.89-32.19l0.4-0.02c0.57,11.26-7.48,22.18-23.92,32.45c1.55,1.14,2.33,2.69,3.32,4.63
					c0.81,1.6,1.73,3.41,3.32,5.52c0.95,1.26,1.94,2.51,2.9,3.72c3.42,4.31,6.38,8.04,5.61,9.96
					C177.34,235.01,167.44,237.22,159.39,237.22z"/>
			</g>
			<g>
				<path class="st6" d="M163.35,228.48c-0.5-0.24-1.06-0.5-1.64-0.78l0.18-0.36c2.49,1.22,4.43,2.04,4.45,2.05
					C166.34,229.38,165.01,229.26,163.35,228.48z"/>
			</g>
			<g>
				<path class="st6" d="M163.73,207.24c-1.99-1.36-5-1.57-5.03-1.57c0,0,1.04-0.33,2.22-0.04c0.97,0.24,2.1,0.64,3.04,1.28
					L163.73,207.24z"/>
			</g>
		</g>
		<g>
			<path class="st3" d="M148.03,198.65c0,0,6.11-2.2,7.21-8.31c-3.84,1.71-6.21,2-6.21,2s4.51-3.44,4.11-9.11
				c-1.74,2.14-3.17,2.67-3.17,2.67c1.94-11.55-1.89-20.01-3.27-27.3c-1.4-7.41-2.99-24.65-6.21-30.64
				c-4.34-8.08-13.91-11.7-24.23-4.79l5.4,12c-1.54,12.02,14.95,38.45,14.95,51c-11.62,5.37-10.78,12.08-18.43,18.16
				c-6.67,5.3-14.15,7.54-17.69,14.42c-3,5.82-4.54,27.77,2.87,28.27c7.41,0.5,10.61-11.62,7.66-23.33
				c9.66-7.21,26.29-10.61,42.14-24.9C150.5,199.39,148.03,198.65,148.03,198.65z"/>
			<path class="st5" d="M148.03,198.65c0,0,6.11-2.2,7.21-8.31c-3.84,1.71-6.21,2-6.21,2s4.51-3.44,4.11-9.11
				c-1.74,2.14-3.17,2.67-3.17,2.67c1.94-11.55-1.89-20.01-3.27-27.3c-1.4-7.41-2.99-24.65-6.21-30.64
				c-2.46-4.58-6.83-8.23-12.32-8.56c-3.24-0.19-8.07,0.86-10.89,2.88c-0.35,0.25-1.25,1.07-1.53,1.35
				c7.46-4.25,16.42-1.71,20.04,4.96c2.96,5.45,4.05,17.23,6.1,27.55c3.02,15.22,6.9,22.28,4.1,33.78c1.2-0.4,3.45-1.07,3.45-1.07
				s-0.87,2.61-5.14,5.28c2.41,0.89,4.92,0.99,4.92,0.99s-1.13,2.64-6.89,3.16c0.17,7-28.94,21.8-35.75,20.28
				c5.81,19.09-2.4,29.65-6.84,25.51c0.84,1.74,2.03,2.86,3.63,2.97c7.41,0.5,10.61-11.62,7.66-23.33
				c9.66-7.21,26.29-10.61,42.14-24.9C150.5,199.39,148.03,198.65,148.03,198.65z"/>
			<path class="st4" d="M138.05,183.21c-0.08-10.92-15.3-38.33-16.2-47.92c-1.39,12.64,14.77,38.71,14.77,50.89
				c-11.62,5.37-10.78,12.08-18.43,18.16c-6.67,5.3-14.15,7.54-17.69,14.42c-1.48,2.88-3.81,12.99-1.76,22.6
				c0.9-5-0.72-15.65,2.95-21.87c4-6.78,13-10.22,17.71-13.74c6.43-4.81,11.08-19.51,23.36-19.49
				C141.74,184.65,139.65,184.57,138.05,183.21z"/>
			<path class="st6" d="M103.8,247.24c-0.15,0-0.3-0.01-0.45-0.02c-1.44-0.1-2.63-0.96-3.53-2.57c-3.55-6.29-1.82-21.49,0.5-26
				c2.38-4.62,6.55-7.19,10.96-9.91c2.24-1.38,4.55-2.8,6.78-4.57c3.03-2.41,4.75-4.96,6.4-7.43c2.47-3.67,5.02-7.47,11.95-10.7
				c-0.05-5.92-3.79-15.17-7.41-24.12c-3.45-8.53-7-17.3-7.56-23.58c-0.1-1.16,0.42-3.16,0.42-3.16
				c-0.77,6.12,3.44,16.52,7.51,26.58c3.66,9.05,7.44,18.4,7.44,24.4v0.13l-0.12,0.05c-6.92,3.2-9.34,6.8-11.9,10.62
				c-1.67,2.49-3.4,5.07-6.49,7.52c-2.24,1.78-4.57,3.22-6.82,4.6c-4.37,2.69-8.49,5.23-10.82,9.75c-2.5,4.85-3.73,19.91-0.5,25.62
				c0.84,1.48,1.92,2.28,3.21,2.36c2.01,0.13,3.76-0.66,5.19-2.38c3.38-4.05,4.32-12.57,2.26-20.7l-0.03-0.13l0.11-0.08
				c3.74-2.79,8.43-4.97,13.86-7.5c8.53-3.97,18.18-8.46,27.73-16.91c-2.4,0.35-4.44-0.24-4.53-0.27l-0.58-0.17l0.57-0.21
				c0.06-0.02,5.76-2.15,7.01-7.78c-3.61,1.57-5.82,1.85-5.91,1.86l-0.73,0.09l0.58-0.45c0.04-0.03,4.15-3.23,4.05-8.43
				c-1.6,1.83-2.87,2.32-2.92,2.34l-0.32,0.12l0.06-0.34c1.45-8.67-0.34-15.54-1.93-21.6c-0.52-1.97-1-3.83-1.34-5.63
				c-0.39-2.04-0.78-4.75-1.23-7.89c-1.18-8.19-2.64-18.38-4.96-22.7c-2.22-4.13-5.74-6.97-9.9-8.01
				c-4.52-1.12-9.42-0.04-14.17,3.15c0,0,0.94-1.08,1.52-1.41c4.3-2.41,8.67-3.14,12.75-2.13c4.28,1.06,7.89,3.98,10.16,8.21
				c2.35,4.38,3.82,14.61,5.01,22.83c0.45,3.14,0.84,5.84,1.22,7.87c0.34,1.79,0.82,3.64,1.34,5.61c1.57,6.01,3.35,12.82,2,21.39
				c0.51-0.28,1.56-0.98,2.76-2.45l0.32-0.39l0.04,0.51c0.32,4.5-2.43,7.65-3.63,8.8c0.96-0.21,2.88-0.71,5.46-1.86l0.35-0.15
				l-0.07,0.37c-0.91,5.04-5.21,7.48-6.77,8.22c0.88,0.17,2.63,0.41,4.46-0.01l0.75-0.17l-0.57,0.51
				c-9.77,8.8-19.65,13.4-28.37,17.46c-5.36,2.49-9.99,4.65-13.68,7.38c2.04,8.21,1.07,16.8-2.38,20.93
				C107.49,246.37,105.74,247.24,103.8,247.24z"/>
		</g>
		<g>
			<path class="st6" d="M110.91,224.05c-0.63-3-2.67-3.61-2.69-3.61c0,0,2.4,0.29,3.08,3.53L110.91,224.05z"/>
		</g>
		<g>
			<path class="st6" d="M136.68,186.36l-0.13-0.38c1.65-0.58,2.96-0.74,3.95-0.72c1.68,0.04,2.26,0.98,2.26,0.98
				C142.74,186.23,140.91,184.89,136.68,186.36z"/>
		</g>
	</g>
	<g>
		<g>
			<g>
				<g>
					<path class="st3" d="M95.86,40.66c-9.47-0.69-23.73,6.42-25.83,25.96c7.18,5.38,50.31,50.69,51.83,52.48
						c10.46,1.41,15.55-7.39,15.55-7.39s0.03,3.76-1.11,6.4c5.27-4.01,4.34-11.55,4.34-11.55s1.54,2.79,2.62,6.1
						c2.63-7.11-1.27-11.73-1.27-11.73s2.49,1.12,3.92,2.28c-0.7-5.09-1.18-6.78-3.57-9.37c1.17-3,1.88-19.33,1.9-22.39
						C144.51,56.32,124.31,30.61,95.86,40.66z"/>
					<path class="st4" d="M82.3,46.41c11.3-7.05,24.53-7.79,37.32-6.16c-6.88-2.4-14.93-2.73-23.78,0.39
						c-6.47-0.39-13.11,2.23-18.49,8.07c-3.75,4.07-6.26,10.13-7.08,16.58C72.64,59.05,76.14,49.94,82.3,46.41z"/>
					<path class="st5" d="M145.89,103.18c-0.7-5.09-1.18-6.78-3.57-9.37c1.17-3,1.88-19.33,1.9-22.39
						c0.17-9.82-8.28-24.1-22.02-30.16c21.68,10.94,11.37,52.06-1.16,47.82c-0.04,0.9,9.85,13.71,7.85,17.96
						c-2.03,4.56-7.55,7.1-12.39,6.35c3.04,3.2,5.03,5.32,5.34,5.68c10.46,1.41,15.55-7.39,15.55-7.39s0.03,3.76-1.11,6.4
						c5.27-4.01,4.34-11.55,4.34-11.55s1.54,2.79,2.62,6.1c2.63-7.11-1.27-11.73-1.27-11.73S144.46,102.03,145.89,103.18z"/>
					<path class="st6" d="M123.97,119.4c-0.7,0-1.42-0.06-2.15-0.15l-0.06-0.01l-0.04-0.05c-2.03-2.39-44.85-47.24-51.81-52.45
						l-0.07-0.06l0.01-0.09c0.91-8.47,4.24-15.45,9.61-20.17c4.37-3.84,9.92-6.02,15.23-5.98c0.38,0,0.76,0.02,1.12,0.04
						c4.35-1.53,8.71-2.29,12.95-2.26c9.35,0.06,18.35,4.05,25.34,11.21c6.36,6.52,10.39,15.16,10.27,22.01
						c-0.02,2.98-0.71,19.06-1.88,22.35c2.33,2.55,2.83,4.22,3.54,9.38l0.06,0.41l-0.32-0.26c-0.98-0.8-2.5-1.59-3.32-1.99
						c0.92,1.42,3.06,5.61,0.93,11.37l-0.16,0.44l-0.15-0.45c-0.75-2.29-1.73-4.36-2.25-5.38c0.07,2.06-0.17,7.67-4.46,10.92
						l-0.5,0.38l0.25-0.57c0.85-1.98,1.04-4.62,1.08-5.76C136.04,113.95,131.64,119.45,123.97,119.4z M121.93,118.93
						c0.69,0.09,1.37,0.14,2.04,0.14c8.83,0.06,13.24-7.39,13.28-7.46l0.3-0.52l0,0.6c0,0.14,0.01,3.31-0.9,5.88
						c4.61-3.99,3.81-10.94,3.8-11.01l-0.1-0.84l0.41,0.74c0.01,0.03,1.42,2.59,2.48,5.67c2.25-6.69-1.36-11.07-1.4-11.12
						l-0.47-0.55l0.66,0.3c0.1,0.04,2.19,0.99,3.63,2.05c-0.68-4.82-1.2-6.42-3.47-8.88l-0.07-0.08l0.04-0.1
						c1.15-2.96,1.87-19.43,1.89-22.33c0.12-6.77-3.88-15.32-10.18-21.78c-6.93-7.1-15.85-11.05-25.11-11.11
						c-4.22-0.03-8.55,0.73-12.87,2.26l-0.03,0.01l-0.03,0c-0.37-0.03-0.75-0.04-1.14-0.05c-5.23-0.04-10.71,2.11-15.01,5.9
						c-5.3,4.65-8.58,11.52-9.5,19.87C77.33,71.97,119.43,116.05,121.93,118.93z"/>
				</g>
				<g>
					<path class="st0" d="M108.68,51.1c-5.16-0.79-13.92-0.06-20,9.95c0.08-5.22-3.24-9.04-8.99-7.11
						c-7.27,2.44-14.79,17.68-9.17,34.57c-1.88,2.72,6.25,14.96,6.56,17.04c0.92,4.9-7.62,9.65,2.13,18.04
						c6.27,5.4,21.89,6.43,28.39-1.61c6.68-2.14,23.18-1.92,27.4-11.83c3.85-9.05-1.28-20.82-14.17-20.9
						C124.63,76.32,125.17,53.62,108.68,51.1z"/>
					<path class="st1" d="M76.33,112.88c-0.63,2.73,3.67,6.1,4.72,5.26c3.15-2.31,4.74-6.31,8.53-9.04
						c1.05-0.84,2.52-1.47,3.15-2.94c-3.6-1.08-6.68,1.37-9.97-0.27C79.92,107.99,77.28,109.25,76.33,112.88z"/>
					<path class="st1" d="M120.83,89.26c3.79-12.9,4.33-35.52-12.02-38.13c12.83,4.04,11.85,27.44,9.38,40.02
						c5.58-0.76,10.96,3.48,11.25,8.63c0.82,14.42-12.52,17.25-18.15,13.88c-2.04,4-14.69,18.45-34.36,7.69
						c0.61,0.72,1.36,1.47,2.27,2.25c6.27,5.4,21.89,6.43,28.39-1.61c6.68-2.14,23.18-1.92,27.4-11.83
						C138.85,101.1,133.72,89.33,120.83,89.26z"/>
					<path class="st1" d="M70.71,79.21c-1.12-2.85-0.01-12.67,3.8-13.2c4.53-0.63,4.63,9.44,3.51,12.92
						C77.15,81.64,72.04,82.58,70.71,79.21z"/>
					<path class="st9" d="M71.17,73.12l7.82-2.18c0,0-1.33-3.12-4.07-2.93C72.19,68.19,71.17,73.12,71.17,73.12z"/>
					<g>
						<path class="st10" d="M79.94,76.73c-0.19,4.42-2.39,7.92-4.9,7.81c-2.52-0.11-4.4-3.78-4.21-8.21
							c0.19-4.42,2.39-7.92,4.9-7.81C78.24,68.63,80.13,72.31,79.94,76.73z"/>
						<path class="st11" d="M71,79.23c0.53,3.03,2.09,5.23,4.03,5.31c1.82,0.08,3.48-1.74,4.33-4.43c-0.35,0.24-0.71,0.47-1.09,0.7
							C75.83,82.14,72.74,81.24,71,79.23z"/>
						<path class="st9" d="M75.13,84.71c-0.03,0-0.07,0-0.1,0c-1.28-0.06-2.44-0.97-3.26-2.57c-0.81-1.57-1.2-3.64-1.11-5.8
							c0.2-4.55,2.43-8.09,5.07-7.97c1.28,0.06,2.44,0.97,3.26,2.57c0.81,1.58,1.2,3.64,1.11,5.8
							C79.91,81.23,77.72,84.73,75.13,84.71z M75.63,68.69c-2.38-0.02-4.46,3.42-4.64,7.66c-0.09,2.11,0.29,4.11,1.07,5.64
							c0.77,1.5,1.83,2.35,2.98,2.4c2.43,0.11,4.55-3.36,4.73-7.66c0.09-2.11-0.29-4.11-1.07-5.64c-0.77-1.5-1.83-2.35-2.98-2.4
							C75.69,68.69,75.66,68.69,75.63,68.69z"/>
					</g>
					<g>
						<g>
							<g>
								<g>
									<g>
										<g>
											<g>
												<path class="st12" d="M76.22,73.78c-1.54,0.04-2.76,1.92-2.73,4.19c0.03,2.28,1.31,4.09,2.85,4.05
													c1.54-0.04,2.76-1.92,2.73-4.19C79.03,75.56,77.76,73.74,76.22,73.78z"/>
											</g>
										</g>
									</g>
								</g>
							</g>
							<g>
								<g>
									<g>
										<g>
											<g>
												<g>
													<path class="st13" d="M75.61,79.54c-0.85-0.16-1.51-0.63-2.1-1.23c0.14,2.12,1.37,3.76,2.83,3.72
														c1.52-0.04,2.73-1.87,2.73-4.11C78.28,79.14,76.96,79.63,75.61,79.54z"/>
												</g>
											</g>
										</g>
									</g>
								</g>
							</g>
							<g>
								<g>
									<g>
										<g>
											<g>
												<path class="st9" d="M76.63,75.92c-1.01,0.03-1.81,1.32-1.78,2.89c0.02,1.57,0.86,2.82,1.87,2.79
													c1.01-0.03,1.81-1.32,1.78-2.89C78.48,77.15,77.64,75.89,76.63,75.92z"/>
											</g>
										</g>
									</g>
								</g>
							</g>
							<g>
								<g>
									<g>
										<g>
											<g>
												<path class="st10" d="M76.47,75.96c-0.58-0.05-1.09,0.43-1.13,1.06c-0.04,0.63,0.4,1.19,0.98,1.23
													c0.58,0.05,1.09-0.43,1.13-1.06C77.49,76.56,77.05,76.01,76.47,75.96z"/>
											</g>
										</g>
									</g>
								</g>
							</g>
							<g>
								<g>
									<g>
										<g>
											<g>
												<path class="st10" d="M75.76,79.9c-0.27-0.02-0.5,0.2-0.52,0.49c-0.02,0.29,0.18,0.55,0.45,0.57
													c0.27,0.02,0.5-0.2,0.52-0.49C76.23,80.18,76.03,79.92,75.76,79.9z"/>
											</g>
										</g>
									</g>
								</g>
							</g>
							<g>
								<g>
									<g>
										<g>
											<g>
												<path class="st14" d="M76.22,73.69c-1.59,0.04-2.86,1.96-2.83,4.28c0.03,2.2,1.23,4.01,2.74,4.13
													c0.07,0.01,0.14,0.01,0.21,0.01c1.59-0.04,2.86-1.96,2.83-4.28C79.13,75.53,77.82,73.66,76.22,73.69z M76.34,81.82
													c-1.45,0.04-2.63-1.71-2.66-3.85c-0.03-2.16,1.11-3.95,2.55-3.98c0.06,0,0.12,0,0.19,0c1.36,0.11,2.45,1.8,2.48,3.85
													C78.92,80,77.77,81.78,76.34,81.82z"/>
											</g>
										</g>
									</g>
								</g>
							</g>
						</g>
					</g>
					<g>
						<path class="st0" d="M77.91,69.64c0,0,2.96,8.8-3.16,16.13c3.76,1.01,10.21-0.86,10.21-0.86L82.6,72.15L77.91,69.64z"/>
						<path class="st9" d="M77.34,86.24c-0.93-0.01-1.84-0.09-2.63-0.31l-0.25-0.07l0.16-0.2c5.98-7.18,3.16-15.88,3.13-15.97
							l0.31-0.1c0.03,0.09,2.86,8.8-3.02,16.08c3.71,0.84,9.81-0.9,9.87-0.92l0.09,0.32C84.8,85.13,80.85,86.26,77.34,86.24z"/>
					</g>
					<path class="st8" d="M72.19,88.91c-3.38-7.83-3.06-18.65,0.19-27.75c-0.04,0.02-0.08,0.04-0.13,0.06
						c-3.58,6.54-5.3,16.58-1.74,27.29c-0.19,0.28-0.27,0.65-0.28,1.11C70.94,89.7,72.37,89.66,72.19,88.91z"/>
					<path class="st2" d="M92.77,127.99c-5.41-0.04-10.65-1.68-13.68-4.28c-6.69-5.76-4.89-9.81-3.31-13.39
						c0.73-1.65,1.42-3.21,1.13-4.75c-0.1-0.66-1.07-2.48-2.18-4.58c-2.36-4.45-5.59-10.52-4.4-12.51
						c-2.51-7.6-2.59-15.67-0.23-22.74c2.04-6.1,5.69-10.69,9.52-11.97c2.89-0.97,5.45-0.53,7.14,1.19c1.27,1.3,1.99,3.24,2.07,5.51
						c5.16-8.13,12.02-9.81,16.91-9.78c0.99,0.01,1.98,0.09,2.96,0.23c4.62,0.71,8.21,3.03,10.68,6.91c5.09,8,4.5,21.41,1.66,31.25
						c5.62,0.1,10.2,2.43,12.93,6.59c2.75,4.2,3.2,9.77,1.17,14.54c-3.21,7.54-13.53,9.3-21.07,10.58
						c-2.54,0.43-4.74,0.81-6.38,1.33C104.62,125.9,99.18,128.04,92.77,127.99z M82.6,53.6c-0.89-0.01-1.85,0.16-2.86,0.5
						c-7.43,2.49-14.51,18.02-9.07,34.37l0.03,0.08l-0.05,0.07c-1.2,1.75,2.15,8.06,4.37,12.24c1.18,2.22,2.11,3.97,2.22,4.68
						c0.31,1.63-0.4,3.24-1.15,4.94c-1.54,3.47-3.28,7.41,3.23,13.01c2.97,2.55,8.12,4.16,13.46,4.2
						c6.33,0.04,11.69-2.06,14.69-5.78l0.03-0.04l0.05-0.01c1.67-0.53,3.89-0.91,6.47-1.35c7.47-1.27,17.69-3.01,20.83-10.39
						c1.99-4.67,1.55-10.12-1.15-14.23c-2.7-4.12-7.27-6.41-12.85-6.44l-0.22,0l0.04-0.21c2.88-9.78,3.51-23.22-1.56-31.19
						c-2.41-3.8-5.93-6.07-10.45-6.76c-0.96-0.15-1.94-0.22-2.91-0.23c-4.9-0.03-11.82,1.69-16.93,10.1l-0.31,0.52l0.01-0.6
						c0.04-2.43-0.67-4.5-1.98-5.85C85.52,54.16,84.16,53.61,82.6,53.6z"/>
				</g>
				<g>
					<g>
						<path class="st2" d="M77.3,67.6c-0.91-1-1.81-1.48-2.68-1.4c-1.26,0.11-2.05,1.33-2.05,1.34c0,0,0.61-1.55,2.03-1.67
							C76.5,65.7,77.3,67.6,77.3,67.6z"/>
					</g>
				</g>
				<g>
					<g>
						<g>
							<path class="st15" d="M109.08,95.39c-2.33,4.05-8.68,6.89-14.94,7.99L86,108.62c0,0-8.22,4.17-6.73,9.08
								c10.12,3.43,26.26-7.84,31.94-21.1C110.48,96.1,109.76,95.7,109.08,95.39z"/>
							<path class="st16" d="M93,104.12L86,108.62c0,0-8.22,4.17-6.73,9.08c7.61,2.58,16.41-2.45,23.29-9.12
								C101.06,103.2,97.16,103.1,93,104.12z"/>
							<path class="st2" d="M83.16,118.48C83.16,118.48,83.16,118.48,83.16,118.48c-1.41-0.01-2.73-0.22-3.94-0.63l-0.08-0.03
								l-0.02-0.08c-1.51-4.98,6.47-9.1,6.81-9.27l8.15-5.24l0.03-0.01c5.53-0.98,12.33-3.57,14.83-7.92l0.07-0.13l0.14,0.06
								c0.77,0.35,1.49,0.76,2.15,1.21l0.11,0.08l-0.05,0.12C106.36,108.35,93.18,118.55,83.16,118.48z M79.41,117.56
								c1.15,0.38,2.41,0.58,3.75,0.59c9.87,0.07,22.85-9.96,27.85-21.5c-0.58-0.38-1.2-0.74-1.86-1.05
								c-2.6,4.35-9.4,6.95-14.95,7.94l-8.11,5.21C86,108.8,78.09,112.88,79.41,117.56z"/>
						</g>
					</g>
				</g>
				<g>
					<g>
						<g>
							<path class="st10" d="M79.83,101.2c-1.12,2.02-3.63,2.45-6.26,2.05c-0.09,1.87-0.06,4.27,0.85,4.85
								c4,2.52,18.76,4.99,30.03-8.36C96.7,104.39,83.2,105.53,79.83,101.2z"/>
							<path class="st11" d="M92.58,103.63c-4.19,5.08-10.75,5.82-17.42,4.88c4.84,2.33,18.63,3.86,29.29-8.76
								C101.13,101.73,96.76,103.08,92.58,103.63z"/>
							<path class="st17" d="M83.19,110.25c-4.22-0.03-7.41-1.1-8.86-2.01c-0.77-0.49-1.07-2.07-0.93-5l0.01-0.18l0.18,0.03
								c0.56,0.08,1.1,0.13,1.6,0.13c1.51,0.01,3.51-0.35,4.48-2.1l0.12-0.22l0.15,0.2c1.31,1.68,4.28,2.62,8.37,2.65
								c5.49,0.04,11.79-1.59,16.05-4.14l0.85-0.51l-0.64,0.75C96.87,108.97,87.87,110.28,83.19,110.25z M73.72,103.43
								c-0.11,2.61,0.16,4.13,0.79,4.53c1.41,0.89,4.53,1.93,8.69,1.96c4.49,0.03,13.03-1.19,20.5-9.56
								c-4.27,2.31-10.18,3.75-15.38,3.71c-4.04-0.03-7.03-0.95-8.47-2.59c-0.86,1.37-2.47,2.08-4.65,2.06
								C74.73,103.54,74.23,103.5,73.72,103.43z"/>
						</g>
					</g>
				</g>
				<g>
					<path class="st0" d="M99.6,88.88c-10.53-6.32-18.87-5-22.88-5.02c-7.46,0.6-12.15,11.17-11.47,14.76
						c0.54,2.82,11.8,7.57,14.57,2.58c4.28,5.49,24.84,2.2,29.32-5.92L99.6,88.88z"/>
					<path class="st8" d="M76.72,83.86c-5.59,0.45-9.62,6.49-11.01,11.01c7.98-13.28,22.42-10.23,29.89-7.71
						c0.57,0.19,1.16,0.32,1.73,0.46C87.88,82.75,80.44,83.88,76.72,83.86z"/>
					<g>
						<path class="st18" d="M85.77,88.24c0,0-3.46,2.84-6.97,2.64c-3.04-0.22-4.12-1.62-4.65-3.3C77.74,86,82.67,86.34,85.77,88.24z
							"/>
						<path class="st19" d="M79.11,91.05c-0.11,0-0.21,0-0.32-0.01c-3.37-0.25-4.34-1.95-4.8-3.41l-0.04-0.14l0.13-0.06
							c1.54-0.68,3.36-1.03,5.27-1.02c2.41,0.02,4.77,0.63,6.5,1.69l0.2,0.12l-0.18,0.15C85.74,88.48,82.53,91.08,79.11,91.05z
							 M74.35,87.68c0.47,1.4,1.41,2.82,4.46,3.04c0.1,0.01,0.2,0.01,0.3,0.01c2.84,0.02,5.63-1.91,6.36-2.47
							c-1.65-0.95-3.87-1.5-6.12-1.52C77.55,86.73,75.82,87.05,74.35,87.68z"/>
					</g>
					<path class="st1" d="M65.26,98.62c0,0,0.26,0.88,1.92,2.15c2.28,1.74,9.65,4.53,12.56,0.56c0.56,0.6,3.41,2.44,6.42,2.42
						c3.64,0.29,7.7,0.01,11.95-1.33c1.79-0.6,9.08-3.11,10.93-7.16c-8.69,7.38-27.65,7.39-30.23,1.31
						C77.42,101.35,68.04,101.51,65.26,98.62z"/>
					<path class="st2" d="M88.34,104.07c-3.98-0.03-7.05-0.95-8.49-2.59c-1.09,1.72-3.36,2.4-6.42,1.91
						c-3.86-0.62-7.99-2.97-8.33-4.74c-0.38-1.99,0.89-6.36,3.62-9.94c1.62-2.13,4.32-4.72,8-5.02c0.59,0,1.24-0.02,2-0.05
						c4.1-0.16,10.71-0.43,18.72,3.66c0.77,0.39,2.18,1.58,2.18,1.58c-8.98-5.39-16.43-5.09-20.89-4.91c-0.76,0.03-1.42,0.06-2,0.05
						c-3.54,0.29-6.17,2.82-7.75,4.89c-2.67,3.5-3.92,7.75-3.56,9.68c0.28,1.48,4.06,3.84,8.06,4.48c1.76,0.28,4.9,0.4,6.21-1.95
						l0.12-0.22l0.15,0.2c1.57,2.01,5.63,2.97,10.87,2.55c7.02-0.55,15.52-3.63,18.18-8.45l0.29,0.16
						c-2.72,4.92-11.33,8.06-18.44,8.62C89.98,104.05,89.14,104.08,88.34,104.07z"/>
				</g>
				<g>
					<path class="st2" d="M113.11,98.41c-3.06-3.22-7.29-3.93-7.34-3.94c0,0,1.12-0.15,2.54,0.41c0.99,0.39,2.16,0.96,3.3,1.79
						C112.21,97.11,113.11,98.41,113.11,98.41z"/>
				</g>
				<g>
					<g>
						<path class="st20" d="M79.56,81.64c-2.77,0.15-5.61,2.39-6.33,4.56c-0.46,1.39,0.78,3.79,3.22,3.17
							c0.22,1.72,1.11,2.43,2.81,2.19c3.03-0.42,1.73-2.88,2.89-3.32c1.18-0.45,3.02,1.52,4.26,0.03
							C87.41,87.07,85.17,81.33,79.56,81.64z"/>
						<path class="st21" d="M85.12,83.96c1.3,4.31-1.86,2.21-3.98,3.23c-1.25,0.61-0.58,2.68-2.03,2.83
							c-1.8,0.19-2.2-2.34-1.53-3.65c-2.05,1.91-3.17,2.21-4.42,0.74c0.15,1.31,1.34,2.75,3.3,2.26c0.22,1.72,1.11,2.43,2.81,2.19
							c3.03-0.42,1.73-2.88,2.89-3.32c1.18-0.45,3.02,1.52,4.26,0.03C86.96,87.61,86.53,85.6,85.12,83.96z"/>
						<path class="st19" d="M78.64,91.77c-1.33-0.01-2.09-0.73-2.33-2.2c-1.13,0.23-2.15-0.17-2.79-1.06
							c-0.51-0.72-0.69-1.65-0.45-2.36c0.71-2.12,3.48-4.51,6.48-4.67c3.53-0.19,5.81,1.99,6.76,4.02c0.56,1.21,0.65,2.37,0.23,2.88
							c-0.35,0.43-0.78,0.63-1.31,0.63l0,0c-0.49,0-0.99-0.18-1.47-0.36c-0.59-0.22-1.16-0.4-1.55-0.25
							c-0.33,0.13-0.42,0.47-0.52,1.02c-0.17,0.86-0.39,2.03-2.4,2.31C79.06,91.75,78.84,91.77,78.64,91.77z M76.59,89.16l0.02,0.18
							c0.21,1.64,1.03,2.27,2.63,2.05c1.78-0.25,1.96-1.2,2.12-2.05c0.11-0.55,0.21-1.06,0.73-1.26c0.14-0.05,0.3-0.08,0.47-0.08
							c0.41,0,0.85,0.16,1.31,0.33c0.46,0.17,0.93,0.34,1.36,0.34c0.43,0,0.77-0.16,1.06-0.51c0.29-0.35,0.29-1.33-0.27-2.53
							c-0.9-1.94-3.08-4.02-6.44-3.83c-2.82,0.15-5.52,2.47-6.18,4.45c-0.2,0.61-0.04,1.44,0.41,2.07c0.59,0.83,1.55,1.16,2.62,0.89
							L76.59,89.16z"/>
					</g>
					<g>
						<path class="st19" d="M76.31,89.56c-0.2-1.21,0.43-1.79,0.43-1.79c0,0.01-0.28,0.64-0.11,1.74L76.31,89.56z"/>
					</g>
				</g>
				<path class="st22" d="M80.8,82.63c0.13,0.48-0.86,1.16-2.22,1.53c-1.35,0.37-2.56,0.28-2.68-0.2s0.86-1.16,2.22-1.53
					C79.47,82.07,80.67,82.16,80.8,82.63z"/>
				<g>
					<g>
						<path class="st23" d="M79.27,117.69c6.73,2.28,16.11-1.94,23.32-8.91c-3.73-2.39-10.3,0.26-13.26,1.85
							c-2.8-0.77-5.84-0.14-7.69,1.21C79.8,113.17,78.72,115.5,79.27,117.69z"/>
						<path class="st24" d="M102.59,108.78c-3.73-2.39-10.3,0.26-13.26,1.85c-2.8-0.77-5.84-0.14-7.69,1.21
							c-0.11,0.08-0.22,0.16-0.32,0.25c3.66-1.15,5.12-0.48,4.81,1.9c1.32-1.3,6.69-4.59,7.99-2.13c1.11,2.1-8.31,5.91-12.48,6.35
							C88.09,118.99,96.2,114.97,102.59,108.78z"/>
						<path class="st2" d="M102.68,108.64c-0.04-0.02-0.08-0.05-0.12-0.07l-0.25,0.23c0,0,0.01,0,0.01,0.01
							c-6.14,5.89-13.3,9.38-19.17,9.34c-1.32-0.01-2.56-0.2-3.69-0.57l-0.11,0.31c1.17,0.38,2.45,0.58,3.81,0.59c0,0,0,0,0,0
							c6,0.04,13.31-3.54,19.55-9.58l0.15-0.14L102.68,108.64z"/>
						<path class="st25" d="M79.41,117.57c-0.46-2.01,0.46-4.25,2.33-5.59c1.32-0.96,3.25-1.52,5.16-1.51
							c0.82,0.01,1.63,0.11,2.4,0.32l0.06,0.02l0.06-0.03c2.53-1.36,6.35-2.81,9.49-2.79c1.34,0.01,2.49,0.28,3.41,0.81l0.25-0.23
							c-0.98-0.59-2.21-0.9-3.66-0.91c-3.18-0.02-7.03,1.42-9.59,2.8c-0.78-0.21-1.59-0.31-2.42-0.32c-2-0.01-3.95,0.56-5.35,1.57
							c-2,1.44-2.97,3.87-2.43,6.02l0.02,0.09l0.08,0.03c0.04,0.01,0.09,0.03,0.13,0.04l0.11-0.31
							C79.45,117.58,79.43,117.57,79.41,117.57z"/>
					</g>
				</g>
				<g>
					<path class="st2" d="M79.58,117.96c-3.02-0.82-3.12-3.76-3.12-3.76c0,0.03,0.5,2.52,3.23,3.45L79.58,117.96z"/>
				</g>
				<g>
					<path class="st25" d="M86.13,114c0,0,0.15-0.82,0.76-1.53c0.65-0.74,1.55-1.6,2.56-2.08l0.14,0.3
						C87.71,111.57,86.15,113.97,86.13,114z"/>
				</g>
				<g>
					<path class="st2" d="M107.72,122.1l-0.24-0.22c3.9-4.27,3.97-7.76,3.97-7.79c0,0,0.31,0.96-0.18,2.36
						C110.76,117.89,109.74,119.88,107.72,122.1z"/>
				</g>
				<g>
					<path class="st3" d="M94.54,32.95c4.72,2.18,4.65,4.76,4.65,4.76s-11.53-5.69-16.86,3.9c8.16-1.94,11.29,0.19,11.29,0.19
						s-6.37,0.48-9.46,5.6c5.04-1.51,8.85-0.04,8.85-0.04l13.91-7.37C105.23,35.24,100.09,31.45,94.54,32.95z"/>
					<path class="st4" d="M95.25,42.57c-2.6-3.14-6.45-2.97-9.73-2.99c4.73-3.59,10.25-2.62,14.9-0.45c0.03-3.69-2.52-6.93-5.8-6.21
						c-0.03,0.01-0.06,0.01-0.09,0.02c4.72,2.18,4.65,4.76,4.65,4.76s-11.53-5.69-16.86,3.9c8.16-1.94,11.29,0.19,11.29,0.19
						s-6.37,0.48-9.46,5.6c2.74-0.82,5.12-0.76,6.72-0.54c-1.2-0.76-3.08-0.65-4.69-0.8C88.5,44.11,90.14,42.98,95.25,42.57z"/>
					<path class="st6" d="M83.8,47.68l0.22-0.36c2.57-4.26,7.43-5.36,9.05-5.61c-1.13-0.48-4.42-1.42-10.7,0.07l-0.36,0.09
						l0.18-0.32c4.89-8.8,15.02-4.87,16.81-4.09c-0.14-0.7-0.85-2.65-4.52-4.35l-0.41-0.19l0.44-0.12
						c5.47-1.47,10.55,2.08,12.45,6.41c0.1,0.23-0.04,0.8-0.04,0.8c-1.55-4.37-6.49-8.19-11.89-7c4.35,2.16,4.33,4.61,4.33,4.72
						l-0.01,0.26l-0.23-0.11c-0.11-0.06-11.19-5.38-16.46,3.51c7.87-1.78,10.92,0.21,11.05,0.3l0.39,0.26l-0.47,0.04
						c-0.06,0-6.02,0.5-9.11,5.16c2.89-0.79,5.38-0.67,6.92-0.44c1.04,0.15,1.56,0.67,1.56,0.67c-0.04-0.01-3.88-1.28-8.81,0.2
						L83.8,47.68z"/>
				</g>
				<g>
					<g>
						<g>
							<path class="st0" d="M150.25,69.56c-11.97-5.16-17.5,11.1-18.46,17.65c1.51,0.25,6,1.37,10.21,6.23
								C155.04,94.72,160.68,74.06,150.25,69.56z"/>
							<path class="st8" d="M149.14,70.92c2.82,0.9,5.11,3.44,6.44,6.49c-0.37-3.42-2.06-6.44-5.33-7.85
								c-11.97-5.16-17.5,11.1-18.46,17.65c0.18,0.03,0.41,0.07,0.66,0.13C134.87,79.34,139.32,67.78,149.14,70.92z"/>
							<path class="st2" d="M143.07,93.66C143.07,93.66,143.07,93.66,143.07,93.66c-0.36,0-0.73-0.02-1.09-0.06l-0.06-0.01
								l-0.04-0.05c-4.12-4.75-8.45-5.9-10.11-6.17l-0.16-0.03l0.02-0.16c0.71-4.9,4.86-18.85,14.24-18.79
								c1.42,0.01,2.92,0.35,4.45,1.01c4.38,1.89,6.41,6.89,5.18,12.75C154.32,87.73,149.93,93.71,143.07,93.66z M142.08,93.28
								c0.33,0.03,0.67,0.05,1,0.05h0c6.67,0.05,10.95-5.79,12.09-11.24c0.91-4.33,0.15-10.17-4.98-12.38
								c-1.49-0.64-2.94-0.97-4.32-0.98c-9.04-0.06-13.12,13.39-13.89,18.35C133.77,87.4,138.02,88.64,142.08,93.28z"/>
						</g>
					</g>
				</g>
				<path class="st1" d="M143.93,90.74c-2.94-0.53-3.55-2.79-2.86-4.57c0.72-1.9,3.22-2.96,4.07-0.16c0.67-2.16,0.02-3.58-3.16-3.08
					c2.73-4.74,8-3.89,5.89,4.24c1.94-2.52,3.47-7.85-0.56-9.4c-5.97-2.13-9.49,5.96-10.36,11.42c1.58,0.93,3.33,2.29,5.04,4.25
					c7.78,0.77,12.92-6.27,13.59-13.03C153.72,86.18,147.36,91.35,143.93,90.74z"/>
				<g>
					<path class="st2" d="M137.02,89.17l-0.32-0.08c0.84-3.57,3.34-11.86,8.34-11.89c2.09-0.02,3.61,0.74,4.37,2.17
						c0.92,1.72,0.6,4.14-0.29,6.19c-0.28,0.64-1.25,1.61-1.25,1.61c1.48-2.17,2.39-5.49,1.25-7.64c-0.71-1.34-2.06-2.01-4.07-2
						C140.28,77.55,137.84,85.68,137.02,89.17z"/>
				</g>
				<g>
					<path class="st2" d="M145.14,86c0.29-1.6,0.02-2.59-0.81-2.95c-1.66-0.73-5.19,1.22-6.38,2.81l-0.26-0.2
						c1.11-1.48,4.81-3.77,6.77-2.91c0.67,0.29,1.04,0.91,1.11,1.83C145.6,85.01,145.14,86,145.14,86z"/>
				</g>
				<g>
					<g>
						<path class="st1" d="M96.66,78.81c-2.38-2.91-2.16-13.41,4.16-14.35c7.51-1.12,9.4,9.53,8.1,13.33
							C107.91,80.74,99.46,82.25,96.66,78.81z"/>
						<path class="st9" d="M96.88,80.8c-2.38-2.91-2.16-13.41,4.16-14.35c7.51-1.12,9.4,9.53,8.1,13.33
							C108.13,82.72,99.68,84.23,96.88,80.8z"/>
						<path class="st10" d="M96.99,81.54c-2.38-2.91-2.16-13.41,4.16-14.35c7.51-1.12,9.4,9.53,8.1,13.33
							C108.25,83.46,99.8,84.97,96.99,81.54z"/>
						<path class="st11" d="M96.08,79.67c0.23,0.77,0.54,1.41,0.92,1.87c2.8,3.43,11.25,1.92,12.26-1.02
							c0.35-1.04,0.47-2.58,0.3-4.25C106.23,79.96,100.53,82.15,96.08,79.67z"/>
						<path class="st9" d="M102.24,83.68c-2.41-0.02-4.32-0.74-5.37-2.03c-1.47-1.8-2.04-6.58-0.6-10.29
							c0.68-1.75,2.07-3.92,4.86-4.33c2.58-0.38,4.81,0.6,6.38,2.81c2.22,3.12,2.78,8.16,1.9,10.73
							C108.73,82.54,105.23,83.7,102.24,83.68z M102.27,67.27c-0.35,0-0.72,0.02-1.09,0.08c-2.64,0.39-3.96,2.46-4.6,4.12
							c-1.4,3.61-0.86,8.23,0.55,9.96c0.99,1.22,2.81,1.9,5.12,1.91c3.23,0.02,6.31-1.27,6.86-2.88c0.75-2.21,0.41-7.24-1.86-10.44
							C105.94,68.21,104.27,67.28,102.27,67.27z"/>
					</g>
				</g>
				<g>
					<g>
						<g>
							<g>
								<g>
									<g>
										<g>
											<path class="st12" d="M103.89,71.45c-2.07,0.1-3.64,2.55-3.5,5.46c0.14,2.91,1.93,5.19,4,5.09
												c2.07-0.1,3.64-2.55,3.49-5.46C107.75,73.63,105.96,71.35,103.89,71.45z"/>
										</g>
									</g>
								</g>
							</g>
						</g>
						<g>
							<g>
								<g>
									<g>
										<g>
											<g>
												<path class="st13" d="M103.31,78.84c-1.15-0.18-2.06-0.76-2.88-1.51c0.28,2.71,2,4.77,3.97,4.67
													c2.05-0.1,3.6-2.49,3.5-5.36C106.88,78.24,105.14,78.92,103.31,78.84z"/>
											</g>
										</g>
									</g>
								</g>
							</g>
						</g>
						<g>
							<g>
								<g>
									<g>
										<g>
											<path class="st9" d="M104.54,74.18c-1.36,0.07-2.38,1.75-2.28,3.76c0.1,2.01,1.27,3.58,2.63,3.51
												c1.36-0.07,2.38-1.75,2.28-3.76C107.07,75.68,105.89,74.11,104.54,74.18z"/>
										</g>
									</g>
								</g>
							</g>
						</g>
						<g>
							<g>
								<g>
									<g>
										<g>
											<path class="st10" d="M104.32,74.23c-0.79-0.04-1.45,0.59-1.48,1.4c-0.03,0.81,0.58,1.51,1.37,1.55
												c0.79,0.04,1.45-0.59,1.48-1.4C105.72,74.97,105.1,74.27,104.32,74.23z"/>
										</g>
									</g>
								</g>
							</g>
						</g>
						<g>
							<g>
								<g>
									<g>
										<g>
											<path class="st10" d="M103.53,79.3c-0.36-0.02-0.67,0.27-0.68,0.64c-0.01,0.37,0.27,0.69,0.63,0.71
												c0.36,0.02,0.67-0.27,0.68-0.64C104.18,79.64,103.9,79.32,103.53,79.3z"/>
										</g>
									</g>
								</g>
							</g>
						</g>
						<g>
							<g>
								<g>
									<g>
										<g>
											<path class="st14" d="M103.88,71.34c-2.14,0.11-3.77,2.61-3.62,5.58c0.14,2.81,1.83,5.09,3.86,5.2
												c0.09,0.01,0.19,0,0.29,0c2.14-0.11,3.77-2.61,3.62-5.58C107.88,73.59,106.03,71.24,103.88,71.34z M104.38,81.74
												c-1.95,0.1-3.62-2.1-3.75-4.84c-0.13-2.76,1.33-5.09,3.26-5.19c0.08,0,0.17,0,0.25,0c1.84,0.09,3.37,2.22,3.5,4.84
												C107.78,79.32,106.32,81.65,104.38,81.74z"/>
										</g>
									</g>
								</g>
							</g>
						</g>
					</g>
				</g>
				<g>
					<path class="st3" d="M99.63,60.87c-0.97,0.37-0.88-3.1,2.28-4.16c3.16-1.06,9.02,1.48,10.51,8.94
						C107.43,60.9,103.58,59.36,99.63,60.87z"/>
					<path class="st5" d="M99.78,58.22c-0.98,1.34-0.81,2.9-0.15,2.64c3.86-1.48,7.95,0.21,12.79,4.72
						C109.43,60.09,104.92,57.63,99.78,58.22z"/>
					<path class="st6" d="M112.69,66.12l-0.37-0.36c-3.78-3.59-6.87-5.27-9.72-5.29c-0.97-0.01-1.92,0.17-2.9,0.55
						c-0.07,0.03-0.13,0.04-0.2,0.04h0c-0.28,0-0.48-0.24-0.54-0.63c-0.15-0.96,0.54-3.08,2.91-3.88c0.48-0.16,1.02-0.24,1.6-0.24
						c3.62,0.02,7.91,3.23,9.12,9.31L112.69,66.12z M102.6,60.15c2.88,0.02,5.84,1.57,9.56,5.02c-1.31-5.57-5.31-8.51-8.69-8.53
						c-0.54,0-1.05,0.07-1.5,0.22c-2.18,0.74-2.83,2.65-2.69,3.52c0.03,0.21,0.12,0.41,0.3,0.34
						C100.59,60.32,101.58,60.14,102.6,60.15z"/>
				</g>
				<g>
					<path class="st3" d="M82.16,61.27c0.73,0.33,0.84-2.35-1.56-3.34c-2.39-0.98-7.06,0.69-8.58,6.39
						C76.13,60.91,79.19,59.91,82.16,61.27z"/>
					<path class="st5" d="M72.21,64.17c4.01-3.29,7.02-4.25,9.95-2.9c0.59,0.27,0.99-1.18-0.21-2.36
						C77.79,58.77,73.61,60.99,72.21,64.17z"/>
					<path class="st6" d="M71.73,64.78l0.13-0.5c1.25-4.68,4.67-6.79,7.32-6.77c0.55,0,1.04,0.1,1.48,0.28
						c1.72,0.7,2.26,2.3,2.09,3.16c-0.08,0.42-0.37,0.62-0.66,0.48c-0.83-0.38-1.65-0.57-2.5-0.58c-2.12-0.01-4.49,1.13-7.46,3.61
						L71.73,64.78z M79.18,57.84c-2.43-0.02-5.54,1.87-6.85,6.03c2.85-2.29,5.16-3.36,7.26-3.35c0.9,0.01,1.76,0.2,2.64,0.61
						c0.02,0.01,0.04,0.01,0.05,0.01c0.06,0,0.12-0.11,0.15-0.26c0.12-0.58-0.2-2.09-1.89-2.79C80.14,57.92,79.69,57.84,79.18,57.84
						z"/>
				</g>
			</g>
			<g>
				<path class="st6" d="M131.64,87.03l-0.06,0.32c1.3,0.19,6.18,1.24,10.62,6.57l0.25-0.21C137.97,88.32,133.01,87.23,131.64,87.03
					z"/>
			</g>
			<g>
				<path class="st2" d="M79.68,101.26c-0.02-0.04-1.55-3.61-1.2-9.51l0.33,0.02c-0.35,5.81,1.15,9.32,1.17,9.35L79.68,101.26z"/>
			</g>
		</g>
		<g>
			<path class="st2" d="M98.63,65.49c0,0,0.23-0.57,0.93-0.85c0.73-0.28,1.76-0.54,2.97-0.4c0.49,0.05,1.43,0.68,1.43,0.68
				C100.96,63.79,98.65,65.47,98.63,65.49z"/>
		</g>
	</g>
	<g>
		<path class="st6" d="M104.38,127.32l-0.08-0.39c1.99-0.41,3.15,0.23,3.15,0.23C107.44,127.15,106.28,126.93,104.38,127.32z"/>
	</g>
	<g>
		<path class="st6" d="M117.68,226.82l0.36-0.18c0.37,0.74,0.82,1.69,0.82,1.69S118.05,227.55,117.68,226.82z"/>
	</g>
	<g>
		<path class="st2" d="M67.67,241.52c-1.1-0.46-1.7-1.49-2.02-2.45c-0.35-1.02,0.02-2.05,0.02-2.05c0,0.03,0.12,3.28,2.16,4.13
			L67.67,241.52z"/>
	</g>
	<g>
		<path class="st2" d="M62.24,241.16c-0.62-0.76-0.95-1.52-1.12-2.17c-0.27-0.99,0.23-1.71,0.23-1.71c0,0.02-0.24,1.86,1.2,3.62
			L62.24,241.16z"/>
	</g>
</g>
</svg>
