<svg id="Layer_1" data-name="Layer 1" xmlns="http://www.w3.org/2000/svg" viewBox="0 0 198.43 205.75"><defs><style>.cls-1{fill:#854d26;}.cls-2{fill:#9d7152;}.cls-3{fill:#5b2d17;}.cls-4{fill:#2e190f;}.cls-5{fill:#f8d0b4;}.cls-6{fill:#f5aa90;}.cls-7{fill:#aa6a53;}.cls-8{fill:#562d16;}.cls-9{fill:#fcece1;}.cls-10{fill:#010101;}.cls-11{fill:#fff;}.cls-12{fill:#cdcccc;}.cls-13{fill:#4386c6;}.cls-14{fill:#295ea9;}.cls-15{fill:#223975;}.cls-16{fill:#69140f;}.cls-17{fill:#280d0e;}.cls-18{fill:#676767;}.cls-19{fill:#874332;}.cls-20{fill:#a42d2b;}.cls-21{fill:#f29079;}.cls-22{fill:#df705a;}.cls-23{fill:#fad2ca;}.cls-24{fill:#f0847d;}.cls-25{fill:#ed6964;}.cls-26{fill:#a13834;}</style></defs><path class="cls-1" d="M171.36,178.36c7.77,3.79,20.9-.5,24.41-20,1.07-6.63-.46-47.27,18.93-51.87,17-4,28.55,13.32,25.65,22.87-1,3.38-6.27,5.33-9.56,2.56-3.72-3.11-2.75-15-10.13-14.32-9,.86-13,15.58-13.9,29.25-.4,7.84-6.68,23.91-7.4,25.84-4.12,10-18.86,19-31.37,13.57C168.6,184.64,171.36,178.36,171.36,178.36Z" transform="translate(-42.52 -38.86)"/><path class="cls-2" d="M195.9,163.87c3.26-5,1.67-10.09,2.89-24.87.91-8.44,4.82-27.64,16-30.94,7.78-2.28,16.52.93,23.27,9C234,110,225.41,104,214.7,106.53c-19.39,4.6-17.86,45.24-18.93,51.87-3,16.6-13.66,23.5-23.21,20.47C178.37,182.78,190.76,180.07,195.9,163.87Z" transform="translate(-42.52 -38.86)"/><path class="cls-3" d="M233,126c-3-2.59-3.74-11.81-10.22-12.64-14.26-1.83-18.83,19.76-20.55,30.8-.52,3.3-3.54,23.3-5.18,24.73-2.93,6.57-15.95,20.85-26.36,11-.85,2-2.3,5.31-2.72,6.46,12.51,5.43,27.25-3.54,31.37-13.57.72-1.93,7-18,7.4-25.84.92-13.67,4.9-28.39,13.9-29.25,7.38-.71,6.41,11.21,10.13,14.32,3.29,2.77,8.54.82,9.56-2.56a14.22,14.22,0,0,0-.64-8.87C239.79,128.15,236.38,128.92,233,126Z" transform="translate(-42.52 -38.86)"/><path class="cls-4" d="M176,188.09a20.3,20.3,0,0,1-8.07-1.65l-.13-.06.05-.13c.61-1.65,3.35-7.88,3.38-7.95l.06-.14.15.07a12.61,12.61,0,0,0,5.51,1.24,15.82,15.82,0,0,0,11-4.84c3.75-3.69,6.39-9.31,7.64-16.25.17-1.07.28-3.06.41-5.58.35-6.45.93-17.25,3.44-26.69,3-11.42,8.15-18.06,15.2-19.73a22.1,22.1,0,0,1,5-.6,21.3,21.3,0,0,1,17,8.86c3.61,4.8,5.12,10.61,3.85,14.8-.69,2.28-3.28,4-6,4a5.85,5.85,0,0,1-3.8-1.35c-1.44-1.2-2.17-3.63-2.95-6.19-1.22-4-2.47-8.13-6.47-8.13l-.6,0c-11,1-13.31,22.55-13.75,29.11-.18,3.35-1.57,10.46-7.2,25.32-.1.24-.17.43-.22.56C196.41,180.31,186.77,188.09,176,188.09Zm-7.81-1.87a19.88,19.88,0,0,0,7.81,1.57c10.65,0,20.17-7.69,23.23-15.12,0-.12.12-.31.21-.56,5.62-14.82,7-21.9,7.18-25.23.45-6.62,2.77-28.32,14-29.39l.63,0c4.23,0,5.57,4.43,6.76,8.34.77,2.52,1.49,4.9,2.85,6a5.53,5.53,0,0,0,3.61,1.28,6,6,0,0,0,5.72-3.77c1.24-4.11-.25-9.82-3.81-14.54a20.49,20.49,0,0,0-21.66-8.14c-6.93,1.64-12,8.2-15,19.5-2.5,9.42-3.08,20.19-3.42,26.63-.14,2.53-.24,4.53-.42,5.62-1.26,7-3.93,12.68-7.72,16.42a16.16,16.16,0,0,1-11.26,4.92,13.08,13.08,0,0,1-5.51-1.2C171,179.49,168.81,184.56,168.18,186.22Z" transform="translate(-42.52 -38.86)"/><path class="cls-5" d="M118.51,220.56s-7.28.46-9.3,5.14c-2.56,1.41-4.18,4.33-3.52,6s4.28,2.44,7.07,1.54c2.65,1.3,8.32.86,11.9.69,6.73-.31,29.58-.94,24.84-10.67C145.07,223.2,118.51,220.56,118.51,220.56Z" transform="translate(-42.52 -38.86)"/><path class="cls-6" d="M114,226.36c-2.12,1-8.43,5.85-7.36,1.66a4.27,4.27,0,0,0-.93,3.69c.58,1.48,4,2.44,6.92,1.57a5.06,5.06,0,0,1,1.23-3.54c4-4.38,13.28-4.51,14.33-4.22A22.49,22.49,0,0,0,114,226.36Z" transform="translate(-42.52 -38.86)"/><path class="cls-6" d="M118.71,224.64c-2.77-3.46-8.4.07-6.1-2.4a5.48,5.48,0,0,0-3.36,3.36C112.39,224.65,116,223.48,118.71,224.64Z" transform="translate(-42.52 -38.86)"/><path class="cls-6" d="M149.5,223.27c-.73,0-2.07-.09-3.78-.22-.07,1.52-.19,2.9-1.55,3.66-9.42,5.17-20.88,4.88-31.26,6.5,2.46,1.35,8.52.88,11.75.73C131.39,233.63,154.24,233,149.5,223.27Z" transform="translate(-42.52 -38.86)"/><path class="cls-7" d="M119,234.3h0a15.43,15.43,0,0,1-6.21-.89,8.45,8.45,0,0,1-2.55.37c-2.27,0-4.18-.83-4.65-2-.71-1.81,1-4.74,3.54-6.18,2.06-4.66,9.34-5.18,9.41-5.18.29,0,26.63,2.64,31,2.71h.09l0,.09a4.66,4.66,0,0,1,.06,4.68c-3.16,5.23-17.91,5.89-24.21,6.17l-.81,0-1.1.06C122.16,234.22,120.55,234.3,119,234.3Zm-6.19-1.21.06,0c1.21.6,3.22.89,6.13.89h0c1.58,0,3.18-.08,4.6-.15l1.1-.06.81,0c6.25-.27,20.88-.92,24-6a4.37,4.37,0,0,0,0-4.32c-4.66-.11-30.64-2.69-30.9-2.71,0,0-7.19.51-9.15,5l0,.05,0,0c-2.42,1.33-4.09,4.17-3.44,5.83.42,1.07,2.21,1.82,4.36,1.82a8.15,8.15,0,0,0,2.51-.38Z" transform="translate(-42.52 -38.86)"/><path class="cls-7" d="M112.61,233.28a4,4,0,0,1,1.16-3.62c2.37-2.61,7.66-4.37,12.84-4.43a14.35,14.35,0,0,1,2.63.43c-5.83-.65-12.52,1.2-15.24,4.2a3.65,3.65,0,0,0-1.09,3.35Z" transform="translate(-42.52 -38.86)"/><path class="cls-7" d="M109,226l-.13-.27a17,17,0,0,1,7.82-1.77,3.6,3.6,0,0,1,2.06.67S115.08,223.22,109,226Z" transform="translate(-42.52 -38.86)"/><path class="cls-1" d="M124,175.14c-3.35,4.22-11.68,25.78-11.23,30.91,1-1.2,2.84-4.14,2.84-4.14s-1.26,7.2,2.78,10.48c-.84-4.07.42-5.51.42-5.51s.42,5.85,4.09,8a4.07,4.07,0,0,1,0-3.73s6.55,7.31,11.18,9.17c-6.11-.73-13.54-.5-16.33.5,4.07,1.3,29.09,9.83,31.73,4.7,1.55-3-4-6.35-8.68-11.21-4.18-4.36-4.81-8.59-10.23-10.18,6.36-6.93,10.28-18.93,11.25-20.39C138.52,181.17,124,175.14,124,175.14Z" transform="translate(-42.52 -38.86)"/><path class="cls-2" d="M138.77,220.59c-6.42-1-13.53-8.65-16.28-12.27-1,1-1,3.24-1,3.24a12.65,12.65,0,0,1-2.12-6.52c-1.74,1.08-2.08,3.66-2.08,3.66s-1.61-3.14-.32-9.48a18.94,18.94,0,0,0-2.37,2.16c2.9-9.5,6.16-16.09,8.34-24.83-4.68,8.82-10.43,25.89-10.11,29.5,1-1.2,2.84-4.14,2.84-4.14s-1.26,7.2,2.78,10.48c-.84-4.07.42-5.51.42-5.51s.42,5.85,4.09,8a4.07,4.07,0,0,1,0-3.73s6.55,7.31,11.18,9.17c-6.11-.73-13.54-.5-16.33.5l1.22.4C125,219.72,137.09,222,138.77,220.59Z" transform="translate(-42.52 -38.86)"/><path class="cls-3" d="M140.81,214.27c-4.18-4.36-4.81-8.59-10.23-10.18,6.36-6.93,10.28-18.93,11.25-20.39-3.31-2.53-17.82-8.56-17.82-8.56-.13.17-.51.58-.66.8,0,9.11,10.81,12.8,8.6,19.11a19.5,19.5,0,0,1-7.21,10.2c7.82.79,10.61,7.49,13.68,10.53,2.51,2.49,7.76,5.85,8.19,7.62.5,2-2.14,3.09-7,3.19,4.64,1.06,9,.52,9.83-1.11C151,222.49,145.47,219.13,140.81,214.27Z" transform="translate(-42.52 -38.86)"/><path class="cls-4" d="M144.73,227.26h0c-7.56,0-21.49-4.53-26.06-6l-1-.31-.43-.14.42-.15a31.21,31.21,0,0,1,8.88-.94,64.23,64.23,0,0,1,6.6.33c-4.12-2.11-9.3-7.64-10.24-8.66a4.24,4.24,0,0,0,.11,3.41l.17.41-.39-.22c-3.13-1.8-3.93-6.17-4.11-7.61-.3.64-.75,2.18-.17,5l.08.41-.33-.27c-3.32-2.7-3.11-8.05-2.92-9.94-.59.92-1.77,2.72-2.49,3.59l-.23.29,0-.37c-.44-5.07,7.72-26.55,11.27-31L124,175l.1,0c.6.25,14.56,6.07,17.85,8.58l.11.08-.08.12a27.91,27.91,0,0,0-1.2,2.67c-1.8,4.31-5.14,12.29-9.9,17.57,3.45,1.08,5,3.28,6.7,5.82a31,31,0,0,0,3.37,4.33c1.29,1.34,2.62,2.55,3.91,3.71,3.33,3,6,5.41,4.8,7.67C149.05,226.68,147.4,227.26,144.73,227.26Zm-26.48-6.48.51.17c4.57,1.49,18.46,6,26,6h0c2.54,0,4.1-.52,4.63-1.55,1.06-2.06-1.5-4.37-4.74-7.31-1.29-1.16-2.63-2.37-3.92-3.72a32.63,32.63,0,0,1-3.41-4.37c-1.81-2.65-3.25-4.75-6.75-5.77l-.24-.07.17-.18c4.8-5.23,8.18-13.31,10-17.65.54-1.29.91-2.17,1.15-2.6-3.29-2.42-16.23-7.86-17.56-8.41-3.35,4.36-11.14,24.76-11.15,30.31,1-1.32,2.56-3.79,2.58-3.81l.41-.66-.13.76c0,.07-1.13,6.75,2.39,10-.66-3.76.5-5.14.55-5.2l.24-.27,0,.36c0,.06.42,5.38,3.63,7.6a4.07,4.07,0,0,1,.17-3.45l.11-.16.13.15c.07.07,6.58,7.3,11.13,9.13l1.06.42-1.14-.13a64,64,0,0,0-7.49-.43A34.61,34.61,0,0,0,118.25,220.78Z" transform="translate(-42.52 -38.86)"/><path class="cls-4" d="M127.52,204.64a4.26,4.26,0,0,1,3.6-.53l-.09.28A4.88,4.88,0,0,0,127.52,204.64Z" transform="translate(-42.52 -38.86)"/><path class="cls-4" d="M136.54,220.8a11.52,11.52,0,0,1-2.67-.45l.1-.29a19.49,19.49,0,0,0,4.8.53A8.83,8.83,0,0,1,136.54,220.8Z" transform="translate(-42.52 -38.86)"/><path class="cls-5" d="M198.84,184.83c-4.12,2.6-3.39,6.86-4.22,8.85a6.86,6.86,0,0,1-3.34,3.73c-1.3.55.05,3.48,1.67,3.63-2.37,3.88,2.67,8.14,8,6.39,1.91,1,5.88,1.9,7.21-.72,5.66-.32,5.5-9.14,2.41-14C206.69,191.05,198.84,184.83,198.84,184.83Z" transform="translate(-42.52 -38.86)"/><path class="cls-6" d="M208.73,198.9c-.9,8.3-4,8.77-7.77,8.53,2.29,1.15,5.64,1.72,7.29-.76C209.21,203.89,209.83,201.89,208.73,198.9Z" transform="translate(-42.52 -38.86)"/><path class="cls-6" d="M204.51,198.85c-1.39,3-2.58,5.72-6.3,6.75-2.86.8-5-1.25-5.65-3.73-1.26,3.62,3.44,7.19,8.4,5.56l.21.11A11.06,11.06,0,0,0,204.51,198.85Z" transform="translate(-42.52 -38.86)"/><path class="cls-6" d="M195.75,201.37s.4,1.66,1.25,2.06c-.38-.8-.51-3.12,0-3.38-1.92.79-2.87,1.22-4.06.95C193.21,201.9,195.75,201.37,195.75,201.37Z" transform="translate(-42.52 -38.86)"/><path class="cls-6" d="M199,195.53c-1.15,2.27-3,3.79-4.56,4s-3.48-.22-3.39-2c-.8.67.06,2.72,1.3,3.34a1.69,1.69,0,0,0,.58.17.08.08,0,0,0,0,0C196,201.38,199.46,198.63,199,195.53Z" transform="translate(-42.52 -38.86)"/><path class="cls-6" d="M210.58,192.75a20.79,20.79,0,0,1-2.26-1.21c1.5,2.55,5.39,8.63-.07,15.13a7.25,7.25,0,0,0,1.46-.31C213.76,204.65,213.36,197.09,210.58,192.75Z" transform="translate(-42.52 -38.86)"/><path class="cls-7" d="M204.88,208.58h0a9.08,9.08,0,0,1-3.93-1,8.21,8.21,0,0,1-2.49.4,6.55,6.55,0,0,1-5.72-3,3.82,3.82,0,0,1,0-3.89,3.21,3.21,0,0,1-2.08-2.5,1.17,1.17,0,0,1,.59-1.38,6.77,6.77,0,0,0,3.26-3.65,8.86,8.86,0,0,0,.45-2c.32-2.1.77-5,3.83-6.91l.09,0,.09.06c.08.07,7.87,6.23,11.7,7.9l.05,0,0,0c2.25,3.5,2.82,8.75,1.29,11.7a4.4,4.4,0,0,1-3.73,2.48A3.56,3.56,0,0,1,204.88,208.58Zm-3.9-1.31.05,0a9,9,0,0,0,3.85,1h0a3.32,3.32,0,0,0,3.16-1.64l0-.08h.08a4.08,4.08,0,0,0,3.57-2.33c1.48-2.85.92-7.94-1.25-11.36-3.66-1.62-10.78-7.17-11.64-7.85-2.87,1.85-3.28,4.5-3.61,6.64a9.65,9.65,0,0,1-.47,2.07,7,7,0,0,1-3.42,3.82c-.47.19-.45.74-.4,1a2.8,2.8,0,0,0,2,2.29l.24,0-.12.21a3.58,3.58,0,0,0-.08,3.77,6.26,6.26,0,0,0,5.46,2.8,8,8,0,0,0,2.45-.4Z" transform="translate(-42.52 -38.86)"/><path class="cls-7" d="M193.3,201.2h-.36v-.3c5.68.24,6.05-5.13,6.07-5.36a2.24,2.24,0,0,1,0,1.41A5.65,5.65,0,0,1,193.3,201.2Z" transform="translate(-42.52 -38.86)"/><path class="cls-7" d="M197.11,199.58l.26.16a4.32,4.32,0,0,0-.37,3.69S195.77,201.92,197.11,199.58Z" transform="translate(-42.52 -38.86)"/><path class="cls-7" d="M200.67,207.67l-.13-.27c3.92-1.94,4-8.48,4-8.55a3.31,3.31,0,0,1,.2,1.55C204.45,202.53,203.58,206.23,200.67,207.67Z" transform="translate(-42.52 -38.86)"/><path class="cls-7" d="M208.31,206.78l-.27-.15c2-3.41.7-7.69.69-7.73a3,3,0,0,1,.61,1.51A10.12,10.12,0,0,1,208.31,206.78Z" transform="translate(-42.52 -38.86)"/><path class="cls-5" d="M165.9,226.76A24.61,24.61,0,0,0,154.5,230c-3.87,2.61-5.68,5.81-4.05,6.56-1.89,2.26-4.91,8.14,4.51,5.76a4.23,4.23,0,0,0,3.84,2.11c3.74,0,6.88-3.67,11.07-5.16,4.45-1.58,13.84-2.79,16.36-7s-.12-8.81-1.89-10.21C181.12,223.62,165.9,226.76,165.9,226.76Z" transform="translate(-42.52 -38.86)"/><path class="cls-6" d="M184.34,222.08a19.63,19.63,0,0,1-2.64.93c7.91,10.79-9.6,12.3-14.19,14.33-3.23,1.43-7.41,7.12-12.4,5a4.12,4.12,0,0,0,3.69,2.1c3.74,0,6.88-3.67,11.07-5.16,4.45-1.58,13.84-2.79,16.36-7S186.11,223.48,184.34,222.08Z" transform="translate(-42.52 -38.86)"/><path class="cls-6" d="M149.55,237.84c-1.27,2-2.13,4.9,1.41,5.06a17.79,17.79,0,0,0,4-.55c.6-3.47,4.89-6.63,10.37-8C156.59,233.26,149.76,243.55,149.55,237.84Z" transform="translate(-42.52 -38.86)"/><path class="cls-6" d="M152.52,231.57c-2.38,2-3.36,4.09-2.16,5.13a21.26,21.26,0,0,1,10.13-5.32C156.18,230.06,151.31,234.3,152.52,231.57Z" transform="translate(-42.52 -38.86)"/><path class="cls-7" d="M158.73,244.61a4.3,4.3,0,0,1-3.83-2.09c-3.61.9-5.77.66-6.41-.68-.73-1.52.75-4,1.73-5.21a1.08,1.08,0,0,1-.51-.88c-.13-1.49,1.81-3.89,4.7-5.84a24.71,24.71,0,0,1,11.48-3.3c.61-.13,15.26-3.17,18.38-4.66l.09,0,.07.06c1.93,1.53,4.47,6.15,1.93,10.41-1.9,3.19-7.64,4.68-12.24,5.88-1.58.41-3.06.79-4.2,1.2a24.13,24.13,0,0,0-4.74,2.52c-2.13,1.34-4.14,2.61-6.38,2.64ZM155,242.17l.06.09a4.06,4.06,0,0,0,3.65,2.05h.07c2.15,0,4.12-1.27,6.21-2.59a24.29,24.29,0,0,1,4.81-2.56c1.15-.41,2.64-.79,4.22-1.2,4.55-1.19,10.22-2.66,12.06-5.74,2.38-4,0-8.47-1.78-10-3.38,1.54-17.77,4.52-18.39,4.65h0a24.25,24.25,0,0,0-11.31,3.25c-3.12,2.11-4.66,4.4-4.57,5.56a.82.82,0,0,0,.51.73l.18.09-.13.15c-1.08,1.28-2.45,3.68-1.81,5,.57,1.19,2.7,1.37,6.16.49Z" transform="translate(-42.52 -38.86)"/><path class="cls-7" d="M155.11,242.36l-.3,0c.47-3.88,5.42-6.41,8.33-7.58a6.43,6.43,0,0,1,2.19-.45C165.24,234.33,155.75,237.15,155.11,242.36Z" transform="translate(-42.52 -38.86)"/><path class="cls-7" d="M150.56,236.7l-.21-.22a23.65,23.65,0,0,1,8-4.72,5.52,5.52,0,0,1,2.13-.38C160.43,231.4,154.35,233,150.56,236.7Z" transform="translate(-42.52 -38.86)"/><path class="cls-1" d="M155.67,105.17s-1.2,5.28-3,6c-7.56-2.48-27.48,2.94-39.52-.9-5.37-8.67-31.4-16.44-35.06-23.17-.71,3.21-.25,11.11-.25,11.11,2.08,5.27,25.36,20.32,28.84,26.16a8.66,8.66,0,0,0,.65-3.62s1.75,4.66,6.29,5c-2.36-2.34-1.64-3.66-1.64-3.66s1.72,3.2,6.87,3.43c-3-1.81-2.48-3.13-2.48-3.13s13.43,5.39,20.6,2.93c-2.16,3.78-3.05,9.1-5,13s-7.88,10.1-9.61,17.9c-1.61,7.24-4.57,32.53,25.68,32.8-.7,4.14.68,9.82-1.51,15.9.81-.5,3.15-2.31,3.15-2.31-1.65,3.64.89,7.44.21,9.85a33.48,33.48,0,0,0,2.59-4.32s-.61,5.76,4.38,8.78a13.8,13.8,0,0,1-.84-5c3.79,6.25,10.36,10.38,14,12.41-.71.15-6.56,1.87-6.11,4.63.64,3.89,6.95,2.63,10,2.14,1.55-.24,4.69.08,7.33-.64,2.9-.79,5.64-3.63,5-5.5-1.07-3.32-3.77-3.86-7.33-7.28s-7.45-11-13.05-13.5c.74-18.47,9.16-23,7-31.47s-7-23.53-3.21-36.64c7.71,3,16.85,10.2,24.81,13.27-1.68,8.21,6,30.13,5.86,32.22-.18,2.78-1.82,2.77-1.76,4.19s2,2.11,2.62,2.93c.91,1.26,1.22,8.21,7.1,7.58,3.3-.35,3.47-8,.82-10.88,2.23-10.86-3.47-36.4-.36-41.7-1.07.23-3.41,2.89-3.41,2.89s.58-5-1.63-8.59a14.13,14.13,0,0,1-1.12,5.15s.65-3.37-2.52-6.89a10.56,10.56,0,0,1-.33,4.12c-2-4.4-7.39-6.91-13.69-12.44-5.49-4.82-8.68-10-16.13-10.45-1.27-2-2.09-8.4-1.73-9.1C166.15,107.13,155.67,105.17,155.67,105.17Z" transform="translate(-42.52 -38.86)"/><path class="cls-2" d="M136.94,125.33s4-6,6-6.9c-1,1.36-4,5.68-4.26,5.94C138,124.75,136.94,125.33,136.94,125.33Z" transform="translate(-42.52 -38.86)"/><path class="cls-3" d="M186.23,225c-1.07-3.32-3.77-3.86-7.33-7.28s-7.45-11-13.05-13.5c.74-18.47,9.16-23,7-31.47-1.94-7.66-6.13-20.76-4.06-32.92.07-.41.75-3.25.84-3.66a19.87,19.87,0,0,1-5.41-5.48c1.53,7.48-2.74,13.22-2.41,22.51.23,6.53,3.86,13.07,3.71,20.91-.17,8.63-6.14,16.69-6.92,29.35,6.81,1.55,14.29,14,17.3,16.62,2.42,2.14,7.59,3.75,6.06,7.29-.95,2.21-4.81,3.16-8.54,3.84l.42-.07c1.55-.24,4.69.08,7.33-.64C184.09,229.69,186.83,226.85,186.23,225Z" transform="translate(-42.52 -38.86)"/><path class="cls-2" d="M164,227.85c3.24-2.38,5.12-3,9.15-2.11-6.44-4.15-15.49-11.12-17.6-16.1a12,12,0,0,0-.72,4.08,14.46,14.46,0,0,1-1.88-8.09c-.87,1.49-1.71,2.54-2.32,3.75-.12-3-1.54-3.24.33-8.82-.61.9-2.17,1.54-2.53,2,.54-1.58.31-9.13.54-12.53a73.19,73.19,0,0,1,2.18-12.09C150,180,148.5,186.4,148,189.05c-.09.2-.08,1.89-.2,2.09-.15,3.87.53,8.7-1.31,13.81.81-.5,3.15-2.31,3.15-2.31-1.65,3.64.89,7.44.21,9.85a33.48,33.48,0,0,0,2.59-4.32s-.61,5.76,4.38,8.78a13.8,13.8,0,0,1-.84-5c3.79,6.25,10.36,10.38,14,12.41C169.36,224.48,165,225.76,164,227.85Z" transform="translate(-42.52 -38.86)"/><path class="cls-3" d="M122.41,173.25c3.21,9,8.9,13.65,18.91,15.26,1.46.24,5,.46,6.7.54.93-4.29,2-9.14,3.16-11.14C148.37,182.67,131.8,187.31,122.41,173.25Z" transform="translate(-42.52 -38.86)"/><path class="cls-8" d="M113.72,117.87a8.2,8.2,0,0,0,0,3.95,7.26,7.26,0,0,1-3.18-4.59,5.47,5.47,0,0,0-.87,3.8,12.87,12.87,0,0,1-3-4.87,10.16,10.16,0,0,0-1,4.19c-2.11-3.23-8.3-8.29-14-13.09C85.43,102,80.58,97.89,77.19,95.42c0,2.19.62,2.82.62,2.82,2.08,5.27,25.36,20.32,28.84,26.16a8.66,8.66,0,0,0,.65-3.62s1.75,4.66,6.29,5c-2.36-2.34-1.64-3.66-1.64-3.66s1.72,3.2,6.87,3.43c-3-1.81-2.48-3.13-2.48-3.13s13.93,5.62,20.8,2.78c2.07-3.44,3.24-4.3,5.79-6.75-3.15.47-5.82,3.87-9.73,4.56C128.09,123.9,115.78,121.42,113.72,117.87Z" transform="translate(-42.52 -38.86)"/><path class="cls-2" d="M114.23,111.76c5.67,1.7,19.14,1.19,23.26.11.1-.1-.9-.71-1.38-.8-7.72.6-16.68,1.24-23-.77-5.37-8.67-31.4-16.44-35.06-23.17a18.23,18.23,0,0,0-.4,2.39c11.89,8.37,33,15.11,35.63,24A2.34,2.34,0,0,0,114.23,111.76Z" transform="translate(-42.52 -38.86)"/><path class="cls-2" d="M195.9,145.67a5.94,5.94,0,0,0-2.14,2.2s-7.9-5-14.48-8.59-14.08-7.27-15-8.61c.61,2.11,4.57,4.45,5.41,5.48,0,0,0,0,0-.06,7.71,3,16.85,10.2,24.81,13.27-1.68,8.21,6,30.13,5.86,32.22-.18,2.78-1.82,2.77-1.76,4.19a1.59,1.59,0,0,0,.11.49c1.16-1.36,3.09-2.82,3-4.61C201.63,176.83,193.71,155.72,195.9,145.67Z" transform="translate(-42.52 -38.86)"/><path class="cls-3" d="M209.11,185.4c2.23-10.86-3.47-36.4-.36-41.7-1.07.23-3.41,2.89-3.41,2.89s.58-5-1.63-8.59a14.13,14.13,0,0,1-1.12,5.15s.65-3.37-2.52-6.89a10.56,10.56,0,0,1-.33,4.12c-2-4.4-7.39-6.91-13.69-12.44-5.49-4.82-8.68-10-16.13-10.45-1.27-2-2.09-8.4-1.73-9.1-2-1.26-12.52-3.22-12.52-3.22s-1.2,5.28-3,6c-3.32-1.09-9-.65-15.39-.15,7.27,7.2,16.38,5,20.09,5.38,2.71.28,4.35,1,4.65,3.74,13.32-.12,15.31,5.79,22,10.5,6.18,4.34,11.88,6.5,15.62,14.83a5.62,5.62,0,0,0,1.09-2.93s.59,2.3,1.3,5.57a7.5,7.5,0,0,0,1.91-2.78s-.08,2.51-.38,5.22c3.51,2.85,4,30.63,2.08,33.46,3.11,2.51,6.44,12.59-.87,11.45a5,5,0,0,0,3.52.79C211.59,195.93,211.76,188.26,209.11,185.4Z" transform="translate(-42.52 -38.86)"/><path class="cls-4" d="M168.64,231.86c-3,0-4.62-1-4.93-2.86-.41-2.54,4.22-4.25,5.86-4.7-6.14-3.51-10.64-7.48-13.42-11.83a13.47,13.47,0,0,0,.83,4.42l.18.43-.4-.24a9.64,9.64,0,0,1-4.47-8.26,25.18,25.18,0,0,1-2.31,3.77l-.44.48.18-.62a8,8,0,0,0-.28-3.52,10.5,10.5,0,0,1-.12-5.84c-.72.56-2.13,1.61-2.73,2l-.37.23.15-.41a29.58,29.58,0,0,0,1.29-10.75,32.6,32.6,0,0,1,.18-5c-9.92-.12-17.2-3-21.63-8.45-6.89-8.54-4.82-20.93-4-24.53,1.19-5.37,4.34-9.93,6.87-13.6a38.35,38.35,0,0,0,2.76-4.34,43.55,43.55,0,0,0,2.21-6,39.84,39.84,0,0,1,2.59-6.73,15,15,0,0,1-4.2.53c-6.57,0-14.67-3-16-3.51,0,.38.18,1.43,2.44,2.79l.51.31-.59,0c-4.24-.19-6.22-2.4-6.81-3.21-.05.49.08,1.59,1.69,3.18l.29.29-.41,0c-3.56-.26-5.46-3.15-6.13-4.45a7.67,7.67,0,0,1-.67,3l-.12.24-.14-.24c-1.66-2.78-8-7.79-14.14-12.64-6.69-5.29-13.62-10.76-14.72-13.54v-.05c0-.32-.45-7.94.26-11.15L78,86.7l.19.36c1.72,3.15,8.51,6.59,15.7,10.22,8.09,4.09,16.47,8.32,19.33,12.89a38.1,38.1,0,0,0,11.42,1.4c4.08,0,8.28-.33,12.34-.65,3.55-.28,6.91-.55,9.77-.55a19.9,19.9,0,0,1,5.88.67c1.71-.79,2.88-5.85,2.89-5.9l0-.14.15,0c.43.08,10.53,2,12.57,3.24l.12.07-.06.13c-.31.61.4,6.81,1.68,8.88,5.77.42,9,3.58,12.7,7.23,1.08,1.07,2.2,2.17,3.44,3.26,2.17,1.91,4.26,3.47,6.1,4.84,3.38,2.53,6.08,4.56,7.45,7.28a11.4,11.4,0,0,0,.22-3.68l0-.45.31.34a9.37,9.37,0,0,1,2.61,6,17.13,17.13,0,0,0,.76-4.2l0-.48.25.41c1.83,3,1.77,6.91,1.69,8.24.67-.74,2.31-2.42,3.19-2.61l.33-.07-.17.3c-1.57,2.68-.84,10.78-.06,19.35.75,8.31,1.52,16.91.45,22.22,1.91,2.12,2.27,6.45,1.32,9a2.9,2.9,0,0,1-2.28,2.13c-.26,0-.51,0-.75,0-4.06,0-5.22-3.85-5.92-6.15a6.29,6.29,0,0,0-.57-1.53,4.91,4.91,0,0,0-1-.84c-.77-.57-1.65-1.22-1.69-2.17a2,2,0,0,1,.65-1.48,4.08,4.08,0,0,0,1.1-2.73,43.1,43.1,0,0,0-1.49-6.19c-2.06-7.52-5.49-20.06-4.38-25.93a89.48,89.48,0,0,1-12.6-6.74,88.62,88.62,0,0,0-11.93-6.42c-3.32,11.63.17,24.76,2.48,33.46.28,1.05.54,2,.77,2.94,1,4-.37,7.26-2.12,11.33A51.12,51.12,0,0,0,166,204.1c3.69,1.7,6.64,5.57,9.24,9A41.22,41.22,0,0,0,179,217.6a33.49,33.49,0,0,0,3.47,2.83c1.79,1.3,3.2,2.34,3.9,4.5A2.71,2.71,0,0,1,186,227a8.31,8.31,0,0,1-4.8,3.6,21.21,21.21,0,0,1-5.14.52,18.08,18.08,0,0,0-2.2.12l-.5.08A29.68,29.68,0,0,1,168.64,231.86Zm-12.77-20.44.26.44c2.76,4.55,7.44,8.71,13.92,12.36l.34.2-.39.08c-1,.21-6.4,1.94-6,4.45.29,1.76,1.8,2.61,4.63,2.61a30.53,30.53,0,0,0,4.7-.5l.5-.08a16.88,16.88,0,0,1,2.24-.13,21,21,0,0,0,5.07-.51,8,8,0,0,0,4.61-3.46,2.38,2.38,0,0,0,.32-1.86c-.66-2.07-2-3-3.78-4.35a32.68,32.68,0,0,1-3.51-2.86,41.76,41.76,0,0,1-3.79-4.55c-2.6-3.41-5.54-7.28-9.21-8.92l-.09,0v-.11a51.39,51.39,0,0,1,4.92-20.29c1.8-4.18,3.1-7.2,2.1-11.13-.23-.91-.49-1.9-.77-3-2.33-8.77-5.85-22-2.43-33.78l0-.16.16.07a86,86,0,0,1,12.14,6.51,87.23,87.23,0,0,0,12.67,6.75l.12,0,0,.12c-1.17,5.75,2.29,18.38,4.36,25.92a42.79,42.79,0,0,1,1.5,6.28,4.43,4.43,0,0,1-1.17,2.91,1.72,1.72,0,0,0-.59,1.28c0,.8.85,1.41,1.57,1.94a5,5,0,0,1,1,.9,6.53,6.53,0,0,1,.61,1.63c.72,2.36,1.8,5.93,5.63,5.93.23,0,.47,0,.71,0a2.68,2.68,0,0,0,2-1.94c.93-2.43.56-6.67-1.32-8.69l-.05-.06,0-.07c1.08-5.27.3-13.88-.45-22.21s-1.45-16.11-.08-19.17a15.62,15.62,0,0,0-3,2.7l-.32.37.06-.49s.51-4.63-1.36-8.07a13.94,13.94,0,0,1-1.1,4.72l-.48.92.19-1a8.36,8.36,0,0,0-2.18-6.41,10.33,10.33,0,0,1-.37,3.72l-.13.36-.16-.35c-1.28-2.84-4-4.91-7.54-7.53-1.84-1.38-3.93-2.94-6.11-4.86-1.25-1.09-2.37-2.19-3.46-3.26-3.68-3.63-6.87-6.77-12.58-7.15h-.08l0-.06c-1.25-1.92-2-7.91-1.78-9.11-2.07-1.15-11-2.88-12.23-3.11-.21.87-1.35,5.28-3.08,6l0,0-.06,0a19.09,19.09,0,0,0-5.84-.68c-2.85,0-6.2.27-9.75.55-4.06.32-8.26.66-12.36.66a38.23,38.23,0,0,1-11.56-1.44H113l0-.05c-2.79-4.52-11.15-8.74-19.24-12.83-7-3.53-13.57-6.86-15.62-10-.57,3.27-.2,10.19-.17,10.65,1.09,2.72,8,8.15,14.61,13.4,6,4.73,12.17,9.61,14.06,12.48a8.67,8.67,0,0,0,.51-3.29l0-1,.34.89s1.67,4.28,5.76,4.83c-2.07-2.2-1.41-3.48-1.38-3.53l.13-.25.14.25s1.61,2.88,6.15,3.31c-2.53-1.69-2.06-2.94-2-3l.06-.14.14.06c.09,0,8.95,3.56,16,3.56a14,14,0,0,0,4.47-.63l.38-.13-.2.34a37.89,37.89,0,0,0-2.75,7,44.65,44.65,0,0,1-2.23,6,38,38,0,0,1-2.78,4.38c-2.51,3.65-5.65,8.18-6.83,13.5-.79,3.56-2.83,15.84,4,24.27,4.39,5.44,11.65,8.25,21.57,8.34h.18l0,.18a30.17,30.17,0,0,0-.21,5.07,30.23,30.23,0,0,1-1.16,10.42c1-.67,2.75-2,2.77-2l.49-.38-.26.56c-1,2.09-.48,4.26-.06,6.17a10.67,10.67,0,0,1,.38,3,43.45,43.45,0,0,0,2.21-3.81l.37-.73-.08.81c0,.06-.52,5.41,3.91,8.39a14.07,14.07,0,0,1-.68-4.64Z" transform="translate(-42.52 -38.86)"/><path class="cls-4" d="M113.29,113.47a4.78,4.78,0,0,0-.4-3.25l.26-.16A4.22,4.22,0,0,1,113.29,113.47Z" transform="translate(-42.52 -38.86)"/><path class="cls-4" d="M136.63,126.23l-.27-.14a31.22,31.22,0,0,1,5.06-6.57,4.85,4.85,0,0,1,1.51-1.09S138.43,122.68,136.63,126.23Z" transform="translate(-42.52 -38.86)"/><path class="cls-4" d="M209,185.48a3.45,3.45,0,0,0-1.77-1.09,2.74,2.74,0,0,1,2,.92Z" transform="translate(-42.52 -38.86)"/><path class="cls-4" d="M164.69,118.39a9.84,9.84,0,0,1,5.2-.75l.06-.3a8.68,8.68,0,0,0-3.52.17A7.68,7.68,0,0,0,164.69,118.39Z" transform="translate(-42.52 -38.86)"/><path class="cls-4" d="M169.73,136.27a23.84,23.84,0,0,1-4.62-4.05,3.71,3.71,0,0,1-.87-1.55A22.94,22.94,0,0,0,169.9,136Z" transform="translate(-42.52 -38.86)"/><path class="cls-5" d="M149.05,173.13c7.36-9,1.56-13.7.53-23.32-.93-8.7,10.12-13.71,6.09-22.42-4.65-10-17-3.28-18.73-2.06-2.16,3.78-3.05,9.1-5,13s-7.88,10.1-9.61,17.9c-.73,3.28-1.73,10.23.18,16.89C128.88,179,142.53,181.15,149.05,173.13Z" transform="translate(-42.52 -38.86)"/><path class="cls-9" d="M125.76,153.23c2.09-4.62,7.31-11.6,8.64-14.18,1.43-2.79,3.36-13.24,4.46-14.82a15,15,0,0,0-1.92,1.1c-2.16,3.78-3.05,9.1-5,13s-7.88,10.1-9.61,17.9a37,37,0,0,0-.1,15.82C122.35,171.38,123.31,158.66,125.76,153.23Z" transform="translate(-42.52 -38.86)"/><path class="cls-7" d="M136.87,178.51h0a22.1,22.1,0,0,1-14.46-5.26l0,0v0c-2-7-.8-14.19-.18-17,1.19-5.37,4.34-9.93,6.87-13.6a38.35,38.35,0,0,0,2.76-4.34,43.55,43.55,0,0,0,2.21-6,38.12,38.12,0,0,1,2.78-7.07l0,0a21.13,21.13,0,0,1,10.45-3.39,8.76,8.76,0,0,1,8.51,5.51c2.24,4.85-.08,8.5-2.53,12.36-1.95,3.06-4,6.23-3.55,10.11a40,40,0,0,0,1.74,7.59c1.62,5.29,2.89,9.46-2.3,15.84C146.4,176.64,142,178.51,136.87,178.51Zm-14.22-5.45a22.13,22.13,0,0,0,14.22,5.15c5.06,0,9.35-1.84,12.06-5.17,5.09-6.25,3.84-10.36,2.25-15.56a40.45,40.45,0,0,1-1.75-7.65c-.43-4,1.61-7.19,3.59-10.3,2.41-3.79,4.69-7.37,2.51-12.08a8.49,8.49,0,0,0-8.23-5.33c-4.57,0-9.26,2.62-10.24,3.31a37.57,37.57,0,0,0-2.74,7,44.65,44.65,0,0,1-2.23,6,38,38,0,0,1-2.78,4.38c-2.51,3.65-5.65,8.18-6.83,13.5C121.88,159,120.68,166.13,122.65,173.06Z" transform="translate(-42.52 -38.86)"/><path class="cls-4" d="M148.1,189.56l-.3,0a52.31,52.31,0,0,1,1.67-7.62,17.08,17.08,0,0,1,1.71-4A51.07,51.07,0,0,0,148.1,189.56Z" transform="translate(-42.52 -38.86)"/><path class="cls-4" d="M166.4,204.64a12.86,12.86,0,0,0-6.47-1.53,3.38,3.38,0,0,1,1.76-.23,12.71,12.71,0,0,1,4.86,1.49Z" transform="translate(-42.52 -38.86)"/><path class="cls-4" d="M172.79,225.62s-1.89-.68-3-1.19l.13-.27C171,224.66,172.79,225.62,172.79,225.62Z" transform="translate(-42.52 -38.86)"/><path class="cls-4" d="M194.63,149.37l-.31,0a11.33,11.33,0,0,1,.48-2.1,3.25,3.25,0,0,1,1.1-1.57A8.57,8.57,0,0,0,194.63,149.37Z" transform="translate(-42.52 -38.86)"/><path class="cls-5" d="M79.38,87.88c-1.89-3.38-4.64-3-7.08-6.57s0-9.72-2.24-9.68-6.15,4.26-5.53,8.14c.81,5.09,3.91,6.55,3.34,9a51.34,51.34,0,0,1-20.8,7.26c-2.45.26-3.71,3-1.45,4.69-.92.45-3.85,1.65-2.68,4s5.91,3.47,7.49,3.32c-1.21,1.07-.8,3.69,2,4.13,8,1.27,32.1-12.68,26.47-17.3C79.33,93.46,80.73,90.28,79.38,87.88Z" transform="translate(-42.52 -38.86)"/><path class="cls-6" d="M78.92,94.92c.41-1.46,1.81-4.64.46-7-1.89-3.38-4.64-3-7.08-6.57s0-9.72-2.24-9.68a5.6,5.6,0,0,0-3.73,2.44c3.82-2,1.74,3.94,3.37,6.89,1.87,3.38,6.87,6,7.65,8.86.49,1.84.1,2.94-2.68,3.06,3.54,5-1.36,8.48-5.31,10.92-3.38,2.09-19,9.67-19.07,4.43-1.21,1.9.18,3.68,2.16,4C60.5,113.49,84.55,99.54,78.92,94.92Z" transform="translate(-42.52 -38.86)"/><path class="cls-6" d="M60.81,101.85c-6.75,5.36-19.55,3.12-15.19-1.09-2.26.88-3.55,2.25-2.68,4,1,1.92,4.26,3,6.31,3.27,3.69,0,9.59-1.63,13-5.17A9.79,9.79,0,0,1,60.81,101.85Z" transform="translate(-42.52 -38.86)"/><path class="cls-6" d="M59.17,95.07c-.7.75-.32,2.91-.44,3.16.59,3.15,2.39,4.57,5.64,5.09C60.55,101.86,58.73,97,59.17,95.07Z" transform="translate(-42.52 -38.86)"/><path class="cls-6" d="M58.89,99.33s-.13-1.73-.13-2.64c-2.52,3.19-14.52,3.83-13.28,0a2.29,2.29,0,0,0-.44,3.51C46.74,102.08,52.64,101.86,58.89,99.33Z" transform="translate(-42.52 -38.86)"/><path class="cls-6" d="M65.12,100.91a14.48,14.48,0,0,1,7.59-4.13C69.18,96.2,66.24,97.82,65.12,100.91Z" transform="translate(-42.52 -38.86)"/><path class="cls-7" d="M53.58,112.45h0a7,7,0,0,1-1.16-.08,3.12,3.12,0,0,1-2.68-2.06,2.31,2.31,0,0,1,.33-2.06c-2,0-6.16-1.19-7.26-3.41a2.31,2.31,0,0,1-.18-1.8c.43-1.22,1.9-1.93,2.7-2.31A2.59,2.59,0,0,1,44.38,98a3.06,3.06,0,0,1,2.67-2.1,51,51,0,0,0,20.68-7.2c.24-1.13-.32-2-1.08-3.28a14.21,14.21,0,0,1-2.27-5.65,7.76,7.76,0,0,1,2-6,5.77,5.77,0,0,1,3.64-2.32h0a1,1,0,0,1,.74.28c.52.52.49,1.69.46,3.17,0,2-.09,4.47,1.16,6.29a10.9,10.9,0,0,0,3.65,3.29,8.75,8.75,0,0,1,3.45,3.3c1.18,2.1.31,4.79-.21,6.4-.08.24-.16.46-.21.66a2.4,2.4,0,0,1,.6,2.86C77.69,103.24,61.33,112.45,53.58,112.45Zm-2.71-4.56-.34.31a1.93,1.93,0,0,0-.49,2,2.8,2.8,0,0,0,2.43,1.85,6.44,6.44,0,0,0,1.11.08h0c7.67,0,23.85-9.09,25.84-14.52a2.15,2.15,0,0,0-.59-2.6L78.75,95l0-.09c.06-.22.14-.48.23-.76.51-1.57,1.36-4.18.24-6.17a8.5,8.5,0,0,0-3.35-3.19,11.17,11.17,0,0,1-3.73-3.37C70.87,79.48,70.92,77,71,74.93c0-1.36.05-2.53-.38-3a.66.66,0,0,0-.49-.19A5.59,5.59,0,0,0,66.65,74a7.49,7.49,0,0,0-2,5.76,13.94,13.94,0,0,0,2.23,5.53c.78,1.28,1.4,2.29,1.11,3.56l0,.06,0,0a51.35,51.35,0,0,1-20.87,7.28,2.75,2.75,0,0,0-2.41,1.88,2.33,2.33,0,0,0,1,2.54l.2.15-.43.21c-.76.36-2.17,1-2.56,2.13a2,2,0,0,0,.16,1.57c1,2.1,5.19,3.25,7,3.25h.3Z" transform="translate(-42.52 -38.86)"/><path class="cls-7" d="M69.68,93a5.65,5.65,0,0,1-2-4.17l.31,0a5.5,5.5,0,0,0,1.85,4,4.3,4.3,0,0,0,2.88.85A3.74,3.74,0,0,1,69.68,93Z" transform="translate(-42.52 -38.86)"/><path class="cls-7" d="M65.12,100.91A3.34,3.34,0,0,1,66,99.09a7.73,7.73,0,0,1,4.56-2.5,4,4,0,0,1,2.17.19A7.55,7.55,0,0,0,65.12,100.91Z" transform="translate(-42.52 -38.86)"/><path class="cls-7" d="M79.15,95.36a5.58,5.58,0,0,0-3-1.46,4.75,4.75,0,0,1,3.18,1.25Z" transform="translate(-42.52 -38.86)"/><path class="cls-7" d="M62.5,103.08a6.32,6.32,0,0,1-3.21-2.69,6.51,6.51,0,0,1-.75-3.5,3.56,3.56,0,0,1,.63-1.82,7.07,7.07,0,0,0,.39,5.18,6.83,6.83,0,0,0,4.69,3.07A7.14,7.14,0,0,1,62.5,103.08Z" transform="translate(-42.52 -38.86)"/><path class="cls-7" d="M50.1,108.25l0-.3c8.73-1,12.09-5.17,12.12-5.21l.24.18S59,107.26,50.1,108.25Z" transform="translate(-42.52 -38.86)"/><path class="cls-7" d="M49.63,101.64a9.41,9.41,0,0,1-4.27-.89l.14-.27c5,2.5,13.32-1.34,13.4-1.38l.13.28A25.81,25.81,0,0,1,49.63,101.64Z" transform="translate(-42.52 -38.86)"/><path class="cls-1" d="M169.86,45.49c-7.28-3.55-20.86-2.5-28.8,12.12,4,6.48,23.59,55.61,24.22,57.5,7.83,4.41,14.69-.86,14.69-.86A16,16,0,0,1,177,118.9c5.47-1.46,7.15-7.66,7.15-7.66a33.77,33.77,0,0,1,.12,5.6c4.37-4.73,2.76-9.58,2.76-9.58a18.81,18.81,0,0,1,2.37,3c1.08-4.2,1.24-5.68.18-8.46,1.89-2,7.69-14.53,8.69-16.91C203.37,73.16,195.62,46.65,169.86,45.49Z" transform="translate(-42.52 -38.86)"/><path class="cls-2" d="M157.27,45.69c11.22-1.94,21.93,1.68,31.55,7a30.36,30.36,0,0,0-19-7.23c-5-2.36-11.1-2.41-17.24.45-4.28,2-8.21,5.94-10.92,10.73C145.57,52.52,151.26,46.5,157.27,45.69Z" transform="translate(-42.52 -38.86)"/><path class="cls-3" d="M189.42,110.27c1.08-4.2,1.24-5.68.18-8.46,1.89-2,7.7-14.52,8.7-16.91,3.29-7.63,1.17-21.48-7.76-30.58,13.66,15.43-7.7,44.34-16.28,37.05-.32.69,3.41,13.85.46,16.54-3.07,2.93-8.26,3.17-11.85,1,1.38,3.47,2.27,5.76,2.4,6.14,7.83,4.42,14.69-.86,14.69-.86a16,16,0,0,1-2.93,4.66c5.46-1.47,7.14-7.67,7.14-7.67a32.54,32.54,0,0,1,.12,5.6c4.37-4.73,2.76-9.57,2.76-9.57A19,19,0,0,1,189.42,110.27Z" transform="translate(-42.52 -38.86)"/><path class="cls-4" d="M166.85,116a16.65,16.65,0,0,1-1.65-.8l0,0v-.05c-.84-2.51-20.37-51.18-24.2-57.46l-.05-.07,0-.07c3.44-6.34,8.32-10.74,14.09-12.74a20.23,20.23,0,0,1,14,.15c.3.12.59.26.88.39a33,33,0,0,1,11,2.34,30.32,30.32,0,0,1,16.47,16.8c3,7.12,3.37,15.16,1.07,20.49-1,2.32-6.68,14.68-8.66,16.88,1,2.74.89,4.2-.2,8.47l-.09.34-.17-.31a16,16,0,0,0-2-2.61,10.56,10.56,0,0,1-2.91,9.19l-.27.29,0-.39a34.22,34.22,0,0,0-.05-4.93c-.61,1.63-2.6,5.94-7,7.13l-.51.14.38-.37a15,15,0,0,0,2.71-4.17A14.13,14.13,0,0,1,166.85,116Zm-1.46-1a12.58,12.58,0,0,0,1.57.76c7,2.85,12.85-1.58,12.91-1.63l.41-.31-.19.47a16.65,16.65,0,0,1-2.6,4.32c4.93-1.66,6.53-7.35,6.55-7.41l.19-.69.08.71a32.36,32.36,0,0,1,.15,5.22,10,10,0,0,0,2.46-9.14l-.19-.58.42.44a19.62,19.62,0,0,1,2.22,2.76c1-4,1.11-5.41.1-8l0-.08.06-.06c1.86-2,7.72-14.61,8.67-16.87,2.26-5.26,1.84-13.22-1.08-20.27a30.1,30.1,0,0,0-16.32-16.66,32.56,32.56,0,0,0-10.92-2.31h0l0,0c-.29-.13-.58-.27-.89-.39a19.82,19.82,0,0,0-13.78-.14c-5.69,2-10.5,6.29-13.9,12.53C145.13,64.12,164.33,112,165.39,115Z" transform="translate(-42.52 -38.86)"/><path class="cls-5" d="M176.67,57.73c-3.84-2.26-11-4.47-19,1.44,1.73-4.06.33-8.1-4.84-8.42-6.55-.39-17.4,9.15-18.37,24.15-2.35,1.53.15,13.68-.27,15.41-.84,4.13-9.13,5.13-4.1,14.79,3.23,6.21,15.27,12,23,7.74,6,.45,19,5.85,25.5-.57,5.95-5.86,5.67-16.69-4.52-20.84C181.21,82.51,188.92,64.92,176.67,57.73Z" transform="translate(-42.52 -38.86)"/><path class="cls-6" d="M132,100.71c4,2.68,16.78-3.38,13.5-11.06C139.55,91.21,127,94.84,132,100.71Z" transform="translate(-42.52 -38.86)"/><path class="cls-6" d="M174,91.43c7.15-8.89,14.83-26.42,2.72-33.65,8.87,7.23.57,25.23-5.41,34.29,4.66,1.17,7.56,6.19,6.14,10.32-4,11.54-15.46,9.53-18.83,5.11-2.9,2.48-17.56,9.77-29.69-4.88a17.81,17.81,0,0,0,1.08,2.48c3.23,6.21,15.27,12,23,7.74,6,.45,19,5.85,25.5-.57C184.51,106.41,184.23,95.58,174,91.43Z" transform="translate(-42.52 -38.86)"/><path class="cls-6" d="M137.56,67.68c0-2.59,4.07-9.91,7.25-9.12,3.79.94.64,8.85-1.36,11.23C141.89,71.62,137.53,70.74,137.56,67.68Z" transform="translate(-42.52 -38.86)"/><path class="cls-10" d="M139.89,63.06l6.89.77s-.05-2.86-2.28-3.58S139.89,63.06,139.89,63.06Z" transform="translate(-42.52 -38.86)"/><path class="cls-11" d="M145.67,68.67c-1.57,3.4-4.44,5.44-6.39,4.55s-2.27-4.35-.7-7.75S143,60,145,60.91,147.24,65.27,145.67,68.67Z" transform="translate(-42.52 -38.86)"/><path class="cls-12" d="M137.79,67.79c-.55,2.54,0,4.75,1.49,5.43s3.31-.25,4.84-2.09l-1.08.2A5.16,5.16,0,0,1,137.79,67.79Z" transform="translate(-42.52 -38.86)"/><path class="cls-10" d="M139.3,73.38l-.08,0a3.44,3.44,0,0,1-1.76-3,9.93,9.93,0,0,1,1-4.89c1.62-3.49,4.52-5.56,6.58-4.63a3.44,3.44,0,0,1,1.75,3,9.79,9.79,0,0,1-1,4.89C144.2,72.17,141.35,74.22,139.3,73.38ZM144.84,61c-1.88-.77-4.63,1.26-6.14,4.52a9.59,9.59,0,0,0-1,4.75,3.21,3.21,0,0,0,1.59,2.82c1.89.86,4.69-1.19,6.21-4.49a9.59,9.59,0,0,0,1-4.75A3.15,3.15,0,0,0,144.91,61Z" transform="translate(-42.52 -38.86)"/><path class="cls-13" d="M143.67,65.18c-1.23-.46-2.8.62-3.51,2.41s-.27,3.62,1,4.08,2.8-.63,3.51-2.42S144.9,65.64,143.67,65.18Z" transform="translate(-42.52 -38.86)"/><path class="cls-14" d="M141.34,69.49a3.45,3.45,0,0,1-1.27-1.63c-.56,1.7-.12,3.37,1.05,3.81s2.76-.6,3.48-2.36A3.16,3.16,0,0,1,141.34,69.49Z" transform="translate(-42.52 -38.86)"/><path class="cls-10" d="M143.31,67c-.8-.3-1.85.46-2.34,1.7s-.22,2.48.59,2.78,1.85-.46,2.33-1.7S144.12,67.28,143.31,67Z" transform="translate(-42.52 -38.86)"/><path class="cls-11" d="M143.17,67a1,1,0,1,0,.38,1.28A1,1,0,0,0,143.17,67Z" transform="translate(-42.52 -38.86)"/><path class="cls-11" d="M141.35,69.82a.43.43,0,0,0-.57.22.44.44,0,0,0,.17.59.43.43,0,0,0,.57-.22A.44.44,0,0,0,141.35,69.82Z" transform="translate(-42.52 -38.86)"/><path class="cls-15" d="M143.7,65.11c-1.28-.47-2.9.63-3.62,2.45s-.31,3.53.85,4.11l.16.07c1.28.47,2.9-.63,3.62-2.46S145,65.59,143.7,65.11Zm-2.52,6.4c-1.16-.43-1.53-2.18-.87-3.86s2.15-2.74,3.3-2.31l.14.06c1,.52,1.36,2.19.73,3.8S142.33,71.93,141.18,71.51Z" transform="translate(-42.52 -38.86)"/><path class="cls-5" d="M146.34,62.48s-.48,7.82-7.68,11.62c2.66,2,8.36,2.56,8.36,2.56l2.23-10.73Z" transform="translate(-42.52 -38.86)"/><path class="cls-10" d="M140.56,75.28a9.28,9.28,0,0,1-2-1.07l-.18-.13.2-.11c7-3.71,7.6-11.42,7.6-11.5l.28,0c0,.07-.56,7.79-7.56,11.62C141.59,76,147,76.52,147,76.52l0,.28A27.13,27.13,0,0,1,140.56,75.28Z" transform="translate(-42.52 -38.86)"/><path class="cls-9" d="M135.62,75.74c-.16-7.2,3.56-15.57,9.06-21.65h-.12c-4.94,4-9.52,11.29-10.14,20.8a1.62,1.62,0,0,0-.57.77C134.38,76,135.52,76.39,135.62,75.74Z" transform="translate(-42.52 -38.86)"/><path class="cls-7" d="M139.38,112.84c-4.27-1.74-7.9-4.68-9.46-7.68-3.45-6.62-.72-9.23,1.68-11.52A7.14,7.14,0,0,0,134,90.28a22.82,22.82,0,0,0-.26-4.28c-.45-4.23-1-10,.53-11.18A30.44,30.44,0,0,1,141.41,57c3.57-4.12,7.94-6.55,11.39-6.34,2.6.15,4.48,1.3,5.27,3.19a6.78,6.78,0,0,1-.13,5c6.69-4.72,12.67-3.86,16.53-2.28a16.49,16.49,0,0,1,2.27,1.12A12.47,12.47,0,0,1,183,66.4c1.46,7.87-3.31,18.18-8.72,25,4.43,1.86,7.31,5.14,8.13,9.26a13.06,13.06,0,0,1-3.73,11.74c-5,4.88-13.71,3-20.09,1.6a46.55,46.55,0,0,0-5.48-1C149.44,115,144.45,114.91,139.38,112.84ZM155.2,51.41a7.69,7.69,0,0,0-2.42-.52c-6.68-.41-17.28,9.5-18.22,24V75l-.06,0c-1.51,1-.88,7-.46,11a21.86,21.86,0,0,1,.25,4.37c-.28,1.37-1.36,2.4-2.5,3.49-2.33,2.24-5,4.76-1.62,11.21,1.53,2.93,5.1,5.83,9.32,7.55,5,2,9.92,2.09,13.5.13l0,0h0a45.75,45.75,0,0,1,5.56,1c6.32,1.37,15,3.25,19.83-1.53a12.82,12.82,0,0,0,3.66-11.49c-.82-4.08-3.7-7.31-8.12-9.12l-.17-.07.1-.15c5.42-6.74,10.23-17,8.77-24.89a12.24,12.24,0,0,0-6.1-8.61,21,21,0,0,0-2.23-1.1c-3.88-1.58-9.91-2.42-16.66,2.54l-.41.3.2-.47a6.72,6.72,0,0,0,.31-5.2A4.62,4.62,0,0,0,155.2,51.41Z" transform="translate(-42.52 -38.86)"/><path class="cls-7" d="M146.51,60.68a2.88,2.88,0,0,0-1.68-2,2.66,2.66,0,0,0-2.06.41,2.35,2.35,0,0,1,2.15-.67A2.4,2.4,0,0,1,146.51,60.68Z" transform="translate(-42.52 -38.86)"/><path class="cls-16" d="M162.77,92.51c-3.15,2.43-9.09,2.64-14.41,1.52l-8.12,1.5s-7.85.66-8.24,5c6.91,5.9,23.31,2.2,32.07-6.38A13.18,13.18,0,0,0,162.77,92.51Z" transform="translate(-42.52 -38.86)"/><path class="cls-17" d="M147.22,94.24l-7,1.29s-7.85.66-8.24,5c5.2,4.44,13.78,3.29,21.37.25C153.91,96.08,150.85,94.76,147.22,94.24Z" transform="translate(-42.52 -38.86)"/><path class="cls-7" d="M134.82,102.35h0a10.82,10.82,0,0,1-2.92-1.74l-.05,0v-.07c.4-4.37,8-5.07,8.37-5.09l8.14-1.52h0c4.7,1,10.92,1.12,14.29-1.49l.1-.08.09.09A12.31,12.31,0,0,1,164.18,94l.07.1-.08.08C156.45,101.78,142.74,105.58,134.82,102.35Zm-2.68-1.9a10.47,10.47,0,0,0,2.79,1.64c7.79,3.19,21.29-.55,29-8a14.67,14.67,0,0,0-1.14-1.41c-3.46,2.59-9.68,2.46-14.39,1.48l-8.1,1.5C140.17,95.68,132.6,96.36,132.14,100.45Z" transform="translate(-42.52 -38.86)"/><path class="cls-11" d="M139,86.08c-1.58,1.18-3.68.65-5.6-.56-.71,1.41-1.53,3.28-1,4,2.25,3.31,12.94,10.27,26.36,3.83C151.09,94.33,140.15,90.58,139,86.08Z" transform="translate(-42.52 -38.86)"/><path class="cls-12" d="M148.14,92.33c-5,2.48-10.42.8-15.3-2.21,3,3.46,13.22,9.36,25.92,3.27A27.84,27.84,0,0,1,148.14,92.33Z" transform="translate(-42.52 -38.86)"/><path class="cls-18" d="M138.51,94.22a15.65,15.65,0,0,1-6.23-4.58c-.43-.64-.11-2,1-4.18l.06-.14.14.08a9.58,9.58,0,0,0,1.2.66,4.17,4.17,0,0,0,4.23-.09l.17-.12.06.2c.44,1.74,2.43,3.48,5.62,4.91a28.64,28.64,0,0,0,14,2.3l.84-.11-.76.37C149.64,97.92,142.15,95.85,138.51,94.22Zm-5-8.5c-1,2-1.31,3.24-.95,3.76A15.1,15.1,0,0,0,138.63,94,23.33,23.33,0,0,0,158,93.61a29.39,29.39,0,0,1-13.31-2.4c-3.15-1.41-5.17-3.14-5.72-4.9a4.4,4.4,0,0,1-4.35,0A8.53,8.53,0,0,1,133.47,85.72Z" transform="translate(-42.52 -38.86)"/><path class="cls-5" d="M157.35,84.41C151,76.13,144,74.52,140.83,73.22c-6.1-1.89-13.21,4.89-13.82,7.92-.48,2.37,6.92,9.66,10.72,6.63,1.62,5.66,19,9.6,25.13,4.67Z" transform="translate(-42.52 -38.86)"/><path class="cls-9" d="M140.83,73.22c-4.57-1.42-9.7,2-12.25,5.12,10.59-7.86,21-.89,26.15,3.45.39.33.82.61,1.23.91C150,75.9,143.77,74.42,140.83,73.22Z" transform="translate(-42.52 -38.86)"/><path class="cls-19" d="M146.59,79.52s-3.65,1.12-6.36-.14c-2.34-1.14-2.75-2.58-2.63-4.06A11.6,11.6,0,0,1,146.59,79.52Z" transform="translate(-42.52 -38.86)"/><path class="cls-20" d="M140.42,79.61l-.25-.11c-2.6-1.26-2.81-2.9-2.71-4.19v-.12h.13a11.19,11.19,0,0,1,4.5.88,11.06,11.06,0,0,1,4.6,3.38l.12.16-.19.05A10.51,10.51,0,0,1,140.42,79.61Zm-2.69-4.15c-.07,1.24.21,2.65,2.56,3.79l.24.11a10.24,10.24,0,0,0,5.83.08,11.63,11.63,0,0,0-8.63-4Z" transform="translate(-42.52 -38.86)"/><path class="cls-6" d="M127,81.14a4.39,4.39,0,0,0,.84,2.29c1.24,2.09,6.19,6.61,9.77,4.42a9,9,0,0,0,4.31,3.93,26.83,26.83,0,0,0,9.89,2.75c1.61.1,8.19.45,11-2.13-9.26,3-24.28-3-24.37-8.56C135.77,87.13,128.29,84.28,127,81.14Z" transform="translate(-42.52 -38.86)"/><path class="cls-7" d="M143.55,92.72c-3.15-1.28-5.28-3-5.9-4.72-1.41,1-3.43.81-5.7-.54-2.86-1.71-5.37-4.86-5.07-6.35.33-1.68,2.75-4.69,6.05-6.63,2-1.15,4.94-2.32,7.95-1.39.46.19,1,.37,1.59.59a29.88,29.88,0,0,1,13.66,8.8,14.69,14.69,0,0,1,1.22,1.93,29.49,29.49,0,0,0-15-10.47c-.61-.22-1.14-.4-1.6-.59-2.9-.9-5.79.25-7.71,1.37-3.23,1.9-5.59,4.82-5.92,6.44-.25,1.25,2,4.29,4.95,6.06,1.3.78,3.75,1.87,5.54.45l.16-.14.06.2c.6,2.08,3.51,4.11,7.79,5.45,5.74,1.79,13.46,2.08,17.12-.85l.17.22c-3.73,3-11.56,2.71-17.37.89C144.86,93.22,144.18,93,143.55,92.72Z" transform="translate(-42.52 -38.86)"/><path class="cls-7" d="M165,96.15a12.3,12.3,0,0,0-4.55-5.41,4.83,4.83,0,0,1,1.88,1.13,12.48,12.48,0,0,1,2,2.45A8.3,8.3,0,0,1,165,96.15Z" transform="translate(-42.52 -38.86)"/><path class="cls-21" d="M143.8,72.39A6.61,6.61,0,0,0,137.32,74a2.19,2.19,0,0,0,1.53,3.5,1.84,1.84,0,0,0,1.53,2.6c2.54.64,2.29-1.7,3.35-1.68s1.91,2.15,3.37,1.38C148.27,79.12,148.34,73.92,143.8,72.39Z" transform="translate(-42.52 -38.86)"/><path class="cls-22" d="M147.45,76c-.35,3.79-2.18,1.14-4.19,1.27-1.18.07-1.32,1.91-2.51,1.57-1.49-.42-1-2.52-.05-3.34-2.23.85-3.22.73-3.74-.82a2.19,2.19,0,0,0,1.89,2.81,1.84,1.84,0,0,0,1.53,2.6c2.54.64,2.29-1.7,3.35-1.68s1.91,2.15,3.37,1.38C147.74,79.41,148.05,77.69,147.45,76Z" transform="translate(-42.52 -38.86)"/><path class="cls-20" d="M139.82,80a1.87,1.87,0,0,1-1.14-2.46,2.32,2.32,0,0,1-1.47-3.7,6.69,6.69,0,0,1,6.63-1.6,5.87,5.87,0,0,1,4.07,5.28c.05,1.13-.24,2.06-.75,2.33a1.36,1.36,0,0,1-1.24.07h0a3.67,3.67,0,0,1-1-.74,2.24,2.24,0,0,0-1.15-.69c-.31,0-.48.24-.74.63a2.1,2.1,0,0,1-2.65,1A5.3,5.3,0,0,1,139.82,80ZM139,77.33l0,.15a1.72,1.72,0,0,0,1.42,2.44,1.81,1.81,0,0,0,2.34-.93c.26-.39.51-.76,1-.75a1.1,1.1,0,0,1,.4.08,3.51,3.51,0,0,1,.93.67,3.66,3.66,0,0,0,1,.7,1.11,1.11,0,0,0,1-.06c.34-.18.65-.95.6-2.07a5.59,5.59,0,0,0-3.88-5A6.49,6.49,0,0,0,137.42,74a2.08,2.08,0,0,0-.34,1.75,2,2,0,0,0,1.79,1.52Z" transform="translate(-42.52 -38.86)"/><path class="cls-20" d="M138.68,77.56a1.71,1.71,0,0,1,.91-1.27,2.84,2.84,0,0,0-.64,1.33Z" transform="translate(-42.52 -38.86)"/><path class="cls-23" d="M144.62,73.65c-.05.45-1.1.69-2.34.54s-2.19-.63-2.14-1.08,1.1-.69,2.34-.55S144.68,73.2,144.62,73.65Z" transform="translate(-42.52 -38.86)"/><path class="cls-24" d="M132,100.5c4.59,3.92,13.38,3.6,21.33.42-2.19-3-8.25-3.06-11.1-2.75a8.11,8.11,0,0,0-6.48-1.49A4.82,4.82,0,0,0,132,100.5Z" transform="translate(-42.52 -38.86)"/><path class="cls-25" d="M153.33,100.92c-2.19-3-8.25-3.06-11.1-2.75a8.11,8.11,0,0,0-6.48-1.49l-.34.09c3.27.26,4.21,1.25,3.2,3,1.47-.6,6.78-1.48,7,.86.2,2-8.48,2-11.93,1C138.56,104.31,146.28,103.74,153.33,100.92Z" transform="translate(-42.52 -38.86)"/><path class="cls-7" d="M153.44,100.84l-.07-.09-.27.1h0c-6.76,2.67-13.55,3.13-18.18,1.23a10.59,10.59,0,0,1-2.75-1.61l-.19.2a11,11,0,0,0,2.83,1.67h0c4.74,1.94,11.68,1.45,18.56-1.3l.17-.06Z" transform="translate(-42.52 -38.86)"/><path class="cls-26" d="M132.15,100.45a4.69,4.69,0,0,1,3.63-3.64,8.18,8.18,0,0,1,6.37,1.47l0,0h.06a18.84,18.84,0,0,1,8.41.83,5.9,5.9,0,0,1,2.44,1.71l.27-.1a6.14,6.14,0,0,0-2.6-1.87,19.24,19.24,0,0,0-8.5-.85,8.44,8.44,0,0,0-1.81-1,7.89,7.89,0,0,0-4.74-.47,5,5,0,0,0-3.86,3.94v.08l.05,0,.09.07.19-.2Z" transform="translate(-42.52 -38.86)"/><path class="cls-7" d="M132.15,100.81a3.51,3.51,0,0,1-1.27-3.93,4.13,4.13,0,0,0,1.45,3.72Z" transform="translate(-42.52 -38.86)"/><path class="cls-26" d="M138.61,99.79a3,3,0,0,1,1.1-1A7.49,7.49,0,0,1,142.4,98l0,.28A9,9,0,0,0,138.61,99.79Z" transform="translate(-42.52 -38.86)"/><path class="cls-7" d="M153.12,113l-.12-.25c4.46-2.11,5.63-4.81,5.64-4.84a3.32,3.32,0,0,1-.9,1.79A14.29,14.29,0,0,1,153.12,113Z" transform="translate(-42.52 -38.86)"/><path class="cls-1" d="M171.29,39c3,3.2,2.16,5.2,2.16,5.2s-7.31-8.11-14.61-2.29c7.09,1.07,8.88,3.72,8.88,3.72s-5.2-1.64-9.29,1.39a12.65,12.65,0,0,1,7,2.77l13.38-1.35C179,44.22,176.17,39.63,171.29,39Z" transform="translate(-42.52 -38.86)"/><path class="cls-2" d="M168.77,46.8c-1.05-3.29-4.16-4.37-6.75-5.43,4.9-1.31,8.95,1.2,11.94,4.38,1.21-2.88.23-6.22-2.59-6.7h-.08c3,3.2,2.16,5.2,2.16,5.2s-7.31-8.11-14.61-2.29c7.09,1.07,8.88,3.72,8.88,3.72s-5.2-1.64-9.29,1.39a13.54,13.54,0,0,1,5.49,1.71c-.71-1-2.23-1.48-3.46-2.12C162.92,45.86,164.59,45.49,168.77,46.8Z" transform="translate(-42.52 -38.86)"/><path class="cls-4" d="M158.05,47.16l.29-.21c3.41-2.52,7.61-1.84,9-1.53-.74-.73-3-2.51-8.49-3.34l-.32,0,.25-.2c6.7-5.33,13.47,1,14.63,2.13.11-.59.17-2.34-2.19-4.84l-.26-.27.38,0c4.8.58,7.69,5,7.81,9a1.7,1.7,0,0,1-.29.62c.18-3.91-2.51-8.47-7.17-9.25,2.75,3.07,2,5,1.92,5.07l-.09.2-.15-.17c-.07-.07-7.13-7.75-14.16-2.47,6.8,1.1,8.58,3.63,8.66,3.74l.22.33-.38-.13c-.05,0-4.93-1.51-8.87,1.16a14.65,14.65,0,0,1,5.62,1.85,2.43,2.43,0,0,1,1,1,13.61,13.61,0,0,0-7-2.64Z" transform="translate(-42.52 -38.86)"/><path class="cls-5" d="M203.67,85.35c-7.82-7.84-17.43,3.13-20.29,8a15.1,15.1,0,0,1,6.09,8.11C199.38,106.55,210.48,92.18,203.67,85.35Z" transform="translate(-42.52 -38.86)"/><path class="cls-9" d="M202.36,86.06a9.48,9.48,0,0,1,3,7.12,7.65,7.65,0,0,0-1.7-7.83c-7.82-7.84-17.43,3.13-20.29,8l.48.32C188.34,88.13,195.58,80.49,202.36,86.06Z" transform="translate(-42.52 -38.86)"/><path class="cls-7" d="M190.25,101.93h0c-.29-.12-.57-.25-.85-.39l-.05,0,0-.05a14.85,14.85,0,0,0-6-8l-.11-.07.07-.12c2.13-3.6,9.9-13.2,17.3-10.18a9.81,9.81,0,0,1,3.21,2.2c2.86,2.86,2.86,7.42,0,11.62C201.06,100.85,195.66,104.14,190.25,101.93Zm-.67-.61a7.59,7.59,0,0,0,.77.35h0c5.28,2.15,10.54-1.06,13.19-5,2.11-3.09,3.38-7.9,0-11.27a9.76,9.76,0,0,0-3.11-2.14c-7.15-2.91-14.69,6.32-16.89,10A15.18,15.18,0,0,1,189.58,101.32Z" transform="translate(-42.52 -38.86)"/><path class="cls-6" d="M191.86,99.91c-2.16-1.35-1.91-3.31-.8-4.49s3.5-1.29,3.28,1.17c1.22-1.48,1.17-2.8-1.51-3.41,3.68-2.84,7.58-.51,3.3,5.19,2.35-1.36,5.27-5.05,2.58-7.53-4-3.56-9.43,1.66-11.87,5.65a17.18,17.18,0,0,1,2.63,4.92c5.91,3.07,12.24-.81,14.95-5.88C201.08,99.45,194.39,101.48,191.86,99.91Z" transform="translate(-42.52 -38.86)"/><path class="cls-7" d="M186.89,96.49l-.22-.16c1.81-2.52,6.45-8.22,10.42-6.66a3.82,3.82,0,0,1,2.76,3.09c.18,1.64-.85,3.43-2.21,4.75a6.23,6.23,0,0,1-1.51.86c1.88-1.23,3.66-3.54,3.44-5.58-.13-1.27-1-2.23-2.58-2.86C193.2,88.44,188.67,94,186.89,96.49Z" transform="translate(-42.52 -38.86)"/><path class="cls-7" d="M194.34,96.59c.75-1.16.85-2,.31-2.57-1.08-1.09-4.5-.68-6,.18l-.14-.24c1.35-.8,5-1.42,6.3-.13a1.62,1.62,0,0,1,.29,1.78A3.79,3.79,0,0,1,194.34,96.59Z" transform="translate(-42.52 -38.86)"/><path class="cls-6" d="M158.24,75.6c-.94-3,2.6-11.18,7.9-9.92,6.31,1.51,4.39,10.44,2.14,13C166.54,80.67,159.36,79.17,158.24,75.6Z" transform="translate(-42.52 -38.86)"/><path class="cls-10" d="M157.78,77.22c-.94-3,2.6-11.18,7.9-9.91,6.31,1.5,4.39,10.43,2.14,13C166.08,82.29,158.9,80.79,157.78,77.22Z" transform="translate(-42.52 -38.86)"/><path class="cls-11" d="M157.64,77.84c-.95-3,2.59-11.18,7.89-9.92,6.31,1.51,4.39,10.44,2.14,13C165.93,82.91,158.75,81.41,157.64,77.84Z" transform="translate(-42.52 -38.86)"/><path class="cls-12" d="M157.51,76.08a4.66,4.66,0,0,0,.13,1.76c1.11,3.57,8.29,5.07,10,3.08a8.91,8.91,0,0,0,1.61-3.23C165.46,79.53,160.24,79.43,157.51,76.08Z" transform="translate(-42.52 -38.86)"/><path class="cls-10" d="M161.1,81.17a5.82,5.82,0,0,1-3.6-3.29c-.58-1.88.5-5.8,2.83-8.24A5.35,5.35,0,0,1,169.72,72a11.65,11.65,0,0,1-1.94,9C166.62,82.34,163.47,82.14,161.1,81.17Zm5.29-12.83a6.16,6.16,0,0,0-.89-.28,5.16,5.16,0,0,0-5,1.77c-2.26,2.37-3.32,6.17-2.76,8a5.55,5.55,0,0,0,3.44,3.11c2.55,1,5.41,1,6.36-.08a11.52,11.52,0,0,0,1.88-8.75A5.06,5.06,0,0,0,166.39,68.34Z" transform="translate(-42.52 -38.86)"/><path class="cls-13" d="M166.33,72.13c-1.67-.58-3.69.84-4.52,3.16s-.13,4.68,1.54,5.26,3.7-.85,4.52-3.17S168,72.71,166.33,72.13Z" transform="translate(-42.52 -38.86)"/><path class="cls-14" d="M163.51,77.73a4.66,4.66,0,0,1-1.8-2.09c-.64,2.2,0,4.36,1.65,4.91s3.64-.81,4.48-3.09A4.28,4.28,0,0,1,163.51,77.73Z" transform="translate(-42.52 -38.86)"/><path class="cls-10" d="M166,74.47c-1.1-.38-2.45.61-3,2.21s-.14,3.21,1,3.59,2.44-.62,3-2.22S167.07,74.84,166,74.47Z" transform="translate(-42.52 -38.86)"/><path class="cls-11" d="M165.78,74.44a1.25,1.25,0,1,0,.59,1.65A1.24,1.24,0,0,0,165.78,74.44Z" transform="translate(-42.52 -38.86)"/><path class="cls-11" d="M163.54,78.16a.57.57,0,1,0,.27.75A.56.56,0,0,0,163.54,78.16Z" transform="translate(-42.52 -38.86)"/><path class="cls-15" d="M166.37,72c-1.73-.6-3.83.85-4.67,3.22s-.18,4.56,1.39,5.29l.23.09c1.73.59,3.82-.85,4.66-3.22S168.1,72.64,166.37,72Zm-2.94,8.3c-1.58-.54-2.19-2.79-1.42-5s2.69-3.56,4.25-3l.2.08c1.42.65,2,2.8,1.22,4.89S165,80.87,163.43,80.34Z" transform="translate(-42.52 -38.86)"/><path class="cls-1" d="M166.36,62.5c-.88,0,.3-2.71,3.15-2.54s6.67,4,5.45,10.33C172.53,65,170,62.57,166.36,62.5Z" transform="translate(-42.52 -38.86)"/><path class="cls-3" d="M167.33,60.48c-1.21.74-1.57,2-1,2,3.53.07,6.23,2.69,8.62,7.75C174.37,65,171.59,61.64,167.33,60.48Z" transform="translate(-42.52 -38.86)"/><path class="cls-4" d="M175,70.75l-.18-.4c-1.85-4-3.75-6.3-6-7.22a6.53,6.53,0,0,0-2.48-.49.47.47,0,0,1-.17,0h0c-.22-.09-.3-.33-.23-.66a3.4,3.4,0,0,1,3.56-2.11,4.07,4.07,0,0,1,1.35.32c2.85,1.16,5.22,5,4.23,10.17Zm-6.08-7.88c2.28.93,4.12,3.09,6,7,.76-4.77-1.47-8.34-4.14-9.43a4.27,4.27,0,0,0-1.26-.3,3.09,3.09,0,0,0-3.26,1.9c0,.17,0,.36.13.36A7.22,7.22,0,0,1,168.94,62.87Z" transform="translate(-42.52 -38.86)"/><path class="cls-1" d="M152.39,57.28c.47.49,1.42-1.58-.16-3.11s-5.81-1.7-8.85,2.28C147.74,55.08,150.48,55.26,152.39,57.28Z" transform="translate(-42.52 -38.86)"/><path class="cls-3" d="M143.58,56.39c4.24-1.3,6.92-1.09,8.81.89.38.39,1.16-.61.59-1.91C149.73,53.93,145.72,54.34,143.58,56.39Z" transform="translate(-42.52 -38.86)"/><path class="cls-4" d="M143,56.72l.26-.35c2.5-3.27,5.88-3.84,8-3a3.31,3.31,0,0,1,1.09.68,2.62,2.62,0,0,1,.64,3.14c-.2.3-.49.36-.68.16a5,5,0,0,0-1.8-1.24c-1.67-.69-3.92-.54-7.06.45Zm8.13-3.08c-1.92-.78-5-.29-7.37,2.55,3-.9,5.17-1,6.83-.32a5.5,5.5,0,0,1,1.9,1.31l0,0c.05,0,.13-.05.21-.16a2.32,2.32,0,0,0-.61-2.78A3.36,3.36,0,0,0,151.14,53.64Z" transform="translate(-42.52 -38.86)"/><path class="cls-4" d="M183.32,93.11l-.15.23a15,15,0,0,1,6.3,8.51l.27-.08A15.33,15.33,0,0,0,183.32,93.11Z" transform="translate(-42.52 -38.86)"/><path class="cls-7" d="M137.59,87.78a18.61,18.61,0,0,1,2.1-7.82l.25.12a18.48,18.48,0,0,0-2.07,7.69Z" transform="translate(-42.52 -38.86)"/><path class="cls-7" d="M164.08,65.79a1.48,1.48,0,0,1,1-.36,5.45,5.45,0,0,1,2.48.63,4,4,0,0,1,.91,1A5.16,5.16,0,0,0,164.08,65.79Z" transform="translate(-42.52 -38.86)"/></svg>