<svg id="Layer_1" data-name="Layer 1" xmlns="http://www.w3.org/2000/svg" viewBox="0 0 226.77 193.91"><defs><style>.cls-1{fill:#854d26;}.cls-2{fill:#9d7152;}.cls-3{fill:#5b2d17;}.cls-4{fill:#2e190f;}.cls-5{fill:#f8d0b4;}.cls-6{fill:#f5aa90;}.cls-7{fill:#aa6a53;}.cls-8{fill:#693918;}.cls-9{fill:#fcece1;}.cls-10{fill:#69140f;}.cls-11{fill:#280d0e;}.cls-12{fill:#f0847d;}.cls-13{fill:#ed6964;}.cls-14{fill:#783533;}.cls-15{fill:#fff;}.cls-16{fill:#cdcccc;}.cls-17{fill:#676767;}.cls-18{fill:#010101;}.cls-19{fill:#4386c6;}.cls-20{fill:#295ea9;}.cls-21{fill:#223975;}.cls-22{fill:#874332;}.cls-23{fill:#a42d2b;}.cls-24{fill:#f29079;}.cls-25{fill:#df705a;}.cls-26{fill:#fad2ca;}</style></defs><path class="cls-1" d="M158.39,200.17c16.77,3.1,27.89-10.81,30.68-24.85,3.27-16.4-17.29-62.25,5.15-78,9.78-6.89,20.83-4.31,22.14.59,3,11.1-10.06,7.77-15.59,13-15.37,14.61-.44,44,.13,57.53.58,13.93-8.38,43.42-40.24,38.42C160.25,205.42,158.39,200.17,158.39,200.17Z" transform="translate(-28.56 -42.48)"/><path class="cls-2" d="M190.81,175.67c1.9-10.6-5.55-33.91-5-53.78.42-15.66,11.62-32,29.68-25.73-6.73-5.88-16.68-2.09-21.26,1.13-22.44,15.78-1.88,61.63-5.15,78-2.63,13.23-12.64,26.33-27.81,25.22C176.65,205.7,188.26,189.88,190.81,175.67Z" transform="translate(-28.56 -42.48)"/><path class="cls-3" d="M216.36,97.88a2.9,2.9,0,0,0-.23-.62c1,7.54-13.08,4.65-20,11.44-14.53,14.25.11,44.71,1,57.17,1.29,19.09-11.14,45.52-37.83,37.56.55,1.59,1.19,2.64,1.41,3.43,31.86,5,40.82-24.49,40.24-38.42-.57-13.57-15.5-42.92-.13-57.53C206.3,105.65,219.33,109,216.36,97.88Z" transform="translate(-28.56 -42.48)"/><path class="cls-4" d="M160.53,207l0-.1c-.41-1.42-2.25-6.63-2.26-6.68l-.1-.28.29.05c16.18,3,27.58-10.16,30.48-24.72,1.07-5.39-.43-13.88-2.16-23.71-3.45-19.51-7.73-43.79,7.37-54.42,4.85-3.41,10.74-4.89,15.76-4,3.51.65,6.05,2.43,6.64,4.64.67,2.49.58,4.41-.27,5.87-1.35,2.31-4.39,3.11-7.61,4-2.84.74-5.79,1.51-7.75,3.38-11,10.45-6.4,28.45-2.71,42.91,1.46,5.73,2.73,10.68,2.89,14.5.39,9.43-3.4,23.35-12.67,31.62-7.16,6.39-16.5,8.74-27.76,7Zm-1.88-6.62c.38,1.07,1.74,5,2.15,6.32,11.1,1.72,20.32-.6,27.38-6.9,9.18-8.19,12.94-22,12.55-31.36-.16-3.79-1.42-8.71-2.87-14.42-3.72-14.55-8.34-32.66,2.79-43.24,2-1.94,5-2.71,7.91-3.47,3.15-.82,6.12-1.6,7.4-3.79.8-1.38.88-3.21.24-5.61-.56-2.09-3-3.77-6.38-4.4-4.94-.91-10.73.55-15.5,3.9-14.93,10.51-10.67,34.67-7.24,54.09,1.74,9.87,3.24,18.39,2.16,23.84C186.32,190,174.9,203.22,158.65,200.39Z" transform="translate(-28.56 -42.48)"/><path class="cls-5" d="M229.37,191.8s3.64-5.83,8.14-9c4-2.79,11.37-3.92,14-1.27,1.37.17,5.39,2.08,2.78,5.12.23,1.89-1.09,3.6-3.27,4.89-2.68,1.59-8.71,3.74-10.43,5.59s-5.07,8.25-5.2,9.79c1.32.13,3.79,1.32,6.26,0s7-3.71,8-1.92c1.25,2.28-3.64,6.46-6.32,7.74-1.07.51-3.76.83-6.5,1.48-3.64.85-7.68,3.14-10.11,2.92C226.06,213,229.37,191.8,229.37,191.8Z" transform="translate(-28.56 -42.48)"/><path class="cls-6" d="M247.28,204.49c2.9,1.42-2.47,5.34-4.86,6.28-3.47,1.37-7.1.42-15.55,2.94-.32,3.23-.37,2.22-.19,3.44,2.43.22,6.47-2.07,10.11-2.92,2.74-.65,5.43-1,6.5-1.48,2.68-1.28,7.57-5.46,6.32-7.74C249.23,204.34,248.36,204.26,247.28,204.49Z" transform="translate(-28.56 -42.48)"/><path class="cls-6" d="M252.55,181.84c1,3.37-10.62.54-15.42,10,5-3.74,13.5-7.5,17.17-5.16C256.33,184.41,254.62,182.56,252.55,181.84Z" transform="translate(-28.56 -42.48)"/><path class="cls-6" d="M239.1,185.33c4-2.45,7.06-3.85,12.42-3.79a9.12,9.12,0,0,0-5.23-1.49C248.3,181.25,241.11,181.21,239.1,185.33Z" transform="translate(-28.56 -42.48)"/><path class="cls-6" d="M239.1,194.38c-2.19,2.18-4.47,9.07-3.87,12.6,1-2.51,4-8.39,5.37-9.84,1.72-1.85,7.75-4,10.43-5.59,2.1-1.24,3.82-3.06,3.1-4.94C253.57,189.6,241.93,191.58,239.1,194.38Z" transform="translate(-28.56 -42.48)"/><path class="cls-7" d="M227,217.33h-.35l-.12,0,0-.12c-.62-4.12,2.55-24.54,2.69-25.41l0-.06c0-.06,3.71-5.89,8.19-9a17.5,17.5,0,0,1,9.28-2.8,7,7,0,0,1,4.9,1.5c1,.15,3,1,3.58,2.52a2.74,2.74,0,0,1-.71,2.81c.19,1.82-1,3.59-3.36,5-1,.59-2.42,1.25-3.94,1.95-2.52,1.15-5.38,2.47-6.45,3.61-1.72,1.85-4.83,7.84-5.14,9.54.29,0,.61.12,1,.21a11,11,0,0,0,2.55.38,5.12,5.12,0,0,0,2.47-.59c1.8-1,4.81-2.58,6.68-2.58a1.56,1.56,0,0,1,1.49.72,2.16,2.16,0,0,1,.08,1.74c-.74,2.29-4.27,5.17-6.47,6.23a17.85,17.85,0,0,1-3.47.85c-.94.18-2,.39-3.07.63a39.75,39.75,0,0,0-4.44,1.47A17.65,17.65,0,0,1,227,217.33Zm-.19-.33c1.41.07,3.37-.67,5.45-1.45a35,35,0,0,1,4.48-1.48c1.07-.25,2.13-.46,3.08-.64a17.25,17.25,0,0,0,3.39-.83c2.15-1,5.59-3.82,6.3-6a1.86,1.86,0,0,0-.06-1.48,1.24,1.24,0,0,0-1.2-.56c-1.78,0-4.75,1.59-6.52,2.54a5.44,5.44,0,0,1-2.63.64,11,11,0,0,1-2.63-.4,9.24,9.24,0,0,0-1.1-.22h-.16l0-.16c.13-1.62,3.57-8.08,5.24-9.89,1.11-1.19,3.88-2.46,6.55-3.69,1.51-.69,2.94-1.35,3.91-1.93,2.27-1.34,3.41-3,3.2-4.73v-.07l.05-.06a2.47,2.47,0,0,0,.69-2.53c-.51-1.32-2.43-2.2-3.37-2.32h-.05l0,0c-.95-1-2.58-1.45-4.71-1.45a17.18,17.18,0,0,0-9.09,2.75c-4.27,3-7.8,8.46-8.08,8.91C229.38,192.8,226.31,212.71,226.82,217Z" transform="translate(-28.56 -42.48)"/><path class="cls-7" d="M239.1,185.33a7.12,7.12,0,0,1,2.24-1.58,24.38,24.38,0,0,1,10.07-2.38h.11v.33h-.11A24.75,24.75,0,0,0,239.1,185.33Z" transform="translate(-28.56 -42.48)"/><path class="cls-7" d="M237.13,191.82a4.9,4.9,0,0,1,1.4-1.24c3.57-2.12,12.21-6.71,15.87-4.05l-.2.26C249.82,183.6,237.26,191.74,237.13,191.82Z" transform="translate(-28.56 -42.48)"/><path class="cls-5" d="M54.52,191.8s-3.64-5.83-8.15-9c-4-2.79-11.36-3.92-14-1.27-1.36.17-5.39,2.08-2.78,5.12-.23,1.89,1.1,3.6,3.28,4.89,2.68,1.59,8.71,3.74,10.42,5.59s5.07,8.25,5.21,9.79c-1.33.13-3.79,1.32-6.26,0s-7-3.71-7.95-1.92c-1.26,2.28,3.63,6.46,6.32,7.74,1.07.51,3.75.83,6.5,1.48,3.64.85,7.51,3.63,10.11,2.92C57.82,213,54.52,191.8,54.52,191.8Z" transform="translate(-28.56 -42.48)"/><path class="cls-6" d="M42.71,193.69c-2.35-1.68-13.22-5.44-11.06-7.79a4,4,0,0,0-2.07.76c-.23,1.89,1.1,3.6,3.28,4.89,2.68,1.59,8.71,3.74,10.42,5.59,1.25,1.34,4.08,6.38,5.38,9.94A15.59,15.59,0,0,0,42.71,193.69Z" transform="translate(-28.56 -42.48)"/><path class="cls-6" d="M32.47,181.37c-3.75,1-4.49,3.39-2.89,5.29,4.3-2.81,13.57,2.77,17.18,5.16C41.08,182,28.72,184.6,32.47,181.37Z" transform="translate(-28.56 -42.48)"/><path class="cls-6" d="M44.78,185.33c-2.09-4-8.76-4.56-7-5.29-1.45-.21-4.09.14-5.27,1.47C35.37,181.37,42,183.13,44.78,185.33Z" transform="translate(-28.56 -42.48)"/><path class="cls-6" d="M56.68,213.15c-5.42,1.54-6.72-1.29-9-1.79-2.58-.56-4.28.07-6.42-.73-2.37-.88-6.68-4.16-5.88-5.95a.85.85,0,0,1,.29-.31,1.44,1.44,0,0,0-1.38.64c-1.26,2.28,3.63,6.46,6.32,7.74,1.07.51,3.75.83,6.5,1.48,3.64.85,7.51,3.63,10.11,2.92C57.36,216.1,56.91,215.79,56.68,213.15Z" transform="translate(-28.56 -42.48)"/><path class="cls-7" d="M56.29,217.43h0a14.32,14.32,0,0,1-5.06-1.53,27.59,27.59,0,0,0-4.17-1.52c-1.06-.24-2.12-.45-3.06-.63a18,18,0,0,1-3.48-.85c-2.2-1.06-5.73-3.94-6.46-6.23a2.12,2.12,0,0,1,.08-1.74,1.54,1.54,0,0,1,1.49-.72c1.86,0,4.87,1.61,6.67,2.58a5.15,5.15,0,0,0,2.47.59,11.14,11.14,0,0,0,2.56-.38c.36-.09.69-.17,1-.21-.31-1.7-3.42-7.69-5.14-9.54-1.06-1.14-3.92-2.46-6.44-3.61-1.52-.7-2.95-1.36-3.95-1.95-2.35-1.39-3.54-3.16-3.36-5a2.73,2.73,0,0,1-.7-2.81c.57-1.48,2.61-2.37,3.58-2.52a7,7,0,0,1,4.9-1.5,17.46,17.46,0,0,1,9.27,2.8c4.49,3.14,8.16,9,8.19,9l0,.06c.13.87,3.3,21.29,2.69,25.41l0,.1-.1,0A3.66,3.66,0,0,1,56.29,217.43Zm-20.66-12.9a1.26,1.26,0,0,0-1.21.56,1.82,1.82,0,0,0-.05,1.48c.71,2.21,4.14,5,6.3,6a17.06,17.06,0,0,0,3.39.83c.94.18,2,.39,3.08.64a27.14,27.14,0,0,1,4.22,1.53,14.28,14.28,0,0,0,4.93,1.5h0a3.14,3.14,0,0,0,.77-.08c.53-4.24-2.55-24.22-2.7-25.16-.28-.45-3.81-5.93-8.08-8.91a17.18,17.18,0,0,0-9.09-2.75c-2.14,0-3.76.5-4.71,1.45l0,0h-.06c-.93.12-2.86,1-3.37,2.32a2.45,2.45,0,0,0,.7,2.53l.05.06v.07c-.21,1.71.92,3.39,3.19,4.73,1,.58,2.4,1.24,3.91,1.93,2.68,1.23,5.44,2.5,6.55,3.69,1.68,1.81,5.11,8.27,5.25,9.89v.16H48.5a9.64,9.64,0,0,0-1.1.22,10.94,10.94,0,0,1-2.63.4,5.41,5.41,0,0,1-2.62-.64C40.38,206.12,37.41,204.53,35.63,204.53Z" transform="translate(-28.56 -42.48)"/><path class="cls-7" d="M44.78,185.33a24.7,24.7,0,0,0-12.31-3.63h-.11v-.33h.11a24.41,24.41,0,0,1,10.33,2.51A5.78,5.78,0,0,1,44.78,185.33Z" transform="translate(-28.56 -42.48)"/><path class="cls-7" d="M46.76,191.82c-.13-.08-12.69-8.22-17.08-5l-.19-.26c3.19-2.32,10.18.88,14.29,3.14A16,16,0,0,1,46.76,191.82Z" transform="translate(-28.56 -42.48)"/><path class="cls-1" d="M91.16,208.47c-6.17,4.32-17,4.18-20.91,4.91-3.59.67-8.81,4.89-13.41,3.69-3.65-.95-3.42-9.21-4-12.12S46,192.12,51.44,190.62c4.8-1.33,7.8,12,8.16,15.65,6.79-2.12,13.49-11.29,22.66-12,0,0-.8-1.67-4.06-2.77a28.43,28.43,0,0,1,11,.19,9.76,9.76,0,0,0-3.2-3.06c3.75-.51,9.62,3.33,11.53,4.06,0,0,10.65-2.72,12.3-3.11-.86-5.12,8.2-23.55,6.91-31.35-2.88-.2-12.62-7.21-14.91-10.47a173,173,0,0,1,9.3-16.92c4.49-6.87,18.11-6.2,19.83-6.86,1-.6.63-5.36.63-5.36h20.7s-.33,4.76.63,5.36c1.72.66,15.35,0,19.84,6.86a169.9,169.9,0,0,1,9.29,16.92c-2.29,3.26-12,10.27-14.9,10.47-1.3,7.8,7.77,26.23,6.9,31.35,1.65.39,12.3,3.11,12.3,3.11,1.92-.73,7.78-4.57,11.53-4.06a9.9,9.9,0,0,0-3.2,3.06,28.43,28.43,0,0,1,11-.19c-3.26,1.1-4.05,2.77-4.05,2.77,9.17.75,15.87,9.92,22.66,12,.35-3.62,3.35-17,8.15-15.65,5.43,1.5-.83,11.42-1.41,14.33s-.34,11.17-4,12.12c-4.61,1.2-9.83-3-13.42-3.69-3.9-.73-14.74-.59-20.91-4.91-8.64,6.53-36.53,9.4-50.7,9.39C128.43,217.86,99.8,215,91.16,208.47Z" transform="translate(-28.56 -42.48)"/><path class="cls-2" d="M103.54,144.17s7.18-14,9.19-15.44c2.45-1.66,6.67-3.63,9-3.63,0,.06.29.39.32.47-.42,0-7.24,2.5-8.87,4.33s-8.19,14.63-8.37,15Z" transform="translate(-28.56 -42.48)"/><path class="cls-8" d="M144,126.25c5.9,2.12,9.31-.57,18.19,2.67,10.17,3.7,12.16,14,16.23,22.45a22,22,0,0,0,3.67-3.65,169.9,169.9,0,0,0-9.29-16.92c-4.49-6.87-18.12-6.2-19.84-6.86-1-.6-.63-5.36-.63-5.36h-20.7s.33,4.76-.63,5.36c-.74.28-3.72.32-7.23.83C128,128,133.59,130.61,144,126.25Z" transform="translate(-28.56 -42.48)"/><path class="cls-2" d="M59,207.38c4.79.3,17.87-12.52,26-11.81,0-1.31-3-3.35-3-3.35a74.54,74.54,0,0,1,9.91,1.27A7.52,7.52,0,0,0,89,189.87s5.7,1.56,6.35,1.7c-3.09-1.68-7.38-3.25-9.36-3a9.76,9.76,0,0,1,3.2,3.06,28.43,28.43,0,0,0-11-.19c3.26,1.1,4.06,2.77,4.06,2.77-9.17.75-15.87,9.92-22.66,12-.33-3.37-3-15.17-7.18-15.72C55.83,193.35,57.68,202.15,59,207.38Z" transform="translate(-28.56 -42.48)"/><path class="cls-2" d="M190.82,193.25c4.66-.52,9.88-.74,9.88-.74s-1.93,2.38-2.58,3.36c9.69-2.13,17.07,8.63,26.86,12.22.75-6.43,2.6-11.36,5.54-17.23-3.67,2-5.93,12.3-6.23,15.41-6.79-2.12-13.49-11.29-22.66-12,0,0,.79-1.67,4.05-2.77a28.43,28.43,0,0,0-11,.19,9.9,9.9,0,0,1,3.2-3.06c-2.58-.35-7.06,1.82-9.67,3.16,2.25-.51,5.92-1.57,5.92-1.57S191.56,192.46,190.82,193.25Z" transform="translate(-28.56 -42.48)"/><path class="cls-8" d="M215.1,209.31c-5.19-1.16-19.18-.78-24-8.76-8.52,8.15-16.63-.6-13.09-4-2.94-.75-3.08-6.78-3.93-7,.87-5.12-8.2-23.54-6.9-31.35.2-2.3.51-10.85-1.45-16.07-.54-1.42-2.26-5.49-3.55-6.18,4.1,7.31.58,15,1.38,25.85.35,4.77,3.93,26.77-12.44,39.41-10.51,8.12-27.56,7.71-37.67-.24-4.26,2.87-17.82,5.79-20.11-.74-3.26,9.15-17.82,7.61-24,9-7.51,1.74-13.22,9-15.92.62.4,3.2,1.17,6.6,3.43,7.19,4.6,1.2,9.82-3,13.41-3.69,3.91-.73,14.74-.59,20.91-4.91,8.64,6.53,37.27,9.39,50.86,9.39,14.17,0,42.06-2.86,50.7-9.39,6.17,4.32,17,4.18,20.91,4.91,3.59.67,8.81,4.89,13.42,3.69,2.52-.66,3.19-4.81,3.55-8.28C227.16,217.86,221.14,210.66,215.1,209.31Z" transform="translate(-28.56 -42.48)"/><path class="cls-4" d="M142.09,218H142c-13.38,0-42-2.76-50.86-9.36-4.75,3.27-12.18,4-17.1,4.43-1.54.14-2.86.27-3.78.44A20.2,20.2,0,0,0,66,215.17c-2.31,1.06-4.94,2.28-7.45,2.28a7.33,7.33,0,0,1-1.77-.22c-2.93-.77-3.43-5.9-3.79-9.66-.1-1-.18-1.95-.31-2.59a21.67,21.67,0,0,0-1.21-3.22c-1.34-3.13-3.17-7.41-2-9.76a2.94,2.94,0,0,1,2-1.54,2.44,2.44,0,0,1,.71-.1c4.49,0,7.22,12.06,7.63,15.69,2.69-.89,5.39-2.89,8.24-5,4.06-3,8.65-6.42,14-7a7.4,7.4,0,0,0-3.83-2.48l-.59-.2.61-.12a27.1,27.1,0,0,1,4.94-.44,29,29,0,0,1,5.73.56,10.31,10.31,0,0,0-2.92-2.68l-.38-.24.44-.06a5.87,5.87,0,0,1,.74-.05c2.79,0,6.43,1.88,8.83,3.12.82.42,1.53.79,2,1,.78-.19,10.15-2.58,12.11-3.06-.31-2.38,1.24-7.16,3-12.67,2.14-6.62,4.57-14.11,3.93-18.4-3.13-.39-12.7-7.39-14.9-10.53l-.06-.08,0-.08L102,147a164.07,164.07,0,0,1,9-16.3c3.55-5.43,12.51-6.19,17.32-6.6a14.83,14.83,0,0,0,2.59-.33c.61-.38.65-3.39.53-5.19v-.17h21.05v.17c-.13,1.8-.09,4.81.55,5.21a17.12,17.12,0,0,0,2.56.31c4.82.41,13.78,1.17,17.32,6.6a161.34,161.34,0,0,1,9,16.31l.31.63,0,.08-.05.08C180,151,170.42,158,167.29,158.34c-.64,4.29,1.78,11.78,3.92,18.4,1.79,5.51,3.33,10.29,3,12.67,2,.48,11.33,2.87,12.11,3.06.47-.18,1.18-.55,2-1,2.41-1.24,6-3.12,8.83-3.12a5.74,5.74,0,0,1,.74.05l.45.06-.38.24a10.54,10.54,0,0,0-2.93,2.68,29.14,29.14,0,0,1,5.74-.56,27.07,27.07,0,0,1,4.93.44l.62.12-.59.2a7.34,7.34,0,0,0-3.83,2.48c5.34.54,9.93,3.94,14,7,2.85,2.11,5.54,4.11,8.24,5,.41-3.63,3.14-15.69,7.63-15.69a2.53,2.53,0,0,1,.71.1,2.94,2.94,0,0,1,2,1.54c1.13,2.35-.71,6.63-2,9.76a20.86,20.86,0,0,0-1.22,3.22c-.12.64-.21,1.55-.31,2.59-.36,3.76-.85,8.89-3.79,9.66a7.27,7.27,0,0,1-1.77.22c-2.51,0-5.13-1.22-7.45-2.28a19.81,19.81,0,0,0-4.27-1.63c-.92-.17-2.24-.3-3.77-.44-4.93-.46-12.35-1.16-17.1-4.43C183.8,215.28,155.38,218,142.09,218Zm-50.92-9.76.09.07c8.74,6.6,37.37,9.35,50.76,9.36h.07c13.3,0,41.78-2.74,50.53-9.36l.1-.07.1.07c4.67,3.27,12.11,4,17,4.43,1.54.15,2.87.27,3.8.45a20.27,20.27,0,0,1,4.35,1.65c2.28,1,4.87,2.25,7.31,2.25a6.63,6.63,0,0,0,1.69-.21c2.72-.71,3.21-5.92,3.54-9.37.11-1,.19-2,.32-2.63a20.82,20.82,0,0,1,1.24-3.28c1.31-3.07,3.11-7.27,2-9.49a2.59,2.59,0,0,0-1.75-1.37,2.7,2.7,0,0,0-.62-.08c-4.29,0-7,12.42-7.33,15.59l0,.2-.19-.06c-2.81-.87-5.59-2.93-8.53-5.11-4.29-3.18-8.73-6.48-14.1-6.91l-.23,0,.1-.22c0-.06.76-1.55,3.58-2.65a27.09,27.09,0,0,0-4.28-.33,28.59,28.59,0,0,0-6.06.63l-.36.09.18-.33a9.78,9.78,0,0,1,2.86-2.86c-2.73-.11-6.47,1.82-8.92,3.08-.88.46-1.59.82-2.07,1l0,0-.05,0c-.1,0-10.66-2.71-12.3-3.1l-.15,0,0-.15c.38-2.25-1.25-7.31-3-12.67-2.17-6.72-4.64-14.33-3.91-18.68l0-.12h.13c2.89-.2,12.41-7.15,14.72-10.32l-.26-.55a163.68,163.68,0,0,0-9-16.27c-3.46-5.3-12.32-6-17.07-6.45a15.36,15.36,0,0,1-2.69-.35c-1-.6-.8-4.39-.74-5.35H131.76c.06,1,.23,4.75-.71,5.34a15,15,0,0,1-2.71.36c-4.76.4-13.62,1.15-17.08,6.45a163.08,163.08,0,0,0-9,16.27c-.11.23-.2.42-.27.55,2.31,3.17,11.83,10.12,14.73,10.32h.13l0,.12c.72,4.35-1.74,12-3.92,18.68-1.73,5.36-3.37,10.42-3,12.67l0,.15-.15,0c-1.63.39-12.19,3.08-12.3,3.1l0,0,0,0c-.49-.19-1.19-.55-2.08-1-2.38-1.23-6-3.08-8.68-3.08h-.23a9.5,9.5,0,0,1,2.85,2.86l.19.33-.37-.09a28.43,28.43,0,0,0-6-.63,27,27,0,0,0-4.28.33c2.81,1.1,3.54,2.59,3.57,2.65l.11.22-.24,0c-5.36.43-9.8,3.73-14.1,6.91-2.94,2.18-5.72,4.24-8.52,5.11l-.2.06,0-.2c-.31-3.17-3-15.59-7.32-15.59a2.72,2.72,0,0,0-.63.08,2.61,2.61,0,0,0-1.75,1.37c-1.06,2.22.74,6.42,2.05,9.49A20.57,20.57,0,0,1,53,204.91c.13.66.22,1.58.32,2.63.33,3.45.83,8.66,3.55,9.37a6.55,6.55,0,0,0,1.68.21c2.44,0,5-1.2,7.32-2.25a20.21,20.21,0,0,1,4.34-1.65c.94-.18,2.27-.3,3.81-.45,4.92-.46,12.36-1.16,17-4.43Z" transform="translate(-28.56 -42.48)"/><path class="cls-5" d="M107.58,207.26c-6.21,2.88-5.28,11.9-5.13,14.53.1,1.8-1.94,2.33-2.07,4.58-1-1.34-1.72-3.23-3.34-3.14-4.78.28-4.69,7.88-1.29,9.85,1.6.94,2.61.13,4.54.48,2.32.42,3.49,1.71,5.77.45.73,1.65,6.32,3.74,8.12.61,2.66.88,6.59.59,7-3.18.22-1.82-.42-4-.71-6.3-.3-2.46.52-3.89-.51-7.15C116.79,215,107.58,207.26,107.58,207.26Z" transform="translate(-28.56 -42.48)"/><path class="cls-6" d="M106.06,234c1.77,2.3,6.26,3.22,8.25.7,1.46-2.71,1.92-5.93.93-7.52-.27,7.12-5.39,8.77-6.88,4.67A12.91,12.91,0,0,1,106.06,234Z" transform="translate(-28.56 -42.48)"/><path class="cls-6" d="M109.56,226.74c-1.36,3.78-2.33,4.41-4.74,5.19-1.47.47-3.15-.72-4.63-.72s-2.76.68-4.32,0c-1.23-.55-2.07-2.25-2.42-4.54-.49,2.38.37,5.31,2.3,6.43,1.6.94,2.61.13,4.54.48s3.86,1.72,5.77.45C108.81,232,109.9,230,109.56,226.74Z" transform="translate(-28.56 -42.48)"/><path class="cls-6" d="M120.52,225.14c-.3-2.46.52-3.89-.51-7.15-.65-.59-2.67,3.3-2.67,3.3,0,1.93,1.29,6,1.09,8.68a2.61,2.61,0,0,1-3.21,2.67c-.64-.08-.5,1.29-1,1.82,3.52,1.34,6.63,0,7-3C121.45,229.62,120.81,227.44,120.52,225.14Z" transform="translate(-28.56 -42.48)"/><path class="cls-7" d="M111,236.4c-2.14,0-4.38-1.15-5-2.17a4,4,0,0,1-1.82.48,6.51,6.51,0,0,1-2.1-.47,10.61,10.61,0,0,0-1.82-.52,8.09,8.09,0,0,0-2-.05,7.47,7.47,0,0,1-.8.05,3.48,3.48,0,0,1-1.83-.49c-2.15-1.25-2.89-4.51-2.34-6.81a4,4,0,0,1,3.7-3.35c1.37-.09,2.15,1.14,2.89,2.32.12.18.23.36.35.53a4.65,4.65,0,0,1,1.13-2.14,2.84,2.84,0,0,0,.89-2c0-.15,0-.31,0-.49-.2-3.12-.72-11.43,5.26-14.2l.09,0,.08.07c.09.08,9.24,7.81,12.43,10.73l0,0v0a11.28,11.28,0,0,1,.5,4.7,12.84,12.84,0,0,0,0,2.47c.09.73.22,1.45.34,2.15a14.52,14.52,0,0,1,.36,4.19c-.29,2.37-2,3.73-4.67,3.73h0a8.37,8.37,0,0,1-2.47-.38A3.66,3.66,0,0,1,111,236.4Zm-4.85-2.62.07.16c.43,1,2.71,2.13,4.78,2.13a3.29,3.29,0,0,0,3-1.54l.07-.11.13,0a7.92,7.92,0,0,0,2.49.41h0c1.18,0,4-.34,4.35-3.45a14.63,14.63,0,0,0-.36-4.09c-.13-.7-.26-1.43-.35-2.17a13.44,13.44,0,0,1,0-2.53,11.12,11.12,0,0,0-.48-4.54c-3-2.8-11.39-9.87-12.3-10.63-5.68,2.71-5.17,10.78-5,13.83,0,.18,0,.34,0,.49a3.12,3.12,0,0,1-1,2.2,4,4,0,0,0-1.12,2.4l0,.46-.27-.37c-.2-.29-.4-.6-.59-.91-.73-1.15-1.42-2.23-2.6-2.17a3.66,3.66,0,0,0-3.4,3.11c-.6,2.51.38,5.4,2.18,6.44a3.06,3.06,0,0,0,1.67.45c.25,0,.5,0,.77,0a9.41,9.41,0,0,1,1,0,5.7,5.7,0,0,1,1.1.1,12.41,12.41,0,0,1,1.87.53,6.19,6.19,0,0,0,2,.45,3.69,3.69,0,0,0,1.81-.51Z" transform="translate(-28.56 -42.48)"/><path class="cls-7" d="M100.58,229.56a8.52,8.52,0,0,1-.33-3.52l.32,0a7.61,7.61,0,0,0,.76,4.45A1.65,1.65,0,0,1,100.58,229.56Z" transform="translate(-28.56 -42.48)"/><path class="cls-7" d="M96.72,230.41a2.88,2.88,0,0,1,.65-1.58,4.36,4.36,0,0,1,3-1.61l0,.33C98,227.69,96.74,230.38,96.72,230.41Z" transform="translate(-28.56 -42.48)"/><path class="cls-7" d="M106.15,234.15l-.17-.28c4-2.3,3.59-7.08,3.58-7.13a2.38,2.38,0,0,1,.28,1.46A7.68,7.68,0,0,1,106.15,234.15Z" transform="translate(-28.56 -42.48)"/><path class="cls-7" d="M114.31,234.71l-.27-.19a8.68,8.68,0,0,0,1.2-7.33,2.2,2.2,0,0,1,.6,1.33A9,9,0,0,1,114.31,234.71Z" transform="translate(-28.56 -42.48)"/><path class="cls-1" d="M104,143.32c-3.3,6.59-7.11,13.91-9.8,16.72a18.93,18.93,0,0,1-.73-4.46A12.78,12.78,0,0,0,90.77,165a8.54,8.54,0,0,1-1.72-5.29,10.64,10.64,0,0,0-.61,9c-1.19-.66-2.91-1.55-2.91-1.55,3.6,6.68,4.51,15,6.65,19.49,2.8,5.83,11.85,14.81,13.69,18.73,2.31,4.94,3.48,21,10.25,20.15,6.56-.84,3.24-13.6,1.65-17.7s-5.36-8.93-6.42-14.57-5.9-20-7.67-22c2.82-2.9,9.48-11.25,13.06-13Z" transform="translate(-28.56 -42.48)"/><path class="cls-2" d="M91.05,171.86c-1.23-3.53-2.06-7-2.06-7a30.18,30.18,0,0,0,2.7,2.25,16.32,16.32,0,0,1,.93-6.75s.5.74,1.4,2.42c4.71-5.6,8-12.27,11.1-18.55l-1.09-1c-3.3,6.59-7.11,13.91-9.8,16.72a18.93,18.93,0,0,1-.73-4.46A12.78,12.78,0,0,0,90.77,165a8.54,8.54,0,0,1-1.72-5.29,10.64,10.64,0,0,0-.61,9c-1.19-.66-2.91-1.55-2.91-1.55,3.6,6.68,4.51,15,6.65,19.49,2.8,5.83,11.85,14.81,13.69,18.73,2,4.35,3.18,17.33,8,19.78-3.39-6.37-3.83-14.52-6.38-20.76-1.16-2.84-12.69-14.83-14.37-18.79-1.29-3-4.65-15-4.65-15A8.84,8.84,0,0,0,91.05,171.86Z" transform="translate(-28.56 -42.48)"/><path class="cls-8" d="M97.26,167.51c6.45,7.71,9,18.75,12.2,27.65,3.93,11,12.86,26.57,6.73,30.32,6.47-.93,3.16-13.61,1.58-17.69s-5.36-8.93-6.42-14.57-5.9-20-7.67-22c2.76-2.83,9.46-11.06,13.08-13a38.89,38.89,0,0,1,.49-12.51c1.13-5,3.38-8.84,4.42-9.63-8.87,4.45-8.1,14.58-10.81,19.47C108.56,159.64,103,166.91,97.26,167.51Z" transform="translate(-28.56 -42.48)"/><path class="cls-4" d="M115.59,225.69c-4.59,0-6.49-7.76-8-14a39.45,39.45,0,0,0-1.84-6.24c-.83-1.76-3.19-4.64-5.7-7.68-3-3.68-6.45-7.86-8-11a44.75,44.75,0,0,1-2.34-7.28,56.09,56.09,0,0,0-4.3-12.2l-.26-.47.48.24s1.4.73,2.54,1.36a10.86,10.86,0,0,1,.76-8.71l.32-.49,0,.59a8.85,8.85,0,0,0,1.35,4.76,13.11,13.11,0,0,1,2.82-9l.27-.29v.39a20,20,0,0,0,.64,4.16c2.64-2.91,6.32-9.95,9.58-16.48l.29.14c-3.35,6.72-7.14,14-9.83,16.77l-.18.19-.09-.25a17.63,17.63,0,0,1-.71-4.09,12.93,12.93,0,0,0-2.43,9l0,.5-.34-.38a8.17,8.17,0,0,1-1.74-4.77,10.74,10.74,0,0,0-.31,8.28l.15.41-.38-.21c-.8-.45-1.85-1-2.44-1.31A58.23,58.23,0,0,1,90,179.31a44.34,44.34,0,0,0,2.32,7.22c1.52,3.17,4.94,7.32,8,11,2.51,3.06,4.89,5.95,5.73,7.75a39.31,39.31,0,0,1,1.87,6.3c1.57,6.4,3.52,14.35,8.21,13.76a3.67,3.67,0,0,0,2.82-1.83c2.36-4-.21-12.85-1.29-15.65a42.82,42.82,0,0,0-2.34-4.72c-1.6-2.93-3.41-6.25-4.09-9.88-1-5.64-5.87-19.95-7.63-22l-.1-.11.11-.11c.74-.76,1.74-1.89,2.91-3.21,3.17-3.59,7.53-8.51,10.19-9.8l.14.29c-2.6,1.27-6.93,6.16-10.09,9.73-1.11,1.26-2.08,2.35-2.82,3.11,1.85,2.43,6.57,16.43,7.61,22,.68,3.58,2.47,6.87,4.06,9.79a43.31,43.31,0,0,1,2.35,4.75c1.1,2.84,3.69,11.87,1.27,15.94a4,4,0,0,1-3,2A3.48,3.48,0,0,1,115.59,225.69Z" transform="translate(-28.56 -42.48)"/><path class="cls-4" d="M103.74,171.52a8.36,8.36,0,0,0-3.77-3.05,3.27,3.27,0,0,1,2,.8,11,11,0,0,1,2,2.06Z" transform="translate(-28.56 -42.48)"/><path class="cls-4" d="M91.11,208.7l-.17-.27a6.3,6.3,0,0,0,1.88-2.53A5.23,5.23,0,0,1,91.11,208.7Z" transform="translate(-28.56 -42.48)"/><path class="cls-4" d="M116.65,158.79c-.58-8.3-.22-14.82,3.15-20.58a16.36,16.36,0,0,1,1.93-2.27c-4.85,6.28-5.42,13.39-4.75,22.83Z" transform="translate(-28.56 -42.48)"/><path class="cls-5" d="M141.87,210.63c6.48.11,17.79-4.67,22-16.79,3.57-10.3-3.4-20.86-4.81-29.19-1-5.87,4.58-12.87-.44-21.87-5.61-10.05-26.39-11.41-33.31,0-5.35,8.82.55,16-.45,21.87-1.4,8.33-8.37,18.89-4.81,29.19C124.23,206,135,210.52,141.87,210.63Z" transform="translate(-28.56 -42.48)"/><path class="cls-6" d="M163.17,178c-.56,6.23-5.44,27.91-33,29a26.08,26.08,0,0,0,11.67,3.67c6.48.11,17.55-4.75,22-16.79C165.45,189.51,164.86,182.77,163.17,178Z" transform="translate(-28.56 -42.48)"/><path class="cls-7" d="M142.08,210.8h-.22c-7.81-.13-18-5.48-22-16.91-2.46-7.11.09-14.42,2.34-20.86a54.52,54.52,0,0,0,2.46-8.41c.36-2.08-.19-4.39-.76-6.82-1-4.42-2.22-9.42,1.23-15.1,3.09-5.1,9.31-8.14,16.64-8.14,7.54,0,14.19,3.2,17,8.14,3.22,5.78,2.13,10.73,1.16,15.09-.54,2.43-1.05,4.73-.7,6.83a54.63,54.63,0,0,0,2.47,8.41c2.25,6.44,4.8,13.75,2.34,20.86C159.74,206.21,148.3,210.8,142.08,210.8Zm-.29-75.91c-7.22,0-13.33,3-16.36,8-3.38,5.57-2.22,10.5-1.19,14.85.58,2.47,1.13,4.81.77,7a56,56,0,0,1-2.48,8.46c-2.24,6.39-4.77,13.64-2.34,20.64,3.9,11.28,14,16.56,21.68,16.69h.21c6.13,0,17.41-4.53,21.62-16.69,2.42-7-.11-14.25-2.34-20.64a53.81,53.81,0,0,1-2.48-8.46c-.37-2.17.15-4.5.7-7,.95-4.31,2-9.19-1.12-14.86C155.76,138,149.22,134.89,141.79,134.89Z" transform="translate(-28.56 -42.48)"/><path class="cls-7" d="M120.66,178.8l-.31-.12a27,27,0,0,1,3.45-6.18,5.43,5.43,0,0,1,1.82-1.62A23.63,23.63,0,0,0,120.66,178.8Z" transform="translate(-28.56 -42.48)"/><path class="cls-5" d="M176.3,207.26c6.22,2.88,5.28,11.9,5.14,14.53-.1,1.8,1.94,2.33,2.07,4.58,1-1.34,1.72-3.23,3.34-3.14,4.77.28,4.68,7.88,1.29,9.85-1.61.94-2.62.13-4.54.48-2.32.42-3.5,1.71-5.78.45-.73,1.65-6.31,3.74-8.11.61-2.67.88-6.59.59-7.05-3.18-.23-1.82.41-4,.7-6.3.31-2.46-.52-3.89.52-7.15C167.1,215,176.3,207.26,176.3,207.26Z" transform="translate(-28.56 -42.48)"/><path class="cls-6" d="M188.8,223.9c1.77,4.92-3.34,9.58-6.15,6.51a7.38,7.38,0,0,0,.86-4.27c-.14-1.3-2.13-3.26-2.07-4.35.14-2.63,1.08-11.65-5.14-14.53a8,8,0,0,1-2.51,4.94c6.5,1.42,4.3,8.15,5.59,11.91.45,1.29,2.27,4.53-.07,5.68s-3.79-.08-5-3c-1.17,1.06-.53,4.7-2.71,5.32s-3-2.59-3-4.87c-2,3.76-4.09,6.67-6,3.74a2.78,2.78,0,0,0,0,.51c.46,3.77,4.38,4.06,7.05,3.18,1.8,3.13,7.38,1,8.11-.61,2.28,1.26,3.46,0,5.78-.45,1.92-.35,2.93.46,4.54-.48C191,231.43,191.5,225.84,188.8,223.9Z" transform="translate(-28.56 -42.48)"/><path class="cls-7" d="M172.9,236.4a3.64,3.64,0,0,1-3.26-1.59,8.49,8.49,0,0,1-2.48.38c-2.67,0-4.38-1.36-4.67-3.73a14.82,14.82,0,0,1,.37-4.18c.12-.7.25-1.43.34-2.16a12.8,12.8,0,0,0,0-2.47,11.62,11.62,0,0,1,.5-4.7l0,0,0,0c3.18-2.92,12.33-10.65,12.42-10.73l.08-.07.1,0c6,2.77,5.46,11.08,5.26,14.2,0,.18,0,.34,0,.49a2.79,2.79,0,0,0,.88,2,4.57,4.57,0,0,1,1.14,2.14c.12-.17.23-.35.34-.53.75-1.18,1.52-2.41,2.9-2.32a4,4,0,0,1,3.69,3.35c.55,2.3-.18,5.56-2.33,6.81a3.5,3.5,0,0,1-1.83.49,7.16,7.16,0,0,1-.8-.05,7.59,7.59,0,0,0-2,.05,10.73,10.73,0,0,0-1.83.52,6.46,6.46,0,0,1-2.1.47,4,4,0,0,1-1.81-.48C177.28,235.25,175,236.4,172.9,236.4Zm-3.12-2,.07.11a3.31,3.31,0,0,0,3.05,1.54c2.06,0,4.35-1.17,4.77-2.13l.07-.16.16.09a3.66,3.66,0,0,0,1.8.51,6.19,6.19,0,0,0,2-.45,12.08,12.08,0,0,1,1.87-.53,5.6,5.6,0,0,1,1.09-.1,9.41,9.41,0,0,1,1,0c.27,0,.53,0,.78,0a3.08,3.08,0,0,0,1.67-.45c1.8-1,2.78-3.93,2.18-6.44a3.67,3.67,0,0,0-3.4-3.11c-1.19-.07-1.87,1-2.6,2.17-.19.31-.39.62-.6.91l-.27.37,0-.46a4,4,0,0,0-1.12-2.4,3.09,3.09,0,0,1-1-2.2c0-.15,0-.31,0-.49.19-3,.7-11.12-5-13.83-.91.76-9.26,7.83-12.31,10.63a11.08,11.08,0,0,0-.47,4.54,13.5,13.5,0,0,1,0,2.53c-.09.74-.22,1.47-.34,2.17a14.63,14.63,0,0,0-.36,4.09c.38,3.11,3.16,3.45,4.34,3.45a8,8,0,0,0,2.5-.41Z" transform="translate(-28.56 -42.48)"/><path class="cls-7" d="M182.55,230.52a7.64,7.64,0,0,0,.76-4.45l.33,0a8.8,8.8,0,0,1-.21,3.09A2.45,2.45,0,0,1,182.55,230.52Z" transform="translate(-28.56 -42.48)"/><path class="cls-7" d="M187.16,230.41s-1.24-2.72-3.65-2.86l0-.33a4.23,4.23,0,0,1,2.82,1.43A3.29,3.29,0,0,1,187.16,230.41Z" transform="translate(-28.56 -42.48)"/><path class="cls-7" d="M177.74,234.15a7.51,7.51,0,0,1-3.62-5.46,3.54,3.54,0,0,1,.2-1.95s-.41,4.83,3.58,7.13Z" transform="translate(-28.56 -42.48)"/><path class="cls-7" d="M169.57,234.71a9,9,0,0,1-1.55-6,2.59,2.59,0,0,1,.62-1.52,8.72,8.72,0,0,0,1.2,7.33Z" transform="translate(-28.56 -42.48)"/><path class="cls-1" d="M179.86,143.32c3.29,6.59,7.11,13.91,9.8,16.72a18.93,18.93,0,0,0,.73-4.46,12.78,12.78,0,0,1,2.73,9.42,8.54,8.54,0,0,0,1.72-5.29,10.61,10.61,0,0,1,.6,9c1.2-.66,2.91-1.55,2.91-1.55-3.6,6.68-4.5,15-6.64,19.49-2.8,5.83-11.85,14.81-13.69,18.73-2.32,4.94-3.48,21-10.25,20.15-6.57-.84-3.24-13.6-1.65-17.7s5.35-8.93,6.41-14.57,5.91-20,7.67-22c-2.82-2.9-9.48-11.25-13-13Z" transform="translate(-28.56 -42.48)"/><path class="cls-2" d="M180.16,171.13l0,.05c-1.76,2-6.61,16.4-7.67,22s-4.83,10.47-6.41,14.57c-1.23,3.17-3.5,11.54-1.41,15.54-.38-8.11,1-10.55,2.84-15.39,1.4-3.66,4.86-9.05,6.56-14.14,1.45-4.31,5.36-20.82,10.81-25.58l-1.12.24A9.21,9.21,0,0,0,180.16,171.13Z" transform="translate(-28.56 -42.48)"/><path class="cls-8" d="M195.44,168.67a10.61,10.61,0,0,0-.6-9,8.54,8.54,0,0,1-1.72,5.29,12.78,12.78,0,0,0-2.73-9.42,18.93,18.93,0,0,1-.73,4.46c-2.69-2.81-6.51-10.13-9.8-16.72l-3.36,3.93c.21.5,6.81,13.62,13,17.54a36,36,0,0,0,1.74-4.74,20.5,20.5,0,0,1-.44,10.29c1.92-.78,3.45-3.53,3.45-3.53a13.88,13.88,0,0,1-3.35,7.33c1.23,3.41-.21,8.08-3.53,13.34-3.83,6.08-7,7.77-11,15.35-5.11,9.69-3.31,26.57-11.4,20.9a3.78,3.78,0,0,0,2.83,1.76c6.77.86,7.93-15.21,10.25-20.15,1.84-3.92,10.89-12.9,13.69-18.73,2.14-4.45,3-12.81,6.64-19.49C198.35,167.12,196.64,168,195.44,168.67Z" transform="translate(-28.56 -42.48)"/><path class="cls-4" d="M168.29,225.69a3.27,3.27,0,0,1-.54,0,4,4,0,0,1-3.05-2c-2.43-4.07.16-13.1,1.26-15.94a41.75,41.75,0,0,1,2.36-4.75c1.58-2.91,3.38-6.21,4.05-9.79,1-5.58,5.76-19.58,7.61-22-.73-.76-1.7-1.85-2.81-3.11-3.17-3.57-7.49-8.46-10.09-9.73l.14-.29c2.66,1.29,7,6.21,10.19,9.8,1.16,1.32,2.17,2.45,2.91,3.21l.1.11-.1.11c-1.75,2-6.57,16.33-7.63,22-.68,3.63-2.49,6.95-4.09,9.88a44.48,44.48,0,0,0-2.33,4.72c-1.09,2.8-3.65,11.69-1.29,15.65a3.65,3.65,0,0,0,2.81,1.83c4.7.6,6.65-7.36,8.22-13.76a39.45,39.45,0,0,1,1.86-6.3c.85-1.8,3.22-4.69,5.74-7.75,3-3.67,6.43-7.82,7.95-11a44.34,44.34,0,0,0,2.32-7.22,58.28,58.28,0,0,1,4.09-11.8c-.6.31-1.65.86-2.45,1.31l-.38.21.15-.41a10.71,10.71,0,0,0-.3-8.28,8.19,8.19,0,0,1-1.75,4.77l-.34.38.06-.5a12.87,12.87,0,0,0-2.44-9,17.11,17.11,0,0,1-.71,4.09l-.09.25-.18-.19c-2.68-2.81-6.47-10-9.83-16.77l.29-.14c3.27,6.53,6.95,13.57,9.59,16.48a19.72,19.72,0,0,0,.63-4.16l0-.39.27.29a13.11,13.11,0,0,1,2.82,9,8.85,8.85,0,0,0,1.35-4.76l0-.59.32.49a10.91,10.91,0,0,1,.76,8.71c1.13-.63,2.52-1.35,2.54-1.36l.47-.24-.25.47a56.09,56.09,0,0,0-4.3,12.2,45.75,45.75,0,0,1-2.34,7.28c-1.54,3.19-5,7.37-8,11-2.5,3-4.87,5.92-5.69,7.68a38.41,38.41,0,0,0-1.84,6.24C174.79,217.93,172.88,225.69,168.29,225.69Z" transform="translate(-28.56 -42.48)"/><path class="cls-4" d="M180.14,171.52l-.26-.19a11.26,11.26,0,0,1,2-2,3.4,3.4,0,0,1,2.09-.83A8.35,8.35,0,0,0,180.14,171.52Z" transform="translate(-28.56 -42.48)"/><path class="cls-4" d="M192.77,208.7a5.19,5.19,0,0,1-1.7-2.8,6.24,6.24,0,0,0,1.87,2.53Z" transform="translate(-28.56 -42.48)"/><path class="cls-4" d="M167.23,158.79l-.32,0c.66-9.44.1-16.55-4.76-22.83a8.86,8.86,0,0,1,1.35,1.32C167.41,143.25,167.85,150,167.23,158.79Z" transform="translate(-28.56 -42.48)"/><path class="cls-7" d="M163.23,178.8a23.63,23.63,0,0,0-5-7.92,5.14,5.14,0,0,1,1.79,1.58,26.66,26.66,0,0,1,3.47,6.22Z" transform="translate(-28.56 -42.48)"/><path class="cls-6" d="M134,171.2a10.88,10.88,0,0,1,8-3c2.75.32,7,1,7.86,3C146.41,169.52,139.22,169,134,171.2Z" transform="translate(-28.56 -42.48)"/><path class="cls-7" d="M134,171.2a3.39,3.39,0,0,1,.71-1,12.86,12.86,0,0,1,7.79-2,12.15,12.15,0,0,1,6.29,1.75,4.81,4.81,0,0,1,1.05,1.32c-1.42-1.62-4.17-2.65-7.35-2.74C139,168.34,135.78,169.4,134,171.2Z" transform="translate(-28.56 -42.48)"/><path class="cls-1" d="M182.14,81.29c-2.36-24.81-24.18-30.86-31.87-32-9.24-.6-39.93,0-41.26,28.92,0,4.39,45.29,38.1,49.34,40.16,10.47,2,16.9-6.19,16.9-6.19a19.14,19.14,0,0,1-1.48,5.57c5.91-2,5.58-10.24,5.58-10.24a19.53,19.53,0,0,1,2.34,5.43c2.27-4.74-1.09-9.61-1.09-9.61a13.54,13.54,0,0,1,3.34,3.16,12.57,12.57,0,0,0-2.25-7.84C181.27,92.82,182.14,81.29,182.14,81.29Z" transform="translate(-28.56 -42.48)"/><path class="cls-2" d="M134.37,52a86.26,86.26,0,0,0,13.43-2.81c-11.3-.24-37.56,2.35-38.79,29a3,3,0,0,0,.69,1.39C110.88,64.16,120.25,53.85,134.37,52Z" transform="translate(-28.56 -42.48)"/><path class="cls-8" d="M183.94,106.53a12.57,12.57,0,0,0-2.25-7.84c-.42-5.87.45-17.4.45-17.4C180,59.17,162.46,52,153.22,49.88c13.32,6,25.69,26.12,17.72,39.37,9.27,14.44-9.49,19.37-14.37,20.63-3.59,1-1,4.51-4.66,4.16,3.29,2.36,5.65,4,6.44,4.37,10.47,2,16.9-6.19,16.9-6.19a19.14,19.14,0,0,1-1.48,5.57c5.91-2,5.58-10.24,5.58-10.24a19.53,19.53,0,0,1,2.34,5.43c2.27-4.74-1.09-9.61-1.09-9.61A13.54,13.54,0,0,1,183.94,106.53Z" transform="translate(-28.56 -42.48)"/><path class="cls-4" d="M159,118.66l-.64-.11,0,0c-2-1-14.53-10.1-26.2-19.21-8.66-6.77-23.2-18.5-23.21-21.07.39-8.5,3.37-15.29,8.84-20.19,10.63-9.51,27.62-9.2,32.57-8.87l.55.08a43.14,43.14,0,0,1,17.91,7.35c8,5.84,12.54,14.14,13.54,24.65,0,.14-.86,11.57-.45,17.38a12.55,12.55,0,0,1,2.26,7.89l0,.46-.24-.39a11.54,11.54,0,0,0-2.74-2.72c.81,1.47,2.55,5.37.74,9.15l-.19.4-.08-.43a17.71,17.71,0,0,0-2.06-4.94c-.05,1.86-.61,8.13-5.67,9.86l-.34.11.16-.32a17.55,17.55,0,0,0,1.4-5C173.64,114.24,167.75,120.07,159,118.66Zm-.56-.39c10.25,2,16.67-6.06,16.73-6.14l.31-.39-.05.5a19.94,19.94,0,0,1-1.33,5.29c5.39-2.15,5.15-9.89,5.15-10l0-.54.28.45a20.35,20.35,0,0,1,2.27,5c1.84-4.48-1.22-9-1.26-9.07l-.42-.61.62.41a14.7,14.7,0,0,1,3.14,2.84,12.44,12.44,0,0,0-2.25-7.32l0,0v0c-.42-5.81.44-17.31.45-17.43-2.46-25.83-26.44-30.95-31.22-31.72l-.53-.08c-4.91-.32-21.8-.63-32.35,8.8-5.41,4.85-8.35,11.57-8.74,20,0,1.78,8.43,9.37,23.1,20.83C143.88,108.17,156.31,117.2,158.4,118.27Z" transform="translate(-28.56 -42.48)"/><path class="cls-5" d="M113.28,79.71s-8.94-8.56-13.46-5.46c-5.64,3.88-1.88,15.94,5.46,17.53,1.81-.39,9-2.52,9-2.52Z" transform="translate(-28.56 -42.48)"/><path class="cls-9" d="M100.75,75.13c3.68-1.68,8.6,3.06,12.57,5.39l0-.81s-8.94-8.56-13.46-5.46c-4,2.79-3.25,9.8.24,14.11C98.22,83.07,96.32,77.16,100.75,75.13Z" transform="translate(-28.56 -42.48)"/><path class="cls-6" d="M112.45,85c-3.82,3.33-7.34-5.41-11-5.22-.9.14-1.06-.27-2.26,1.25,2.85-1.25,4,2.64,4,2.64s-2.19,0-2,2.63c.75-1,3.5-.55,3.84,1s-2.14,2-4.3,1.81a10.75,10.75,0,0,0,4.57,2.68c1.81-.39,9-2.52,9-2.52l-.52-5.08C113.29,84.45,112.87,84.73,112.45,85Z" transform="translate(-28.56 -42.48)"/><path class="cls-7" d="M105.28,91.93h0c-4.46-1-7.3-5.56-8.06-9.42-.72-3.65.23-6.77,2.55-8.37a4.62,4.62,0,0,1,3.43-.62c4.56.73,10,5.88,10.21,6.1l0,0,1,9.73-.11,0c-.07,0-7.19,2.13-9,2.52ZM103.13,73.8a4.34,4.34,0,0,0-3.23.57c-2.22,1.53-3.13,4.55-2.43,8.08.74,3.76,3.5,8.23,7.81,9.18,1.71-.37,7.9-2.2,8.82-2.47l-1-9.38C112.64,79.31,107.4,74.48,103.13,73.8Z" transform="translate(-28.56 -42.48)"/><path class="cls-7" d="M109.17,88.22a3.2,3.2,0,0,1-1.71-.78,15,15,0,0,1-2-2.88c-1.26-2.09-2.68-4.46-4.27-4.59a2.47,2.47,0,0,0-2,1.09s.67-1,1.13-1.23a2,2,0,0,1,.93-.14c1.74.14,3.19,2.57,4.48,4.72a14.91,14.91,0,0,0,2,2.82c1.3,1.2,3.52.74,5.66.3l.73-.15.06.28-.73.15A12.56,12.56,0,0,1,109.17,88.22Z" transform="translate(-28.56 -42.48)"/><path class="cls-7" d="M102.12,83.85a3.11,3.11,0,0,1,3.4.29l-.17.23a2.83,2.83,0,0,0-3.09-.27,2.24,2.24,0,0,0-1.09,2.23A2.22,2.22,0,0,1,102.12,83.85Z" transform="translate(-28.56 -42.48)"/><path class="cls-1" d="M113,88s-7.91-1.73-12.73,7.71c1.65-.49,4.69-1.78,4.69-1.78s-5.29,5.5-1.43,11.3a20.46,20.46,0,0,1,1.43-3.93,7.52,7.52,0,0,0,4.49,6C109.14,103.91,113,88,113,88Z" transform="translate(-28.56 -42.48)"/><path class="cls-2" d="M105.15,98.29c-.75,1-1.84,3.08-1.84,3.08s-.52-3.62,3.56-8.88a18.15,18.15,0,0,0-4.29,1.2s4-5.06,10.22-5L113,88s-7.91-1.73-12.73,7.71c1.65-.49,4.69-1.78,4.69-1.78s-5.29,5.5-1.43,11.3a20.46,20.46,0,0,1,1.43-3.93,7.52,7.52,0,0,0,4.49,6,7.63,7.63,0,0,1,0-1.06C107.19,104.06,105.28,101.56,105.15,98.29Z" transform="translate(-28.56 -42.48)"/><path class="cls-4" d="M109.59,107.56l-.23-.11a7.94,7.94,0,0,1-4.51-5.66,16.89,16.89,0,0,0-1.21,3.43l0,.38-.21-.32c-3.23-4.86-.11-9.56,1.05-11-1,.4-2.93,1.2-4.15,1.56l-.32.09.15-.3c4.42-8.66,11.37-8,12.72-7.81l.17,0,.14,0,0,.15c0,.16-3.82,15.95-3.54,19.29Zm-4.54-6.9,0,.6a7.4,7.4,0,0,0,4.2,5.81c-.1-3.67,3.12-17.3,3.52-19h0c-1.29-.21-7.92-.82-12.25,7.35,1.67-.54,4.31-1.66,4.34-1.67l.65-.28L105,94s-5,5.29-1.61,10.82a24.39,24.39,0,0,1,1.38-3.61Z" transform="translate(-28.56 -42.48)"/><path class="cls-5" d="M132.52,66.05s-.42-11.11-8.81-8.32c-9.58,3.18-13.3,24.52-12.08,30.28-9.63,7-6.77,20.4,6.1,26.55a3.67,3.67,0,0,0-1.12,3.65c1,3.52,5.08,7.75,11.62,9,8.81,1.76,14.28-1.41,18.21-5.55,10.56-.06,28.19-8,28.68-17.79s-5.62-13-8.91-13.69c1.31-9.52-.6-26.66-12.58-30.23S134.6,64,132.52,66.05Z" transform="translate(-28.56 -42.48)"/><path class="cls-6" d="M175.12,103.91c.49-9.75-5.62-13-8.91-13.69,1.28-9.36-.54-26.08-12-30,10.35,5.55,11.54,24.3,9.08,31.75,7.83,17-8.33,26.1-11.52,21.49-17.52,18.62-29.95,11-34.34,6.72a15.79,15.79,0,0,0,10.78,7.11c8.81,1.76,14.28-1.41,18.21-5.55C157,121.64,174.63,113.66,175.12,103.91Z" transform="translate(-28.56 -42.48)"/><path class="cls-6" d="M123.24,94.16c-2.18,1.87-2.12,6.4-2.12,6.4s-7.35,1.55-9.15-3.88a6.42,6.42,0,0,0,3.86,5.53c1.71,1,5.56.5,7.13.11,9.8,3.67,16.72,2,23.81-2.08a15.41,15.41,0,0,0,5.94-5.94c-8.52,9-23.56,9-27.7,6.65C122.67,99.66,122.37,98.59,123.24,94.16Z" transform="translate(-28.56 -42.48)"/><path class="cls-6" d="M118.62,112.08c-5.65-.92-9.67-5.47-12.31-10.23,1.1,4.55,5,9.75,11.33,12.79A2.74,2.74,0,0,0,118.62,112.08Z" transform="translate(-28.56 -42.48)"/><path class="cls-7" d="M129.24,127.58h0c-.34,0-.69-.11-1-.18-6.62-1.32-10.72-5.67-11.72-9.15a3.75,3.75,0,0,1,1-3.65c-6.76-3.29-11.11-8.8-11.66-14.76A13,13,0,0,1,111.47,88c-1.22-6.16,2.68-27.19,12.2-30.36a7.31,7.31,0,0,1,3.47-.38c4.56.73,5.37,7,5.5,8.51,2.06-2.08,8.15-8.14,18-6.56a24.1,24.1,0,0,1,3,.69c5.33,1.59,9.26,6.08,11.37,13a42.73,42.73,0,0,1,1.33,17.28c1.86.44,9.44,2.91,8.89,13.8-.3,6-6.79,10.51-10.63,12.65-5.69,3.17-12.8,5.24-18.13,5.28C141.71,126.88,136.22,128.7,129.24,127.58Zm-2.15-70.09a7,7,0,0,0-3.33.38c-5.51,1.83-8.63,9.6-10,14.08-2,6.5-2.57,13.26-2,16l0,.09-.07.06a12.67,12.67,0,0,0-5.61,11.69c.54,5.91,4.9,11.37,11.68,14.61l.19.09-.15.14a3.54,3.54,0,0,0-1.08,3.51c1,3.4,5,7.65,11.5,8.94l1,.19c6.91,1.1,12.32-.71,17.05-5.7l0,0h.06c10.68-.07,28.07-8.17,28.54-17.66.55-10.93-7.22-13.2-8.79-13.54l-.13,0,0-.13a42.45,42.45,0,0,0-1.31-17.29c-1.45-4.74-4.57-10.81-11.17-12.78a23.93,23.93,0,0,0-3-.69C140.81,57.88,134.77,64,132.79,66l-.41.41v-.33C132.37,66,132,58.28,127.09,57.49Z" transform="translate(-28.56 -42.48)"/><path class="cls-7" d="M146.36,122l-.2-.21a92.66,92.66,0,0,0,5.5-7.59,10.3,10.3,0,0,1-1.1,2.16A57.92,57.92,0,0,1,146.36,122Z" transform="translate(-28.56 -42.48)"/><path class="cls-7" d="M117.81,114.67l-.17-.23a3,3,0,0,0,1-2.36A2.71,2.71,0,0,1,117.81,114.67Z" transform="translate(-28.56 -42.48)"/><path class="cls-7" d="M155.33,97.59a5.05,5.05,0,0,0-4.82-3.67,3.5,3.5,0,0,1,1.39-.1,5.35,5.35,0,0,1,3.43,3A1.91,1.91,0,0,1,155.33,97.59Z" transform="translate(-28.56 -42.48)"/><path class="cls-10" d="M152.84,94.35v0c-3.53,5.54-14.2,13.16-28.08,8.57l-1.88,3.52c.22,4.24-3.64,7.16-2.41,10,2.06,4.74,11.57,7.7,20.81-.81A64.28,64.28,0,0,0,155.2,96.88,5.37,5.37,0,0,0,152.84,94.35Z" transform="translate(-28.56 -42.48)"/><path class="cls-11" d="M130.83,107.45c-4.76,2-7.8,7.74-8.45,11.46,3.72,3,11.39,3.66,18.89-3.24.91-.84,2.72-2.48,3.56-3.36C142.84,106.76,137.16,104.68,130.83,107.45Z" transform="translate(-28.56 -42.48)"/><path class="cls-12" d="M141.27,115.67l.87-.82c-2.48-3.06-6.08-2.86-9.28-1.13-6.58-1.77-9.42.45-11.07,4.66C125.25,121.83,133.35,123,141.27,115.67Z" transform="translate(-28.56 -42.48)"/><path class="cls-13" d="M132.86,113.72a14.06,14.06,0,0,0-5-.56c3.74.23,2,2.18,2.2,4.17,1.47-3.74,6.63-4.16,7.27-2.61.77,1.87-4.59,7.41-12.54,5.57,4.11,1.62,10.35,1,16.48-4.62l.87-.82C139.66,111.79,136.06,112,132.86,113.72Z" transform="translate(-28.56 -42.48)"/><path class="cls-14" d="M127.08,121.06h0a9.77,9.77,0,0,1-5.39-2.58l-.07-.06,0-.09c1.7-4.34,4.54-5.93,9.22-5.19.62.1,1.28.25,2,.43a8.78,8.78,0,0,1,5.49-1.16,6.24,6.24,0,0,1,3.92,2.35l.09.1-.1.09-.87.83C135.27,121.39,129.8,121.5,127.08,121.06ZM122,118.35a9.55,9.55,0,0,0,5.17,2.43h0c2.66.43,8,.32,14-5.21l.78-.73a5.88,5.88,0,0,0-3.66-2.14,8.46,8.46,0,0,0-5.36,1.15l-.05,0-.06,0a19,19,0,0,0-2-.43C126.28,112.7,123.62,114.17,122,118.35Z" transform="translate(-28.56 -42.48)"/><path class="cls-14" d="M130,117.71a2.86,2.86,0,0,1,.34-1.46,6.17,6.17,0,0,1,2.8-2.83l.11.27C131,114.63,130,117.68,130,117.71Z" transform="translate(-28.56 -42.48)"/><path class="cls-7" d="M127.08,121.06h0c-3.17-.5-5.76-2.24-6.75-4.53-.67-1.53.06-3,.91-4.77a10.92,10.92,0,0,0,1.49-5.28v0l2-3.66.12,0a27,27,0,0,0,4.39,1.08c11.57,1.85,20.4-4.71,23.51-9.57l.07-.17.14.07a5.52,5.52,0,0,1,2.42,2.6l0,.06,0,.06a63.93,63.93,0,0,1-14,18.84C135.27,121.39,129.8,121.5,127.08,121.06ZM123,106.5a11.17,11.17,0,0,1-1.52,5.38c-.82,1.68-1.52,3.13-.91,4.54,1,2.2,3.46,3.87,6.53,4.36h0c2.66.43,8,.32,14-5.21A63.69,63.69,0,0,0,155,96.88a5.3,5.3,0,0,0-2.14-2.34c-3.2,4.93-12.1,11.5-23.76,9.64a29.83,29.83,0,0,1-4.32-1.05Z" transform="translate(-28.56 -42.48)"/><path class="cls-15" d="M123.05,102.33a15.77,15.77,0,0,1-5,.45c1.12,1.76,3.35,5.07,4.5,5.68,2.57,1,17,4.18,25.14-8.8C142.14,103.67,133.41,106.45,123.05,102.33Z" transform="translate(-28.56 -42.48)"/><path class="cls-16" d="M138.12,103.87c-1.77,4-10.05,4.79-15.66,4.55l.07,0c2.57,1,17,4.18,25.14-8.8A24.81,24.81,0,0,1,138.12,103.87Z" transform="translate(-28.56 -42.48)"/><path class="cls-17" d="M125.65,109.39a16.82,16.82,0,0,1-3.17-.79c-1.18-.63-3.37-3.87-4.57-5.74l-.16-.25.29,0a15.37,15.37,0,0,0,5-.44h0l0,0a28.87,28.87,0,0,0,6.09,1.69,24.54,24.54,0,0,0,18.4-4.35l.6-.44-.39.63C141,110.56,130.05,110.09,125.65,109.39ZM118.31,103c1.94,3,3.5,5,4.29,5.39a16.14,16.14,0,0,0,3.09.76c4.26.68,14.74,1.14,21.46-8.9a24.84,24.84,0,0,1-18,4,29,29,0,0,1-6.1-1.7A16.39,16.39,0,0,1,118.31,103Z" transform="translate(-28.56 -42.48)"/><path class="cls-7" d="M117.41,102.85a6.91,6.91,0,0,1-3-1.15,6.32,6.32,0,0,1-2.53-4.64,7.84,7.84,0,0,1,2.28-6.39,8.91,8.91,0,0,1,7.55-2.28c.47,0,11.26-.83,18.55,1.71a10.89,10.89,0,0,1,2,1.16c-7.13-3.63-20.42-2.59-20.55-2.58h0a8.65,8.65,0,0,0-7.33,2.2A7.54,7.54,0,0,0,112.21,97a6,6,0,0,0,2.4,4.44c1.89,1.33,4.72,1.58,8.4.72h0l0,0c14.28,5.66,25.74-1.84,29.61-7.9l.24.16c-3.34,5.24-12.3,11.55-23.84,9.71a28.29,28.29,0,0,1-6.07-1.69A15,15,0,0,1,117.41,102.85Z" transform="translate(-28.56 -42.48)"/><path class="cls-6" d="M141.74,83.77c-1.45-3.38.77-13.46,5.28-13.62,5.37-.19,8.64,7.3,6.61,13.27C152.38,87.09,143.32,87.44,141.74,83.77Z" transform="translate(-28.56 -42.48)"/><path class="cls-18" d="M141.82,85.31c-1.45-3.38.76-13.46,5.28-13.62,5.37-.19,8.64,7.3,6.61,13.27C152.46,88.64,143.4,89,141.82,85.31Z" transform="translate(-28.56 -42.48)"/><path class="cls-15" d="M141.83,86.19c-1.45-3.38.77-13.46,5.28-13.62,5.37-.19,8.64,7.3,6.61,13.27C152.47,89.52,143.41,89.86,141.83,86.19Z" transform="translate(-28.56 -42.48)"/><path class="cls-16" d="M141.51,85a5.54,5.54,0,0,0,.32,1.16c1.58,3.67,10.64,3.33,11.89-.35a11.84,11.84,0,0,0,.61-3.91C151.26,85.3,146,86.22,141.51,85Z" transform="translate(-28.56 -42.48)"/><path class="cls-18" d="M145.84,88.79c-2.08-.33-3.59-1.26-4.14-2.54-1.09-2.53-.19-8.12,1.82-11.28,1-1.62,2.26-2.5,3.59-2.54A6.54,6.54,0,0,1,152.85,76a12.35,12.35,0,0,1,1,9.94C153.05,88.26,149.06,89.3,145.84,88.79Zm2.31-16a5.05,5.05,0,0,0-1-.07c-1.23.05-2.39.88-3.36,2.42-2.09,3.3-2.74,8.81-1.8,11,.52,1.19,1.95,2.06,3.93,2.38,3.1.49,6.93-.48,7.7-2.72a12.07,12.07,0,0,0-1-9.7A6.53,6.53,0,0,0,148.15,72.78Z" transform="translate(-28.56 -42.48)"/><path class="cls-19" d="M150.16,77.27c-2.08-.17-4,2-4.2,5s1.23,5.41,3.31,5.59,3.95-2.06,4.19-5S152.23,77.44,150.16,77.27Z" transform="translate(-28.56 -42.48)"/><path class="cls-20" d="M148.61,84.54a5.55,5.55,0,0,1-2.67-1.88c-.07,2.73,1.36,5,3.33,5.17s3.9-2,4.19-4.87A5,5,0,0,1,148.61,84.54Z" transform="translate(-28.56 -42.48)"/><path class="cls-18" d="M150.44,80.06c-1.35-.11-2.59,1.43-2.76,3.44s.79,3.73,2.15,3.84,2.59-1.43,2.76-3.44S151.8,80.17,150.44,80.06Z" transform="translate(-28.56 -42.48)"/><path class="cls-15" d="M150.22,80.09a1.44,1.44,0,0,0-1.66,1.2A1.49,1.49,0,0,0,149.72,83a1.44,1.44,0,0,0,1.65-1.2A1.48,1.48,0,0,0,150.22,80.09Z" transform="translate(-28.56 -42.48)"/><path class="cls-15" d="M148.77,85a.67.67,0,0,0-.77.55.69.69,0,0,0,.54.79.66.66,0,0,0,.76-.55A.68.68,0,0,0,148.77,85Z" transform="translate(-28.56 -42.48)"/><path class="cls-21" d="M150.16,77.15c-2.14-.17-4.09,2.1-4.34,5.07S147,87.53,149,87.9l.29,0c2.14.18,4.09-2.1,4.34-5.07S152.32,77.34,150.16,77.15Zm-.87,10.41c-1.95-.15-3.32-2.56-3.09-5.3s2-4.89,3.93-4.73l.25,0c1.82.34,3.06,2.66,2.84,5.28S151.22,87.73,149.29,87.56Z" transform="translate(-28.56 -42.48)"/><path class="cls-7" d="M150.49,71.85a3.86,3.86,0,0,0-3.05-1.61A3.71,3.71,0,0,0,145,71.79,2.9,2.9,0,0,1,147.42,70,3.28,3.28,0,0,1,150.49,71.85Z" transform="translate(-28.56 -42.48)"/><path class="cls-7" d="M119.9,69.37A3.12,3.12,0,0,1,122.7,68c1.41.14,2,1.77,2,1.77a3.27,3.27,0,0,0-2-1.53A3.36,3.36,0,0,0,119.9,69.37Z" transform="translate(-28.56 -42.48)"/><path class="cls-1" d="M145.14,66.49c-.44.12,1.18-3.82,3.06-4.33,2.74-.75,7.67,3.88,7.63,9.66C153.49,68.92,150.56,65,145.14,66.49Z" transform="translate(-28.56 -42.48)"/><path class="cls-8" d="M146.28,63.8c-.89,1.26-1.41,2.76-1.14,2.69,5.16-1.38,8.37,2.33,10.66,5.17A10.29,10.29,0,0,0,146.28,63.8Z" transform="translate(-28.56 -42.48)"/><path class="cls-4" d="M156,72.23l-.45-.56c-1.71-2.12-3.83-4.75-7-5.26a8.05,8.05,0,0,0-3.35.22h-.08s-.16,0-.17-.22c0-.62,1.48-3.91,3.23-4.39a2.79,2.79,0,0,1,1.16-.05c2.67.43,6.69,4.58,6.66,9.85Zm-7.4-6.11c3.23.52,5.38,3.15,7.1,5.29-.17-4.93-3.9-8.75-6.41-9.15a2.35,2.35,0,0,0-1,0c-1.57.43-3,3.39-3,4A8.42,8.42,0,0,1,148.58,66.12Z" transform="translate(-28.56 -42.48)"/><path class="cls-1" d="M128.64,65.34c.35.2-.2-3.71-1.69-4.57-2.17-1.26-7.31,1.88-8.48,7.13C121.07,65.77,124.35,62.88,128.64,65.34Z" transform="translate(-28.56 -42.48)"/><path class="cls-8" d="M118.55,67.84c2.58-2.13,5.85-4.94,10.09-2.5.24.14.22-1.25-.4-2.68C124.06,61.63,120.31,64.17,118.55,67.84Z" transform="translate(-28.56 -42.48)"/><path class="cls-4" d="M118.24,68.28l.09-.41c1.1-4.91,5.5-7.88,7.93-7.49a2.07,2.07,0,0,1,.76.26c1.42.83,2,4.19,1.83,4.7a.19.19,0,0,1-.21.15l-.07,0a7,7,0,0,0-2.32-.85c-3-.47-5.47,1.57-7.47,3.22Zm8-7.62c-2.26-.36-6.3,2.35-7.5,6.85,2-1.66,4.52-3.67,7.57-3.18a7.13,7.13,0,0,1,2.31.82c.05-.63-.51-3.55-1.72-4.26A2.07,2.07,0,0,0,126.22,60.66Z" transform="translate(-28.56 -42.48)"/><path class="cls-1" d="M142.29,42.65a31.88,31.88,0,0,1,3.59,5.25,14.23,14.23,0,0,0-16-.69,40.82,40.82,0,0,1,9.77,3.15,11.06,11.06,0,0,0-7.6,3.62c3-.76,9,0,9,0L154.24,51S148.93,43.13,142.29,42.65Z" transform="translate(-28.56 -42.48)"/><path class="cls-8" d="M148.57,50.52a17.7,17.7,0,0,0-3-5.82A79.15,79.15,0,0,1,154.14,51c-2.12-3.25-6.88-8-11.85-8.36a31.88,31.88,0,0,1,3.59,5.25,14,14,0,0,0-10-2.7C140,45.85,144.94,48.18,148.57,50.52Z" transform="translate(-28.56 -42.48)"/><path class="cls-2" d="M142.65,51.12c-3.85-2.81-10.11-4.33-10.11-4.33a8.86,8.86,0,0,1,2.36-1.45,11.34,11.34,0,0,0-5,1.87,40.82,40.82,0,0,1,9.77,3.15,11.06,11.06,0,0,0-7.6,3.62c2.45-.61,7-.28,9,.1a15.12,15.12,0,0,0-5.32-1.43A13.74,13.74,0,0,1,142.65,51.12Z" transform="translate(-28.56 -42.48)"/><path class="cls-4" d="M131.64,54.24l.34-.36a11.67,11.67,0,0,1,7.13-3.62,39.3,39.3,0,0,0-9.21-2.91l-.42-.06.37-.21a14.51,14.51,0,0,1,15.58.31,29.41,29.41,0,0,0-3.25-4.64l-.24-.27.36,0c5.35.39,9.87,5.55,11.46,7.59a1.6,1.6,0,0,1,.36,1c-.05-.08-5.16-7.52-11.48-8.24a33.5,33.5,0,0,1,3.37,5l.35.66-.57-.48a14.16,14.16,0,0,0-15.43-.88,43.11,43.11,0,0,1,9.4,3.1l.6.29h-.67a11,11,0,0,0-7.16,3.22,29.57,29.57,0,0,1,6.7-.11,5.56,5.56,0,0,1,1.82.46c-.06,0-6-.7-8.93,0Z" transform="translate(-28.56 -42.48)"/><path class="cls-5" d="M189.91,79.07C184.49,74.21,175,84,172.5,89.75c1.64,1.2,6.32,4.76,8.69,8.14C189,95.88,196.11,84.62,189.91,79.07Z" transform="translate(-28.56 -42.48)"/><path class="cls-9" d="M188.85,80.1c1.77,1.22,2.91,2.58,3.26,6a7.26,7.26,0,0,0-2.2-7c-5.08-4.55-13.75,3.77-16.87,9.56C178,83.76,183.92,76.7,188.85,80.1Z" transform="translate(-28.56 -42.48)"/><path class="cls-6" d="M180.68,94c-1-1.17,2.47-5.78,3.72-1.69.81-2.38,0-3.38-.66-4.15,1.42-1.66,3.15-3.62,4.74-.33.08-2.32-1.54-4.43-3.68-2.95-3.43,2.24-5.35,5.53-7.07,9.18a26,26,0,0,1,3.46,3.84c5-1.28,9.67-6.33,10.81-11.26C189,91.75,182.93,96.57,180.68,94Z" transform="translate(-28.56 -42.48)"/><path class="cls-7" d="M181.13,98.06l0-.08c-2.33-3.32-6.84-6.78-8.67-8.11l-.09-.07,0-.1c2.07-4.75,9.33-12.92,15-12A5,5,0,0,1,190,79a7.58,7.58,0,0,1,2.1,7.81c-1.22,5-6,10-10.88,11.25Zm-8.46-8.35c1.89,1.37,6.26,4.75,8.58,8,4.75-1.28,9.39-6.09,10.58-11a7.29,7.29,0,0,0-2-7.53,4.89,4.89,0,0,0-2.5-1.21C181.91,77.11,174.72,85.13,172.67,89.71Z" transform="translate(-28.56 -42.48)"/><path class="cls-4" d="M181.76,99.06c-2.36-4.33-9.87-9.56-9.94-9.61a.86.86,0,0,1,.68.13c1.76,1.28,7.49,5.62,9.51,9.35Z" transform="translate(-28.56 -42.48)"/><path class="cls-7" d="M178.08,94.22l-.27-.11c2-5,6-10.14,8.71-9.8.89.11,1.54.8,1.94,2a5.55,5.55,0,0,1,0,1.47c-.27-2-1-3.09-2-3.22C184.17,84.3,180.32,88.71,178.08,94.22Z" transform="translate(-28.56 -42.48)"/><path class="cls-7" d="M184.4,92.3c.44-1.86.19-3.33-.65-3.82s-2,0-3.35,1.26l-.2-.22c1.47-1.36,2.78-1.82,3.7-1.29a2.84,2.84,0,0,1,1,2.72A5,5,0,0,1,184.4,92.3Z" transform="translate(-28.56 -42.48)"/><path class="cls-22" d="M121.38,89.46a5.28,5.28,0,0,0,4.31,2.11c2.66-.19,4.42-.34,5.4-1.26C130.6,88.18,122.5,86.13,121.38,89.46Z" transform="translate(-28.56 -42.48)"/><path class="cls-23" d="M124.67,91.67h0a5.76,5.76,0,0,1-3.41-2.13l0-.06,0-.07c.51-1.52,2.45-2.16,5.21-1.72,2.1.33,4.49,1.36,4.77,2.59l0,.08-.06.06c-1,1-2.91,1.1-5.49,1.29A4.45,4.45,0,0,1,124.67,91.67Zm-3.13-2.24a5.52,5.52,0,0,0,3.18,2h0a4.41,4.41,0,0,0,1,0c2.47-.18,4.26-.32,5.25-1.16-.31-.93-2.3-1.94-4.52-2.3C124.43,87.66,122.13,87.88,121.54,89.43Z" transform="translate(-28.56 -42.48)"/><path class="cls-24" d="M123.05,89.35s.21.17.14,1.25c0,.7.61,1.46,2.62,1.51s2.74-1,2.26-1.5-.55-1.22.32-1.22,1,1.34,2.34,1.37,2.51-.93,2-2.42-1.62-3.06-6.18-3.64c-5.09-.65-6,2.28-6.14,3a1.88,1.88,0,0,0,1.08,2.06A1.53,1.53,0,0,0,123.05,89.35Z" transform="translate(-28.56 -42.48)"/><path class="cls-25" d="M132.75,88.34a4.09,4.09,0,0,0-1-1.71,1.64,1.64,0,0,1-.95,2.5c-.94.43-1.85-1.18-3.08-.79-1,.43-.44,2.15-1.83,2.17-2.12,0-2.07-2-3.56-2.39,0,1.84-1.64.39-1.89-.11a1.79,1.79,0,0,0,1.1,1.76,1.53,1.53,0,0,0,1.54-.42s.21.17.14,1.25c0,.7.61,1.46,2.62,1.51s2.74-1,2.26-1.5-.55-1.22.32-1.22,1,1.34,2.34,1.37S133.24,89.83,132.75,88.34Z" transform="translate(-28.56 -42.48)"/><path class="cls-23" d="M124.93,92.18c-1.83-.29-1.91-1.29-1.89-1.59a3.19,3.19,0,0,0,0-1,1.58,1.58,0,0,1-1.28.37h0a1.14,1.14,0,0,1-.25-.06,2,2,0,0,1-1.18-2.21c0-.16.57-3.87,6.29-3.14,4.69.6,5.81,2.24,6.3,3.75a1.87,1.87,0,0,1-.22,1.76,2.3,2.3,0,0,1-1.94.85,2,2,0,0,1-1.54-.85c-.25-.29-.46-.52-.79-.52s-.4.06-.46.21a.82.82,0,0,0,.24.76.63.63,0,0,1,.12.74c-.21.49-1,1-2.48,1A5.92,5.92,0,0,1,124.93,92.18Zm-1.89-3,.1.08c.07.05.27.3.19,1.37,0,.78.9,1.32,2.48,1.36,1.27,0,2-.4,2.22-.83a.37.37,0,0,0-.06-.43,1.07,1.07,0,0,1-.3-1.08.68.68,0,0,1,.72-.38,1.34,1.34,0,0,1,1,.61,1.71,1.71,0,0,0,1.34.76,2,2,0,0,0,1.7-.73,1.57,1.57,0,0,0,.18-1.5c-.47-1.43-1.55-3-6.06-3.55-5.45-.69-6,2.74-6,2.89a1.72,1.72,0,0,0,1,1.9,1.39,1.39,0,0,0,1.38-.37Z" transform="translate(-28.56 -42.48)"/><path class="cls-23" d="M123.06,90.06a3.2,3.2,0,0,0-.56-1.62,2.37,2.37,0,0,1,.85,1.62Z" transform="translate(-28.56 -42.48)"/><path class="cls-26" d="M127.12,85.78c0,.42-.87.76-1.94.76s-1.94-.35-1.94-.77.87-.76,1.94-.76S127.12,85.36,127.12,85.78Z" transform="translate(-28.56 -42.48)"/><path class="cls-7" d="M124.66,92.11l-.3-.07c-3.26,4.74-1.31,10.32-1.29,10.38l.27-.1S121.4,96.75,124.66,92.11Z" transform="translate(-28.56 -42.48)"/><path class="cls-6" d="M116.59,80.09c-1.06-4.72,3.12-12.23,6-11.73,3.15.56,3.3,8,1.76,12C123.05,83.68,117.38,83.58,116.59,80.09Z" transform="translate(-28.56 -42.48)"/><path class="cls-18" d="M116,81.85c-1.08-4.75,3.17-12.42,6.06-12,3.19.5,3.34,8,1.77,12.12C122.57,85.35,116.81,85.36,116,81.85Z" transform="translate(-28.56 -42.48)"/><path class="cls-15" d="M116,82.5c-1.07-4.76,3.18-12.48,6.08-12,3.19.48,3.34,8.05,1.78,12.13C122.51,86,116.75,86,116,82.5Z" transform="translate(-28.56 -42.48)"/><path class="cls-16" d="M115.81,81.47a6.9,6.9,0,0,0,.14,1c.8,3.51,6.56,3.46,7.86.09a14.58,14.58,0,0,0,.75-3C122.1,81.53,118.7,82.88,115.81,81.47Z" transform="translate(-28.56 -42.48)"/><path class="cls-18" d="M120.28,85.23c-1.78.19-4-.56-4.48-2.68C115,79.18,117,74.34,119.07,72c1.05-1.2,2.08-1.76,3-1.62A2.65,2.65,0,0,1,124,71.86c1.38,2.55,1.12,7.7-.06,10.77A4.25,4.25,0,0,1,120.28,85.23Zm1.61-14.65a3.57,3.57,0,0,0-2.61,1.54c-2,2.35-3.92,7.06-3.18,10.32.45,2,2.53,2.68,4.2,2.51a3.91,3.91,0,0,0,3.39-2.39c1.16-3,1.42-8.08.07-10.57a2.46,2.46,0,0,0-1.75-1.4Z" transform="translate(-28.56 -42.48)"/><path class="cls-19" d="M122.16,76.07c-1.61-.16-3.29,1.62-3.69,4s.67,4.43,2.35,4.43,3.17-1.87,3.51-4.14S123.71,76.23,122.16,76.07Z" transform="translate(-28.56 -42.48)"/><path class="cls-20" d="M120.5,81.87a3.78,3.78,0,0,1-2.07-1.44c-.25,2.27.8,4.08,2.4,4.08s3.13-1.83,3.49-4.06A4.19,4.19,0,0,1,120.5,81.87Z" transform="translate(-28.56 -42.48)"/><path class="cls-18" d="M122.22,78.25c-1-.07-2.14,1.18-2.41,2.81s.41,3,1.49,3,2.09-1.28,2.33-2.86S123.24,78.33,122.22,78.25Z" transform="translate(-28.56 -42.48)"/><path class="cls-15" d="M122,78.28a1.25,1.25,0,0,0-1.37,1,1,1,0,0,0,.81,1.35,1.27,1.27,0,0,0,1.35-1A1,1,0,0,0,122,78.28Z" transform="translate(-28.56 -42.48)"/><path class="cls-15" d="M120.6,82.26a.61.61,0,0,0-.65.49.46.46,0,0,0,.38.61.63.63,0,0,0,.65-.49A.48.48,0,0,0,120.6,82.26Z" transform="translate(-28.56 -42.48)"/><path class="cls-21" d="M122.17,76c-1.66-.17-3.4,1.65-3.81,4.1s.6,4.35,2.22,4.51h.23c1.68,0,3.28-1.91,3.62-4.22S123.78,76.15,122.17,76Zm-1.31,8.31c-1.58,0-2.57-1.92-2.19-4.2s2-4,3.46-3.82l.19,0c1.34.28,2.13,2,1.83,4.06S122.37,84.3,120.86,84.29Z" transform="translate(-28.56 -42.48)"/></svg>